<?xml version="1.0" encoding="UTF-8"?>
<svg id="Layer_1" xmlns="http://www.w3.org/2000/svg" version="1.1" viewBox="0 0 500 500">
  <!-- Generator: Adobe Illustrator 29.1.0, SVG Export Plug-In . SVG Version: 2.1.0 Build 142)  -->
  <defs>
    <style>
      .st0 {
        isolation: isolate;
        opacity: .1;
      }

      .st1 {
        stroke-width: .8px;
      }

      .st1, .st2, .st3 {
        fill: none;
        stroke-miterlimit: 10;
      }

      .st1, .st3 {
        stroke: #ebebeb;
      }

      .st4 {
        fill: #75e0da;
      }

      .st5 {
        fill: #ebebeb;
      }

      .st6 {
        fill: #dbdbdb;
      }

      .st7 {
        fill: #37474f;
      }

      .st8 {
        fill: #263238;
      }

      .st2 {
        stroke: #c7c7c7;
      }

      .st9 {
        fill: #c7c7c7;
      }

      .st10 {
        fill: #a6a6a6;
      }

      .st11 {
        fill: #fff;
      }

      .st12 {
        fill: #ffc727;
      }

      .st13 {
        fill: #6abfb9;
      }

      .st14 {
        fill: #455a64;
      }
    </style>
  </defs>
  <g id="freepik--background-complete--inject-60">
    <rect class="st1" x="417.4" y="60.8" width="26.5" height="11.2"/>
    <rect class="st1" x="432.2" y="46.7" width="26.5" height="11.2"/>
    <rect class="st1" x="250" y="171" width="26.5" height="11.2"/>
    <rect class="st1" x="264.8" y="156.9" width="26.5" height="11.2"/>
    <rect class="st1" x="279.5" y="171" width="26.5" height="11.2"/>
    <rect class="st1" x="41.3" y="46.7" width="26.5" height="11.2"/>
    <rect class="st1" x="56.1" y="309.9" width="26.5" height="11.2"/>
    <rect class="st1" x="41.3" y="295.7" width="26.5" height="11.2"/>
    <rect class="st1" x="417.4" y="309.9" width="26.5" height="11.2"/>
    <polyline class="st3" points="208.8 421.5 208.8 295.9 235.6 259.4 235.6 191.1"/>
    <path class="st3" d="M233.2,188.7c0,1.3,1.1,2.4,2.4,2.4s2.4-1.1,2.4-2.4-1.1-2.4-2.4-2.4c0,0,0,0,0,0-1.3,0-2.4,1.1-2.4,2.4s0,0,0,0Z"/>
    <polyline class="st3" points="215.7 421.5 215.7 300.3 242.4 263.8 242.4 216.1"/>
    <path class="st3" d="M240.1,213.7c0,1.3,1.1,2.4,2.4,2.4,1.3,0,2.4-1.1,2.4-2.4,0-1.3-1.1-2.4-2.4-2.4,0,0,0,0,0,0-1.3,0-2.4,1.1-2.4,2.4Z"/>
    <line class="st3" x1="202.2" y1="421.5" x2="202.2" y2="255.1"/>
    <path class="st3" d="M199.8,252.8c0,1.3,1.1,2.4,2.4,2.4,1.3,0,2.4-1.1,2.4-2.4,0-1.3-1.1-2.4-2.4-2.4,0,0,0,0,0,0-1.3,0-2.4,1.1-2.4,2.4Z"/>
    <polyline class="st3" points="195.8 421.5 195.8 337 177.7 302.7 177.7 241.4"/>
    <path class="st3" d="M175.3,239c0,1.3,1.1,2.4,2.4,2.4,1.3,0,2.4-1.1,2.4-2.4,0-1.3-1.1-2.4-2.4-2.4-1.3,0-2.4,1.1-2.4,2.4,0,0,0,0,0,0Z"/>
    <polyline class="st3" points="189.4 421.5 189.4 340.6 168.1 302.8 168.1 262.4"/>
    <path class="st3" d="M165.7,260c0,1.3,1.1,2.4,2.4,2.4,1.3,0,2.4-1.1,2.4-2.4,0-1.3-1.1-2.4-2.4-2.4,0,0,0,0,0,0-1.3,0-2.4,1.1-2.4,2.4Z"/>
    <line class="st2" x1="110.7" y1="37.6" x2="110.7"/>
    <polygon class="st5" points="133.9 59.9 132.1 64 89.4 64 87.5 59.9 105.7 47.3 115.8 47.3 133.9 59.9"/>
    <polygon class="st6" points="117 35.2 115.8 47.3 105.7 47.3 104.4 35.2 117 35.2"/>
    <polygon class="st6" points="133.9 59.9 132.1 64 89.4 64 87.5 59.9 133.9 59.9"/>
    <line class="st2" x1="203.6" y1="37.6" x2="203.6"/>
    <polygon class="st5" points="226.8 59.9 224.9 64 182.2 64 180.4 59.9 198.5 47.3 208.6 47.3 226.8 59.9"/>
    <polygon class="st6" points="209.9 35.2 208.6 47.3 198.5 47.3 197.3 35.2 209.9 35.2"/>
    <polygon class="st6" points="226.8 59.9 224.9 64 182.2 64 180.4 59.9 226.8 59.9"/>
    <line class="st2" x1="296.4" y1="37.6" x2="296.4"/>
    <polygon class="st5" points="319.6 59.9 317.8 64 275.1 64 273.2 59.9 291.4 47.3 301.5 47.3 319.6 59.9"/>
    <polygon class="st6" points="302.7 35.2 301.5 47.3 291.4 47.3 290.1 35.2 302.7 35.2"/>
    <polygon class="st6" points="319.6 59.9 317.8 64 275.1 64 273.2 59.9 319.6 59.9"/>
    <line class="st2" x1="389.3" y1="37.6" x2="389.3"/>
    <polygon class="st5" points="412.5 59.9 410.6 64 367.9 64 366.1 59.9 384.2 47.3 394.3 47.3 412.5 59.9"/>
    <polygon class="st6" points="395.6 35.2 394.3 47.3 384.2 47.3 383 35.2 395.6 35.2"/>
    <polygon class="st6" points="412.5 59.9 410.6 64 367.9 64 366.1 59.9 412.5 59.9"/>
  </g>
  <g id="freepik--Shadow--inject-60">
    <ellipse class="st5" cx="183.8" cy="443.4" rx="106.4" ry="17"/>
  </g>
  <g id="freepik--Server--inject-60">
    <rect class="st7" x="267.4" y="176.4" width="65" height="245.2"/>
    <rect class="st14" x="332.4" y="176.4" width="119.7" height="245.2"/>
    <rect class="st7" x="341.4" y="389.8" width="103.2" height="23.8"/>
    <rect class="st14" x="345.7" y="393.7" width="58.8" height="2"/>
    <rect class="st14" x="345.7" y="397.2" width="58.8" height="2"/>
    <rect class="st14" x="345.7" y="400.7" width="58.8" height="2"/>
    <rect class="st14" x="345.7" y="404.2" width="58.8" height="2"/>
    <rect class="st14" x="345.7" y="407.7" width="58.8" height="2"/>
    <path class="st4" d="M415.2,395.7c0,1.1-.9,2-2,2s-2-.9-2-2,.9-2,2-2,2,.9,2,2Z"/>
    <path class="st4" d="M421.8,395.7c0,1.1-.9,2-2,2s-2-.9-2-2,.9-2,2-2,2,.9,2,2Z"/>
    <path class="st4" d="M428.3,395.7c0,1.1-.9,2-2,2s-2-.9-2-2,.9-2,2-2,2,.9,2,2Z"/>
    <path class="st4" d="M434.9,395.7c0,1.1-.9,2-2,2s-2-.9-2-2,.9-2,2-2,2,.9,2,2Z"/>
    <path class="st4" d="M441.5,395.7c0,1.1-.9,2-2,2s-2-.9-2-2,.9-2,2-2,2,.9,2,2Z"/>
    <path class="st4" d="M415.2,401.7c0,1.1-.9,2-2,2s-2-.9-2-2,.9-2,2-2,2,.9,2,2Z"/>
    <path class="st4" d="M421.8,401.7c0,1.1-.9,2-2,2s-2-.9-2-2,.9-2,2-2,2,.9,2,2Z"/>
    <path class="st4" d="M428.3,401.7c0,1.1-.9,2-2,2s-2-.9-2-2,.9-2,2-2,2,.9,2,2Z"/>
    <path class="st4" d="M434.9,401.7c0,1.1-.9,2-2,2s-2-.9-2-2,.9-2,2-2,2,.9,2,2Z"/>
    <path class="st4" d="M441.5,401.7c0,1.1-.9,2-2,2s-2-.9-2-2,.9-2,2-2,2,.9,2,2Z"/>
    <circle class="st4" cx="413.2" cy="407.7" r="2"/>
    <path class="st4" d="M421.8,407.7c0,1.1-.9,2-2,2s-2-.9-2-2,.9-2,2-2,2,.9,2,2Z"/>
    <circle class="st4" cx="426.3" cy="407.7" r="2"/>
    <path class="st4" d="M434.9,407.7c0,1.1-.9,2-2,2s-2-.9-2-2,.9-2,2-2,2,.9,2,2Z"/>
    <path class="st4" d="M441.5,407.7c0,1.1-.9,2-2,2s-2-.9-2-2,.9-2,2-2,2,.9,2,2Z"/>
    <rect class="st8" x="407.4" y="393.7" width="1.1" height="16"/>
    <rect class="st7" x="341.4" y="361.1" width="103.2" height="23.8"/>
    <rect class="st14" x="345.7" y="365" width="58.8" height="2"/>
    <rect class="st14" x="345.7" y="368.5" width="58.8" height="2"/>
    <rect class="st14" x="345.7" y="372" width="58.8" height="2"/>
    <rect class="st14" x="345.7" y="375.5" width="58.8" height="2"/>
    <rect class="st14" x="345.7" y="379" width="58.8" height="2"/>
    <path class="st4" d="M415.2,367c0,1.1-.9,2-2,2s-2-.9-2-2,.9-2,2-2,2,.9,2,2Z"/>
    <path class="st4" d="M421.8,367c0,1.1-.9,2-2,2s-2-.9-2-2,.9-2,2-2,2,.9,2,2Z"/>
    <path class="st4" d="M428.3,367c0,1.1-.9,2-2,2s-2-.9-2-2,.9-2,2-2,2,.9,2,2Z"/>
    <path class="st4" d="M434.9,367c0,1.1-.9,2-2,2s-2-.9-2-2,.9-2,2-2,2,.9,2,2Z"/>
    <path class="st4" d="M441.5,367c0,1.1-.9,2-2,2s-2-.9-2-2,.9-2,2-2,2,.9,2,2Z"/>
    <path class="st4" d="M415.2,373c0,1.1-.9,2-2,2s-2-.9-2-2,.9-2,2-2,2,.9,2,2Z"/>
    <path class="st4" d="M421.8,373c0,1.1-.9,2-2,2s-2-.9-2-2,.9-2,2-2,2,.9,2,2Z"/>
    <path class="st4" d="M428.3,373c0,1.1-.9,2-2,2s-2-.9-2-2,.9-2,2-2,2,.9,2,2Z"/>
    <path class="st4" d="M434.9,373c0,1.1-.9,2-2,2s-2-.9-2-2,.9-2,2-2,2,.9,2,2Z"/>
    <path class="st4" d="M441.5,373c0,1.1-.9,2-2,2s-2-.9-2-2,.9-2,2-2,2,.9,2,2Z"/>
    <path class="st4" d="M415.2,379c0,1.1-.9,2-2,2s-2-.9-2-2,.9-2,2-2,2,.9,2,2Z"/>
    <path class="st4" d="M421.8,379c0,1.1-.9,2-2,2s-2-.9-2-2,.9-2,2-2,2,.9,2,2Z"/>
    <path class="st4" d="M428.3,379c0,1.1-.9,2-2,2s-2-.9-2-2,.9-2,2-2,2,.9,2,2Z"/>
    <path class="st4" d="M434.9,379c0,1.1-.9,2-2,2s-2-.9-2-2,.9-2,2-2,2,.9,2,2Z"/>
    <path class="st4" d="M441.5,379c0,1.1-.9,2-2,2s-2-.9-2-2,.9-2,2-2,2,.9,2,2Z"/>
    <rect class="st8" x="407.4" y="365" width="1.1" height="16"/>
    <rect class="st7" x="341.4" y="332.3" width="103.2" height="23.8"/>
    <rect class="st14" x="345.7" y="336.3" width="58.8" height="2"/>
    <rect class="st14" x="345.7" y="339.8" width="58.8" height="2"/>
    <rect class="st14" x="345.7" y="343.2" width="58.8" height="2"/>
    <rect class="st14" x="345.7" y="346.7" width="58.8" height="2"/>
    <rect class="st14" x="345.7" y="350.2" width="58.8" height="2"/>
    <circle class="st4" cx="413.2" cy="338.3" r="2"/>
    <path class="st4" d="M421.8,338.3c0,1.1-.9,2-2,2s-2-.9-2-2,.9-2,2-2,2,.9,2,2Z"/>
    <circle class="st4" cx="426.3" cy="338.3" r="2"/>
    <path class="st4" d="M434.9,338.3c0,1.1-.9,2-2,2s-2-.9-2-2,.9-2,2-2,2,.9,2,2Z"/>
    <path class="st4" d="M441.5,338.3c0,1.1-.9,2-2,2s-2-.9-2-2,.9-2,2-2,2,.9,2,2Z"/>
    <path class="st4" d="M415.2,344.3c0,1.1-.9,2-2,2s-2-.9-2-2,.9-2,2-2,2,.9,2,2Z"/>
    <path class="st4" d="M421.8,344.3c0,1.1-.9,2-2,2s-2-.9-2-2,.9-2,2-2,2,.9,2,2Z"/>
    <path class="st4" d="M428.3,344.3c0,1.1-.9,2-2,2s-2-.9-2-2,.9-2,2-2,2,.9,2,2Z"/>
    <path class="st4" d="M434.9,344.3c0,1.1-.9,2-2,2s-2-.9-2-2,.9-2,2-2,2,.9,2,2Z"/>
    <path class="st4" d="M441.5,344.3c0,1.1-.9,2-2,2s-2-.9-2-2,.9-2,2-2,2,.9,2,2Z"/>
    <path class="st4" d="M415.2,350.2c0,1.1-.9,2-2,2s-2-.9-2-2,.9-2,2-2,2,.9,2,2Z"/>
    <path class="st4" d="M421.8,350.2c0,1.1-.9,2-2,2s-2-.9-2-2,.9-2,2-2,2,.9,2,2Z"/>
    <path class="st4" d="M428.3,350.2c0,1.1-.9,2-2,2s-2-.9-2-2,.9-2,2-2,2,.9,2,2Z"/>
    <path class="st4" d="M434.9,350.2c0,1.1-.9,2-2,2s-2-.9-2-2,.9-2,2-2,2,.9,2,2Z"/>
    <path class="st4" d="M441.5,350.2c0,1.1-.9,2-2,2s-2-.9-2-2,.9-2,2-2,2,.9,2,2Z"/>
    <rect class="st8" x="407.4" y="336.3" width="1.1" height="16"/>
    <rect class="st7" x="341.4" y="303.6" width="103.2" height="23.8"/>
    <rect class="st14" x="345.7" y="307.5" width="58.8" height="2"/>
    <rect class="st14" x="345.7" y="311" width="58.8" height="2"/>
    <rect class="st14" x="345.7" y="314.5" width="58.8" height="2"/>
    <rect class="st14" x="345.7" y="318" width="58.8" height="2"/>
    <rect class="st14" x="345.7" y="321.5" width="58.8" height="2"/>
    <path class="st4" d="M415.2,309.5c0,1.1-.9,2-2,2s-2-.9-2-2,.9-2,2-2,2,.9,2,2Z"/>
    <path class="st4" d="M421.8,309.5c0,1.1-.9,2-2,2s-2-.9-2-2,.9-2,2-2,2,.9,2,2Z"/>
    <path class="st4" d="M428.3,309.5c0,1.1-.9,2-2,2s-2-.9-2-2,.9-2,2-2,2,.9,2,2Z"/>
    <path class="st4" d="M434.9,309.5c0,1.1-.9,2-2,2s-2-.9-2-2,.9-2,2-2,2,.9,2,2Z"/>
    <path class="st4" d="M441.5,309.5c0,1.1-.9,2-2,2s-2-.9-2-2,.9-2,2-2,2,.9,2,2Z"/>
    <circle class="st4" cx="413.2" cy="315.5" r="2"/>
    <path class="st4" d="M421.8,315.5c0,1.1-.9,2-2,2s-2-.9-2-2,.9-2,2-2,2,.9,2,2Z"/>
    <circle class="st4" cx="426.3" cy="315.5" r="2"/>
    <path class="st4" d="M434.9,315.5c0,1.1-.9,2-2,2s-2-.9-2-2,.9-2,2-2,2,.9,2,2Z"/>
    <path class="st4" d="M441.5,315.5c0,1.1-.9,2-2,2s-2-.9-2-2,.9-2,2-2,2,.9,2,2Z"/>
    <circle class="st4" cx="413.2" cy="321.5" r="2"/>
    <path class="st4" d="M421.8,321.5c0,1.1-.9,2-2,2s-2-.9-2-2,.9-2,2-2,2,.9,2,2Z"/>
    <circle class="st4" cx="426.3" cy="321.5" r="2"/>
    <path class="st4" d="M434.9,321.5c0,1.1-.9,2-2,2s-2-.9-2-2,.9-2,2-2,2,.9,2,2Z"/>
    <path class="st4" d="M441.5,321.5c0,1.1-.9,2-2,2s-2-.9-2-2,.9-2,2-2,2,.9,2,2Z"/>
    <rect class="st8" x="407.4" y="307.5" width="1.1" height="16"/>
    <rect class="st7" x="341.4" y="274.9" width="103.2" height="23.8"/>
    <rect class="st14" x="345.7" y="278.8" width="58.8" height="2"/>
    <rect class="st14" x="345.7" y="282.3" width="58.8" height="2"/>
    <rect class="st14" x="345.7" y="285.8" width="58.8" height="2"/>
    <rect class="st14" x="345.7" y="289.3" width="58.8" height="2"/>
    <rect class="st14" x="345.7" y="292.8" width="58.8" height="2"/>
    <circle class="st4" cx="413.2" cy="280.8" r="2"/>
    <path class="st4" d="M421.8,280.8c0,1.1-.9,2-2,2s-2-.9-2-2,.9-2,2-2,2,.9,2,2Z"/>
    <circle class="st4" cx="426.3" cy="280.8" r="2"/>
    <path class="st4" d="M434.9,280.8c0,1.1-.9,2-2,2s-2-.9-2-2,.9-2,2-2,2,.9,2,2Z"/>
    <path class="st4" d="M441.5,280.8c0,1.1-.9,2-2,2s-2-.9-2-2,.9-2,2-2,2,.9,2,2Z"/>
    <circle class="st4" cx="413.2" cy="286.8" r="2"/>
    <path class="st4" d="M421.8,286.8c0,1.1-.9,2-2,2s-2-.9-2-2,.9-2,2-2,2,.9,2,2Z"/>
    <circle class="st4" cx="426.3" cy="286.8" r="2"/>
    <path class="st4" d="M434.9,286.8c0,1.1-.9,2-2,2s-2-.9-2-2,.9-2,2-2,2,.9,2,2Z"/>
    <path class="st4" d="M441.5,286.8c0,1.1-.9,2-2,2s-2-.9-2-2,.9-2,2-2,2,.9,2,2Z"/>
    <path class="st4" d="M415.2,292.8c0,1.1-.9,2-2,2s-2-.9-2-2,.9-2,2-2,2,.9,2,2Z"/>
    <path class="st4" d="M421.8,292.8c0,1.1-.9,2-2,2s-2-.9-2-2,.9-2,2-2,2,.9,2,2Z"/>
    <path class="st4" d="M428.3,292.8c0,1.1-.9,2-2,2s-2-.9-2-2,.9-2,2-2,2,.9,2,2Z"/>
    <path class="st4" d="M434.9,292.8c0,1.1-.9,2-2,2s-2-.9-2-2,.9-2,2-2,2,.9,2,2Z"/>
    <path class="st4" d="M441.5,292.8c0,1.1-.9,2-2,2s-2-.9-2-2,.9-2,2-2,2,.9,2,2Z"/>
    <rect class="st8" x="407.4" y="278.8" width="1.1" height="16"/>
    <rect class="st7" x="341.4" y="246.1" width="103.2" height="23.8"/>
    <rect class="st14" x="345.7" y="250.1" width="58.8" height="2"/>
    <rect class="st14" x="345.7" y="253.6" width="58.8" height="2"/>
    <rect class="st14" x="345.7" y="257.1" width="58.8" height="2"/>
    <rect class="st14" x="345.7" y="260.5" width="58.8" height="2"/>
    <rect class="st14" x="345.7" y="264" width="58.8" height="2"/>
    <path class="st4" d="M415.2,252.1c0,1.1-.9,2-2,2s-2-.9-2-2,.9-2,2-2,2,.9,2,2Z"/>
    <path class="st4" d="M421.8,252.1c0,1.1-.9,2-2,2s-2-.9-2-2,.9-2,2-2,2,.9,2,2Z"/>
    <path class="st4" d="M428.3,252.1c0,1.1-.9,2-2,2s-2-.9-2-2,.9-2,2-2,2,.9,2,2Z"/>
    <path class="st4" d="M434.9,252.1c0,1.1-.9,2-2,2s-2-.9-2-2,.9-2,2-2,2,.9,2,2Z"/>
    <path class="st4" d="M441.5,252.1c0,1.1-.9,2-2,2s-2-.9-2-2,.9-2,2-2,2,.9,2,2Z"/>
    <path class="st4" d="M415.2,258.1c0,1.1-.9,2-2,2s-2-.9-2-2,.9-2,2-2,2,.9,2,2Z"/>
    <path class="st4" d="M421.8,258.1c0,1.1-.9,2-2,2s-2-.9-2-2,.9-2,2-2,2,.9,2,2Z"/>
    <path class="st4" d="M428.3,258.1c0,1.1-.9,2-2,2s-2-.9-2-2,.9-2,2-2,2,.9,2,2Z"/>
    <path class="st4" d="M434.9,258.1c0,1.1-.9,2-2,2s-2-.9-2-2,.9-2,2-2,2,.9,2,2Z"/>
    <path class="st4" d="M441.5,258.1c0,1.1-.9,2-2,2s-2-.9-2-2,.9-2,2-2,2,.9,2,2Z"/>
    <path class="st4" d="M415.2,264.1c0,1.1-.9,2-2,2s-2-.9-2-2,.9-2,2-2,2,.9,2,2Z"/>
    <path class="st4" d="M421.8,264.1c0,1.1-.9,2-2,2s-2-.9-2-2,.9-2,2-2,2,.9,2,2Z"/>
    <path class="st4" d="M428.3,264.1c0,1.1-.9,2-2,2s-2-.9-2-2,.9-2,2-2,2,.9,2,2Z"/>
    <path class="st4" d="M434.9,264.1c0,1.1-.9,2-2,2s-2-.9-2-2,.9-2,2-2,2,.9,2,2Z"/>
    <path class="st4" d="M441.5,264.1c0,1.1-.9,2-2,2s-2-.9-2-2,.9-2,2-2,2,.9,2,2Z"/>
    <rect class="st8" x="407.4" y="250.1" width="1.1" height="16"/>
    <rect class="st7" x="341.4" y="217.4" width="103.2" height="23.8"/>
    <rect class="st14" x="345.7" y="221.4" width="58.8" height="2"/>
    <rect class="st14" x="345.7" y="224.9" width="58.8" height="2"/>
    <rect class="st14" x="345.7" y="228.3" width="58.8" height="2"/>
    <rect class="st14" x="345.7" y="231.8" width="58.8" height="2"/>
    <rect class="st14" x="345.7" y="235.3" width="58.8" height="2"/>
    <path class="st4" d="M415.2,223.4c0,1.1-.9,2-2,2s-2-.9-2-2,.9-2,2-2,2,.9,2,2Z"/>
    <path class="st4" d="M421.8,223.4c0,1.1-.9,2-2,2s-2-.9-2-2,.9-2,2-2,2,.9,2,2Z"/>
    <path class="st4" d="M428.3,223.4c0,1.1-.9,2-2,2s-2-.9-2-2,.9-2,2-2,2,.9,2,2Z"/>
    <path class="st4" d="M434.9,223.4c0,1.1-.9,2-2,2s-2-.9-2-2,.9-2,2-2,2,.9,2,2Z"/>
    <path class="st4" d="M441.5,223.4c0,1.1-.9,2-2,2s-2-.9-2-2,.9-2,2-2,2,.9,2,2Z"/>
    <path class="st4" d="M415.2,229.4c0,1.1-.9,2-2,2s-2-.9-2-2,.9-2,2-2,2,.9,2,2Z"/>
    <path class="st4" d="M421.8,229.4c0,1.1-.9,2-2,2s-2-.9-2-2,.9-2,2-2,2,.9,2,2Z"/>
    <path class="st4" d="M428.3,229.4c0,1.1-.9,2-2,2s-2-.9-2-2,.9-2,2-2,2,.9,2,2Z"/>
    <path class="st4" d="M434.9,229.4c0,1.1-.9,2-2,2s-2-.9-2-2,.9-2,2-2,2,.9,2,2Z"/>
    <path class="st4" d="M441.5,229.4c0,1.1-.9,2-2,2s-2-.9-2-2,.9-2,2-2,2,.9,2,2Z"/>
    <path class="st4" d="M415.2,235.3c0,1.1-.9,2-2,2s-2-.9-2-2,.9-2,2-2,2,.9,2,2Z"/>
    <path class="st4" d="M421.8,235.3c0,1.1-.9,2-2,2s-2-.9-2-2,.9-2,2-2,2,.9,2,2Z"/>
    <path class="st4" d="M428.3,235.3c0,1.1-.9,2-2,2s-2-.9-2-2,.9-2,2-2,2,.9,2,2Z"/>
    <path class="st4" d="M434.9,235.3c0,1.1-.9,2-2,2s-2-.9-2-2,.9-2,2-2,2,.9,2,2Z"/>
    <path class="st4" d="M441.5,235.3c0,1.1-.9,2-2,2s-2-.9-2-2,.9-2,2-2,2,.9,2,2Z"/>
    <rect class="st8" x="407.4" y="221.4" width="1.1" height="16"/>
    <rect class="st7" x="341.4" y="188.7" width="103.2" height="23.8"/>
    <rect class="st14" x="345.7" y="192.6" width="58.8" height="2"/>
    <rect class="st14" x="345.7" y="196.1" width="58.8" height="2"/>
    <rect class="st14" x="345.7" y="199.6" width="58.8" height="2"/>
    <rect class="st14" x="345.7" y="203.1" width="58.8" height="2"/>
    <rect class="st14" x="345.7" y="206.6" width="58.8" height="2"/>
    <path class="st4" d="M415.2,194.6c0,1.1-.9,2-2,2s-2-.9-2-2,.9-2,2-2,2,.9,2,2Z"/>
    <path class="st4" d="M421.8,194.6c0,1.1-.9,2-2,2s-2-.9-2-2,.9-2,2-2,2,.9,2,2Z"/>
    <path class="st4" d="M428.3,194.6c0,1.1-.9,2-2,2s-2-.9-2-2,.9-2,2-2,2,.9,2,2Z"/>
    <path class="st4" d="M434.9,194.6c0,1.1-.9,2-2,2s-2-.9-2-2,.9-2,2-2,2,.9,2,2Z"/>
    <path class="st4" d="M441.5,194.6c0,1.1-.9,2-2,2s-2-.9-2-2,.9-2,2-2,2,.9,2,2Z"/>
    <circle class="st4" cx="413.2" cy="200.6" r="2"/>
    <path class="st4" d="M421.8,200.6c0,1.1-.9,2-2,2s-2-.9-2-2,.9-2,2-2,2,.9,2,2Z"/>
    <circle class="st4" cx="426.3" cy="200.6" r="2"/>
    <path class="st4" d="M434.9,200.6c0,1.1-.9,2-2,2s-2-.9-2-2,.9-2,2-2,2,.9,2,2Z"/>
    <path class="st4" d="M441.5,200.6c0,1.1-.9,2-2,2s-2-.9-2-2,.9-2,2-2,2,.9,2,2Z"/>
    <path class="st4" d="M415.2,206.6c0,1.1-.9,2-2,2s-2-.9-2-2,.9-2,2-2,2,.9,2,2Z"/>
    <path class="st4" d="M421.8,206.6c0,1.1-.9,2-2,2s-2-.9-2-2,.9-2,2-2,2,.9,2,2Z"/>
    <path class="st4" d="M428.3,206.6c0,1.1-.9,2-2,2s-2-.9-2-2,.9-2,2-2,2,.9,2,2Z"/>
    <path class="st4" d="M434.9,206.6c0,1.1-.9,2-2,2s-2-.9-2-2,.9-2,2-2,2,.9,2,2Z"/>
    <path class="st4" d="M441.5,206.6c0,1.1-.9,2-2,2s-2-.9-2-2,.9-2,2-2,2,.9,2,2Z"/>
    <rect class="st8" x="407.4" y="192.6" width="1.1" height="16"/>
    <rect class="st7" x="291.7" y="168.9" width="136" height="7.6"/>
    <rect class="st8" x="277.9" y="384.1" width="15.2" height="15.2"/>
  </g>
  <g id="freepik--Texts--inject-60">
    <path class="st8" d="M63,226.7v-14.4h2.3v14.4h-2.3Z"/>
    <path class="st8" d="M70.8,216.6v10.1h-2.3v-14.4h1.8l8.2,10.4v-10.4h2.3v14.4h-1.9l-8.2-10.1Z"/>
    <path class="st8" d="M94.6,214.3h-4.8v12.4h-2.3v-12.4h-4.8v-2h11.9v2Z"/>
    <path class="st8" d="M106.4,224.7v2h-9.9v-14.4h9.7v2h-7.4v4.1h6.4v1.9h-6.4v4.4h7.6Z"/>
    <path class="st8" d="M108.8,226.7v-14.4h6.2c.6,0,1.2.1,1.8.4.5.3,1,.6,1.4,1.1.4.4.7.9.9,1.5.2.5.3,1.1.3,1.7,0,.5,0,.9-.2,1.4-.1.4-.3.9-.6,1.2-.2.4-.5.7-.9,1-.3.3-.7.5-1.2.6l3.4,5.5h-2.6l-3.1-5h-3.3v5h-2.2ZM111,219.7h4c.3,0,.6,0,.9-.2.3-.1.5-.3.7-.6.2-.3.3-.6.4-.9.1-.3.2-.7.2-1,0-.3,0-.7-.2-1-.1-.3-.3-.6-.5-.9-.2-.2-.5-.4-.7-.6-.3-.1-.6-.2-.9-.2h-3.9v5.3Z"/>
    <path class="st8" d="M124.4,216.6v10.1h-2.3v-14.4h1.8l8.2,10.4v-10.4h2.3v14.4h-1.9l-8.2-10.1Z"/>
    <path class="st8" d="M142,212.3h2l5.7,14.4h-2.4l-1.5-3.9h-5.6l-1.5,3.9h-2.4l5.7-14.4ZM145.3,221.1l-2.3-6.2-2.4,6.2h4.7Z"/>
    <path class="st8" d="M151.4,226.7v-14.4h2.3v12.4h7.7v2h-10Z"/>
    <path class="st8" d="M176.2,215.7c-.2-.2-.4-.3-.6-.5-.3-.2-.6-.3-.9-.5-.4-.2-.7-.3-1.1-.4-.4,0-.8-.1-1.3-.1-.7,0-1.5.1-2.1.5-.5.3-.7.9-.7,1.5,0,.3,0,.6.2.9.2.2.4.4.7.6.4.2.7.3,1.1.4.4.1,1,.3,1.6.4.7.2,1.3.3,2,.6.5.2,1,.5,1.5.8.4.3.7.7.9,1.1.2.5.3,1.1.3,1.6,0,.7-.1,1.3-.4,1.9-.3.5-.7,1-1.1,1.3-.5.3-1.1.6-1.7.7-.7.2-1.4.2-2.1.2-1.1,0-2.1-.2-3.2-.5-1-.3-1.9-.8-2.8-1.4l1-2c.2.2.5.4.8.6.4.2.7.4,1.1.6.5.2.9.3,1.4.5.5.1,1.1.2,1.6.2.7,0,1.4-.1,2.1-.5.5-.3.8-.8.7-1.4,0-.3,0-.6-.3-.9-.2-.3-.5-.5-.8-.6-.4-.2-.8-.4-1.2-.5-.5-.1-1-.3-1.7-.5-.6-.2-1.3-.4-1.9-.6-.5-.2-.9-.4-1.3-.8-.3-.3-.6-.6-.8-1-.2-.5-.3-1-.3-1.4,0-.6.1-1.3.4-1.9.3-.5.6-1,1.1-1.4.5-.4,1.1-.7,1.6-.8.7-.2,1.4-.3,2.1-.3.9,0,1.8.2,2.7.5.8.3,1.5.7,2.2,1.1l-1,1.9Z"/>
    <path class="st8" d="M190,224.7v2h-9.9v-14.4h9.7v2h-7.4v4.1h6.4v1.9h-6.4v4.4h7.6Z"/>
    <path class="st8" d="M192.3,226.7v-14.4h6.3c.6,0,1.2.1,1.8.4.5.3,1,.6,1.4,1.1.4.4.7.9.9,1.5.2.5.3,1.1.3,1.7,0,.5,0,.9-.2,1.4-.1.4-.3.9-.6,1.2-.2.4-.5.7-.9,1-.3.3-.7.5-1.1.6l3.4,5.5h-2.6l-3.1-5h-3.3v5h-2.2ZM194.6,219.7h4c.3,0,.6,0,.9-.2.3-.1.5-.3.7-.6.2-.3.3-.6.4-.9.1-.3.2-.7.2-1,0-.3,0-.7-.2-1-.1-.3-.3-.6-.5-.9-.2-.2-.5-.4-.7-.6-.3-.1-.6-.2-.9-.2h-3.9v5.3Z"/>
    <path class="st8" d="M206.3,212.3l4.3,11.5,4.3-11.5h2.4l-5.8,14.4h-2l-5.8-14.4h2.5Z"/>
    <path class="st8" d="M229,224.7v2h-9.9v-14.4h9.7v2h-7.4v4.1h6.4v1.9h-6.4v4.4h7.6Z"/>
    <path class="st8" d="M231.3,226.7v-14.4h6.3c.6,0,1.2.1,1.8.4.5.3,1,.6,1.4,1.1.4.4.7.9.9,1.5.2.5.3,1.1.3,1.7,0,.5,0,.9-.2,1.4-.1.4-.3.9-.6,1.2-.2.4-.5.7-.9,1-.3.3-.7.5-1.1.6l3.4,5.5h-2.6l-3.1-5h-3.3v5h-2.2ZM233.6,219.7h4c.3,0,.6,0,.9-.2.3-.1.5-.3.7-.6.2-.3.3-.6.4-.9.1-.3.2-.7.2-1,0-.3,0-.7-.2-1-.1-.3-.3-.6-.5-.9-.2-.2-.5-.4-.7-.6-.3-.1-.6-.2-.9-.2h-3.9v5.3Z"/>
    <path class="st8" d="M132.1,245.9v2.9h-10.1v-14.4h9.9v2.9h-6.6v2.8h5.7v2.7h-5.7v3.1h6.8Z"/>
    <path class="st8" d="M134.1,248.8v-14.4h6.5c.7,0,1.3.1,1.9.4.6.3,1.1.7,1.5,1.2.4.5.8,1,1,1.6.2.6.4,1.2.4,1.8,0,.4,0,.9-.2,1.3-.1.4-.3.8-.5,1.2-.2.4-.4.7-.7,1-.3.3-.6.5-1,.7l3.2,5.4h-3.8l-2.8-4.6h-2.2v4.6h-3.4ZM137.4,241.3h3c.4,0,.8-.2,1-.6.3-.4.5-.9.4-1.4,0-.5-.1-1-.5-1.4-.2-.3-.6-.5-1-.5h-2.9v3.9Z"/>
    <path class="st8" d="M147.7,248.8v-14.4h6.5c.7,0,1.3.1,1.9.4.6.3,1.1.7,1.5,1.1.4.5.8,1,1,1.6.2.6.4,1.2.4,1.8,0,.4,0,.9-.2,1.3-.1.4-.3.8-.5,1.2-.2.4-.4.7-.7,1-.3.3-.6.5-1,.7l3.2,5.4h-3.8l-2.8-4.6h-2.2v4.6h-3.3ZM151,241.3h3c.4,0,.8-.2,1-.6.3-.4.5-.9.4-1.4,0-.5-.1-1-.5-1.4-.3-.3-.6-.5-1.1-.5h-2.9v3.9Z"/>
    <path class="st8" d="M167.6,248.9c-1,0-2-.2-2.9-.6-.9-.4-1.6-1-2.2-1.6-.6-.7-1.1-1.5-1.4-2.3-.3-.9-.5-1.8-.5-2.7,0-.9.2-1.9.5-2.7.7-1.7,2.1-3.2,3.8-3.9.9-.4,1.9-.6,2.9-.6,1,0,2,.2,2.9.6.9.4,1.6,1,2.2,1.7.6.7,1.1,1.5,1.4,2.4.3.9.5,1.8.5,2.7,0,.9-.2,1.9-.5,2.7-.3.9-.9,1.6-1.5,2.3-.6.7-1.4,1.2-2.3,1.6-.9.4-1.9.6-2.9.6ZM163.8,241.6c0,.5,0,1.1.2,1.6.2.5.4,1,.7,1.4.3.4.7.8,1.2,1,.5.2,1.1.4,1.6.4,1.1,0,2.2-.5,2.8-1.4.3-.4.6-.9.7-1.4.2-.5.2-1.1.2-1.6,0-.5,0-1.1-.2-1.6-.2-.5-.4-1-.7-1.4-.3-.4-.7-.7-1.2-.9-1-.5-2.2-.5-3.3,0-.5.2-.9.6-1.2,1-.3.4-.6.9-.7,1.4-.1.5-.2,1-.2,1.6h0Z"/>
    <path class="st8" d="M176.7,248.8v-14.4h6.5c.6,0,1.3.1,1.9.4.6.3,1.1.7,1.5,1.1.4.5.8,1,1,1.6.2.6.3,1.2.4,1.8,0,.4,0,.9-.2,1.3-.1.4-.3.8-.5,1.2-.2.4-.4.7-.7,1-.3.3-.6.5-1,.7l3.2,5.4h-3.8l-2.8-4.6h-2.2v4.6h-3.3ZM180,241.3h3c.4,0,.8-.2,1-.6.3-.4.4-.9.4-1.4,0-.5-.2-1-.5-1.4-.3-.3-.6-.5-1.1-.5h-2.9v3.9Z"/>
    <path class="st4" d="M82.7,113.3v22.2c1.7-2.3,3.9-4.1,6.5-5.1,1.7-.6,3.4-.9,5.2-.9,6.8,0,11.9,2.4,15.2,7.2,2.8,4.1,4.2,10,4.2,17.5v22.3c0,7.7-2.4,13.9-7.3,18.8-4.6,4.7-10.9,7.3-17.5,7.1-6.5.2-12.7-2.6-17-7.4-4.3-4.7-6.7-10.9-6.5-17.3v-2.5l14.9-1.1.3,3.6c.4,4.1,2.1,6.9,5,8.3.9.4,1.8.7,2.8.7,6.4,0,9.6-3.3,9.6-10v-25.4c0-2.9-1.1-5.6-3.3-7.5-1.2-1-2.8-1.5-4.4-1.4-2.5-.1-4.8,1.1-6.1,3.2-1.1,1.8-1.7,3.8-1.7,5.9v2.8h-15.6v-56.6h45.7v15.7h-30.1Z"/>
    <path class="st4" d="M176.4,177.6c0,13.7-11.2,24.7-24.8,24.7-6.5,0-12.8-2.6-17.4-7.2-4.7-4.6-7.3-10.9-7.2-17.5v-56.5c0-13.7,11.1-24.8,24.7-24.8,6.6,0,12.9,2.6,17.5,7.3,4.7,4.6,7.3,10.9,7.2,17.5v56.5ZM160.2,120.8c0-5-4-9-9-9h0c-2.4,0-4.7.9-6.3,2.6-1.7,1.7-2.6,4-2.6,6.4v56.6c0,2.4.9,4.7,2.6,6.4,1.6,1.7,3.9,2.7,6.3,2.6,5,0,9-4,9-9v-56.6Z"/>
    <path class="st4" d="M239.4,177.6c0,13.7-11.1,24.7-24.7,24.7-13.6,0-24.7-11.1-24.7-24.7v-56.5c0-13.7,11.1-24.8,24.8-24.8,6.6,0,12.9,2.6,17.5,7.3,4.7,4.6,7.3,10.9,7.2,17.5v56.5ZM223.2,120.8c0-5-4-9-9-9h0c-2.4,0-4.7.9-6.3,2.6-1.7,1.7-2.6,4-2.6,6.4v56.6c0,2.4.9,4.7,2.6,6.4,1.6,1.7,3.9,2.7,6.3,2.6,5,0,9-4,9-9v-56.6Z"/>
  </g>
  <g id="freepik--wall-plug--inject-60">
    <rect class="st7" x="43.5" y="353.7" width="26.6" height="26.6"/>
    <circle class="st14" cx="56.7" cy="367" r="8.9"/>
    <rect class="st8" x="53.1" y="363.4" width="2" height="7.3"/>
    <rect class="st8" x="58.7" y="363.4" width="2" height="7.3"/>
  </g>
  <g id="freepik--Floor--inject-60">
    <polygon class="st8" points="36.8 421.6 90.1 421.4 143.4 421.3 250 421.1 356.6 421.3 409.9 421.4 463.1 421.6 409.9 421.8 356.6 421.9 250 422.1 143.4 421.9 90.1 421.8 36.8 421.6"/>
  </g>
  <g id="freepik--Dog--inject-60">
    <path class="st12" d="M128.1,396.5c1,2.1-2.8,17.3-4,20.4s-5.4,20.5-7.4,21.3-11.9.5-13.3,0,0-3.5,1.6-4.5,3.5-2.6,3.5-2.6c0,0-2.9-26.9-2.3-29.9s19.4-10.3,22-4.6Z"/>
    <path class="st13" d="M128.1,396.5c1,2.1-2.8,17.3-4,20.4s-5.4,20.5-7.4,21.3-11.9.5-13.3,0,0-3.5,1.6-4.5,3.5-2.6,3.5-2.6c0,0-2.9-26.9-2.3-29.9s19.4-10.3,22-4.6Z"/>
    <path class="st0" d="M107.4,437.1c.1-.5.3-1,.7-1.5.3-.4.7-.8,1.1-1.1.4-.3.9-.6,1.4-.7,0,0,0,0,0,0,0,0,0,0,0,0-.2.2-.4.3-.6.5s-.4.4-.5.5c-.3.4-.6.7-.8,1.2-.2.4-.5.8-.7,1.3s-.3.9-.5,1.4c0,0,0,0-.1,0,0,0,0,0,0,0,0-.5,0-1.1,0-1.6Z"/>
    <path class="st0" d="M104.5,435.5c.6-.9,1.4-1.7,2.4-2.1,0,0,.1,0,0,.1-.8.6-1.4,1.3-1.9,2.2-.5.9-.6,1.9-.4,2.9,0,0,0,0,0,0-.6-.9-.6-2.1-.1-3Z"/>
    <path class="st0" d="M106.9,416l13.6,12.9c1.5-4.9,2.9-10.3,3.5-11.9,1.2-3.1,5-18.3,4-20.4-2.6-5.7-21.5,1.6-22,4.6-.2,1.4.3,8.1.9,14.8Z"/>
    <path class="st4" d="M179.4,411.7c.6.5,5.9-4.5,6.7-6.9s-2.6-9.1-2-10.2,3.6-2,5.1-.3,5.4,11.3,4.6,15.4-9,13.2-9.9,13.2-4.5-11.3-4.5-11.3Z"/>
    <path class="st0" d="M179.4,411.7s3.6,11.2,4.5,11.2c.6,0,5.2-4.9,7.9-9.1l-7.5-6.3c-1.9,2.2-4.5,4.5-4.9,4.1Z"/>
    <path class="st9" d="M149.2,365.5h-44.4s-3.3,29.2-2.9,33.1,19.9,32.5,25.9,36.2,40.8,3.9,49.3,2c6.6-1.5,12.1-9.9,9.3-22.8-1.2-5.7-16.6-19.1-18.8-21.7s-18.4-26.9-18.4-26.9Z"/>
    <path class="st4" d="M101.8,398.6c.4,3.9,19.9,32.5,25.9,36.2s40.8,3.9,49.3,2c6.6-1.5,12.1-9.9,9.3-22.8-1.2-5.6-16.6-19.1-18.8-21.7-1.3-1.6-7.9-11.3-12.9-18.6-3.1-4.6-5.6-8.3-5.6-8.3h-44.4s-.8,7.3-1.6,15.1-1.5,16.1-1.3,18Z"/>
    <path class="st0" d="M103.2,380.6c23.9,7.4,45.1-3.1,51.6-6.9-3.1-4.6-5.6-8.3-5.6-8.3h-44.4s-.8,7.3-1.6,15.1Z"/>
    <path class="st4" d="M177.9,412.6s-12.2-7.7-20.8-6.3-11.6,19-7.5,28.9c0,0-7.8,2.3-7.8,6.1s4.5,2.8,10.9,2.7,19.3-.3,19.5-1.9c0-1.3-.2-2.7-.8-3.9,0,0,11.6-1.3,13.8-9s-5.4-15.3-7.3-16.6Z"/>
    <path class="st0" d="M161.2,436.1c3.3,1.3,6.8,2.1,10.3,2.3,0,0,0,.1,0,.1-3.6.4-7.2-.5-10.3-2.3,0,0,0-.1,0,0Z"/>
    <path class="st0" d="M146.8,444.1c.4-1.4,1.4-2.7,2.7-3.4.7-.5,1.5-.9,2.3-1.1.9-.3,1.9-.5,2.8-.8,0,0,.1,0,0,.1-.8.3-1.6.6-2.3,1.1-.7.4-1.5.8-2.2,1.3-1.2.8-2.2,1.8-3,3,0,.1-.3,0-.2-.1Z"/>
    <path class="st0" d="M148.4,438s0,0,0,0c0,0,0,0,0,0-2.4,1-4.3,2.9-5.3,5.2,0,.1-.2.1-.2,0,.4-2.8,2.6-5,5.5-5.3Z"/>
    <path class="st0" d="M144.6,437.5s0,0,0,0c1.5-.9,3.1-1.6,4.8-2.2.2.4.4.7.6,1,0,0,.1,0,.1,0-1.5-3.1-2.2-6.5-2.1-9.9,0-1.8.1-3.6.3-5.4h0c.4-3.1,1.4-6.2,2.9-9,.8-1.8,2.1-3.3,3.8-4.3,1.8-.9,3.7-1.2,5.6-1,2,.1,4,.5,5.9,1.1,1.9.5,3.9,1.2,5.7,2-3.6-2-7.5-3.3-11.6-3.9-2.1-.3-4.3,0-6.2,1-1.8,1.1-3.2,2.7-4.2,4.6-1.9,3.7-2.9,7.7-3.1,11.9v1.4h0v1.9c0,3,.7,5.9,2.1,8.5-1.8.3-3.5,1.1-4.8,2.3Z"/>
    <path class="st4" d="M142.4,400.3c1,2.1-2.8,17.3-4,20.4s-5.4,20.5-7.4,21.3-11.9.5-13.3,0,0-3.5,1.6-4.5,3.5-2.6,3.5-2.6c0,0-2.9-26.9-2.3-29.9s19.4-10.3,22-4.6Z"/>
    <path class="st0" d="M135.8,429.1c.9-2.7,2.1-5.4,3-8.1,0-.1.2,0,.2,0-.7,2.2-1.2,4.5-1.9,6.7.1-.1.2-.3.3-.5.7-.8,1.2-1.8,1.6-2.8,0,0,0,0,.1,0s0,0,0,.1h0c-.1.5-.3.9-.6,1.3-.3.5-.5,1-.8,1.5s-.7,1.3-1.1,1.9h0c-.8,2.9-1.9,5.6-3,8.3,0,0-.1,0-.2,0,0,0,0,0,0-.1.7-2.8,1.5-5.6,2.4-8.3Z"/>
    <path class="st0" d="M120.1,409.2s.1,0,.1,0c.3,2,.4,4.1.6,6.1s.5,4.2.7,6.4c.5,4.2,1.2,8.5,1.5,12.7,0,.2-.3.2-.4,0-1-4.1-1.7-8.2-2.1-12.4-.2-2.1-.3-4.2-.4-6.2-.2-2.2-.2-4.4,0-6.6Z"/>
    <path class="st0" d="M121.3,440.6c.1-.5.3-1,.6-1.5.3-.4.7-.8,1.1-1.1.4-.3.9-.6,1.4-.7,0,0,0,0,0,0,0,0,0,0,0,0-.2.2-.4.3-.6.5l-.5.5c-.3.4-.6.7-.8,1.2-.2.4-.5.8-.7,1.3s-.3.9-.5,1.4c0,0,0,0-.1,0,0,0,0,0,0,0-.1-.5,0-1.1,0-1.6Z"/>
    <path class="st0" d="M118.4,439c.6-1,1.4-1.7,2.4-2.1,0,0,.1,0,0,.1-.8.6-1.4,1.3-1.9,2.2-.5.9-.7,1.9-.4,2.9,0,0,0,0,0,0-.6-.9-.6-2.1-.1-3Z"/>
    <path class="st12" d="M121.8,324.8c.5-1.8-3.9-8-5.6-10s-10.9-5.2-13.8-3.6c-1.2.6-3.3,5-6.2,8.9-4.5,5.9-9.7,12.2-7.8,13.8,4.6,4.1,15.1-2.4,18.5-4.5s6.5-4.8,7.3-4.7c1.1.1,3.4,1.9,4.3,2,1.3,0,2.6-.7,3.2-1.9Z"/>
    <path class="st13" d="M121.8,324.8c.5-1.8-3.9-8-5.6-10s-10.9-5.2-13.8-3.6c-1.2.6-3.3,5-6.2,8.9-4.5,5.9-9.7,12.2-7.8,13.8,4.6,4.1,15.1-2.4,18.5-4.5s6.5-4.8,7.3-4.7c1.1.1,3.4,1.9,4.3,2,1.3,0,2.6-.7,3.2-1.9Z"/>
    <path class="st4" d="M143,318.6c10.7,6.4,15.5,23.5,15.8,26.2.2,2.2,5.4,10.1,4.4,18.6-.6,5.4-10.4,12.7-18.3,12.6-1.5,0-13.9,4.5-24.3,3.8s-18.4-8.1-18.7-8.8-8.9-1.9-9.4-10.6c-.8-14,13.4-37.8,17.5-41,6.8-5.4,25.7-5.1,33-.8Z"/>
    <path class="st12" d="M137.9,326c-.2-1.9,5.4-7.6,7.4-9.5s12.1-3.6,14.9-1.5c1.1.9,2.6,5.8,4.9,10.2,3.6,6.9,8,14.2,5.8,15.7-5.5,3.5-15.3-4.9-18.5-7.8s-6-6-6.9-6.1c-1.2,0-3.8,1.4-4.8,1.3-1.4-.1-2.6-1.1-3-2.4Z"/>
    <path class="st13" d="M137.9,326c-.2-1.9,5.4-7.6,7.4-9.5s12.1-3.6,14.9-1.5c1.1.9,2.6,5.8,4.9,10.2,3.6,6.9,8,14.2,5.8,15.7-5.5,3.5-15.3-4.9-18.5-7.8s-6-6-6.9-6.1c-1.2,0-3.8,1.4-4.8,1.3-1.4-.1-2.6-1.1-3-2.4Z"/>
    <path class="st0" d="M118.3,349.9c6.6,0,9.6,7.1,10.4,8.9s4.9,6,5,10.4-8.2,9.3-17,7.8-13.4-6.5-13.3-11c0-3.6,3.4-6.7,3.8-7.6s5.2-8.6,11.2-8.5Z"/>
    <path class="st0" d="M134.5,362.3c.9,1,1.6,2.1,2.2,3.3.6,1.2,1,2.5,1.3,3.8.3,1.4.1,2.8-.4,4.1-.3.6-.7,1.2-1.3,1.6-.5.4-1.1.7-1.8.9,1.1-.7,1.9-1.7,2.4-2.9.4-1.2.4-2.4.2-3.6-.2-1.3-.6-2.5-1-3.7-.5-1.2-1-2.4-1.5-3.6Z"/>
    <path class="st0" d="M104.3,359.7c-.6.7-1.1,1.4-1.6,2.1-.5.7-.9,1.4-1.3,2.2-.3.7-.5,1.5-.6,2.4,0,.9.2,1.7.5,2.5-.7-.7-1.1-1.5-1.2-2.5,0-1,0-1.9.4-2.8.8-1.7,2.1-3,3.8-3.9Z"/>
    <path class="st8" d="M207.1,453.9c-10.8,0-22.7-.2-34.6-.4-6.2-.1-11-.2-14.1-.2-15.5,0-20-20-24.3-39.3-.6-2.7-1.2-5.4-1.8-8-1.2-5.2-2.2-10.4-3.2-15.4-3-15.6-5.7-29.1-12.6-29.8-9.1-1-17.2,12.6-20.1,33.8l-2-.3c3.1-22.4,12.1-36.7,22.3-35.5,8.3.9,11.1,15,14.3,31.4,1,5,2,10.2,3.2,15.3.6,2.6,1.2,5.4,1.9,8.1,4.3,19.4,8.4,37.7,22.4,37.7s7.9,0,14.1.2c13.5.3,32,.6,47.7.3,25.4-.5,28.4-2.5,28.7-3.1,0-4.2-26.8-9.2-36.9-11s-10.6-2-10.5-3.2,1.4-1.1,3.2-1.1h41.9c13.1,0,17.4-18.9,19.9-30.2.4-2.4,1.1-4.8,1.9-7.1,2.9-6.1,10.4-5.2,10.7-5.2l-.3,2c-.3,0-6.3-.7-8.6,4.1-.8,2.2-1.4,4.4-1.8,6.7-2.7,11.9-7.1,31.8-21.9,31.8h-36.4l2.1.4c24.4,4.6,38.6,8.2,38.6,13.1,0,.5-.2,1.1-.6,1.4-3,2.9-20.6,3.7-43.2,3.7Z"/>
    <rect class="st14" x="91.7" y="390.3" width="7.4" height="12.3" transform="translate(-306 467.9) rotate(-86.6)"/>
    <rect class="st7" x="94.5" y="387.7" width="2.3" height="7.7" transform="translate(-300.9 463.7) rotate(-86.6)"/>
    <rect class="st12" x="89.4" y="402" width="5.6" height="1.4" transform="translate(-315.3 470.7) rotate(-86.6)"/>
    <rect class="st12" x="95" y="402.3" width="5.6" height="1.4" transform="translate(-310.4 476.5) rotate(-86.6)"/>
    <rect class="st14" x="283.1" y="385.5" width="5.4" height="12.3"/>
    <rect class="st7" x="278.7" y="387.8" width="4.3" height="7.7"/>
    <path class="st4" d="M110,360.6s2.6,3,3.6,2.4,3.5-6.6,3.5-6.6c0,0,.6,7.6,2.6,7.8s5.3-2.8,5.3-2.8l-7.9-5.5-7.1,4.7Z"/>
    <path class="st0" d="M110,360.6s2.6,3,3.6,2.4,3.5-6.6,3.5-6.6c0,0,.6,7.6,2.6,7.8s5.3-2.8,5.3-2.8l-7.9-5.5-7.1,4.7Z"/>
    <path class="st0" d="M148.6,351.2c.8-2.4,1-5,.8-7.5-.1-1.3-.4-2.6-.9-3.8-.3-.6-.6-1.2-1-1.8-.4-.6-.8-1.1-1.3-1.6-.3-.2-.5-.5-.8-.6-.3-.2-.6-.4-.9-.5l-.4-.2-.5-.2c-.3-.1-.7-.3-1-.4-1.3-.4-2.7-.5-4-.4-2.6.2-5,1.2-7.1,2.8,2.3-.9,4.7-1.3,7.1-1.3,1.1,0,2.3.2,3.4.6.3,0,.5.2.8.3l.4.2.4.2c.2.1.5.3.7.4.2.2.4.3.6.5.8.8,1.5,1.7,1.9,2.7.5,1.1.9,2.2,1.1,3.3.5,2.4.8,4.9.7,7.3Z"/>
    <path class="st0" d="M99.9,346.1c.1-2.1.4-4.1,1-6.1.5-1.9,1.5-3.5,3-4.8.4-.3.8-.5,1.2-.7.4-.2.8-.3,1.3-.4,1-.1,1.9,0,2.9,0,2.1.4,4.1.9,6.1,1.6-.8-.7-1.7-1.3-2.7-1.8-.5-.2-1-.5-1.5-.7-.5-.2-1-.4-1.6-.5-1.1-.3-2.3-.5-3.4-.4-.6,0-1.2.2-1.8.4-.6.2-1.1.5-1.6.9-.9.7-1.7,1.6-2.3,2.7-.5,1-.8,2.1-1,3.2-.4,2.2-.2,4.4.4,6.5Z"/>
    <path class="st8" d="M132.4,348.1c0-.1.3.1.2.3-.2,3,0,6.5,3,7.6,0,0,0,.2,0,.2-3.7-.6-4-5.3-3.2-8.1Z"/>
    <path class="st8" d="M135.5,345c5.3-.1,5.3,9.6.4,9.7s-4.8-9.6-.4-9.7Z"/>
    <path class="st8" d="M111.7,345.7c0-.1-.3.1-.3.2-.2,3-1,6.4-4,7.1,0,0,0,.2,0,.2,3.7-.1,4.6-4.7,4.3-7.6Z"/>
    <path class="st8" d="M109.1,342.3c-5.3-.9-6.6,8.8-1.7,9.6s6.2-8.9,1.7-9.6Z"/>
    <path class="st8" d="M116.9,356.1c1,.3,7.5-1.8,7-3.8-.6-2.2-9.8-2.7-11-1.3s3,4.7,4,5Z"/>
    <path class="st8" d="M125.1,361.3c-1.1.8-2.2,1.5-3.3,2.1-.6.3-1.2.5-1.8.5-.4,0-.7-.4-.9-.9-.4-1-.7-2.1-.8-3.2-.2-1.1-.3-2.2-.4-3.3l-.3-3-.9,3c-.3.9-.6,1.8-.9,2.7-.3.9-.7,1.8-1.2,2.6-.1.2-.2.4-.4.6-.1.2-.3.4-.5.5-.2,0-.4.1-.6,0-.3,0-.5-.2-.7-.3-.9-.6-1.7-1.3-2.4-2.1.5,1,1.2,1.8,2,2.5.3.2.6.4.9.5.2,0,.4,0,.6,0,.2,0,.4,0,.6-.1.3-.2.5-.4.7-.6.2-.2.3-.4.5-.6.6-.9,1-1.8,1.4-2.7.4-.9.7-1.8,1-2.8h-1.2c0,1,.2,2.2.5,3.3.1.6.3,1.1.4,1.7.2.6.4,1.1.7,1.7.2.3.4.6.6.8.2.2.3.3.5.4.1,0,.3.1.4.1.1,0,.2,0,.4,0,.8,0,1.5-.3,2.2-.8,1.1-.7,2.1-1.6,3-2.5Z"/>
  </g>
  <g id="freepik--Lines--inject-60">
    <path class="st8" d="M74.9,395.9c4-.2,8,0,11.9.8-4,.2-8,0-11.9-.8Z"/>
    <path class="st8" d="M103.7,402.2c1.9.7,3.7,1.4,5.5,2.3,1.8.9,3.5,1.9,5.1,3-3.7-1.3-7.3-3.1-10.6-5.4h0Z"/>
    <path class="st8" d="M81.2,416c2-3.5,4.4-6.6,7.1-9.5-1,1.7-2.1,3.4-3.3,5-1.2,1.6-2.5,3.1-3.9,4.5Z"/>
    <path class="st8" d="M70,384.1c1.6.5,3.1,1,4.6,1.6s3,1.2,4.5,1.8,3,1.3,4.4,2,2.9,1.4,4.3,2.2c-1.6-.5-3.1-1.1-4.6-1.6s-3-1.2-4.5-1.8-3-1.3-4.4-2-2.9-1.4-4.3-2.2Z"/>
    <path class="st8" d="M105.1,392.9c1.4-.7,2.8-1.3,4.3-1.7,1.5-.5,3-.8,4.6-1-2.8,1.4-5.8,2.3-8.9,2.7h0Z"/>
    <path class="st8" d="M90.8,387.9c-.8-1.3-1.6-2.6-2.3-4s-1.4-2.7-2.1-4.1-1.3-2.7-2-4.1-1.2-2.8-1.8-4.2c.8,1.3,1.6,2.6,2.3,4s1.4,2.7,2.1,4.1,1.3,2.7,2,4.1,1.2,2.8,1.8,4.2Z"/>
    <path class="st8" d="M111,419.5c-.9-1-1.7-2.1-2.5-3.2s-1.6-2.2-2.4-3.3-1.5-2.2-2.2-3.4-1.4-2.3-2.1-3.5c.9,1,1.7,2.1,2.5,3.2s1.6,2.2,2.4,3.3,1.5,2.2,2.2,3.4,1.4,2.3,2.1,3.5Z"/>
  </g>
  <g id="freepik--Device--inject-60">
    <polygon class="st10" points="379.9 168.9 297.3 168.9 290.9 112.7 373.5 112.7 379.9 168.9"/>
    <polygon class="st11" points="375.4 165.1 300.9 165.1 295.4 116.5 369.9 116.5 375.4 165.1"/>
    <polygon class="st4" points="329.4 142.1 328.2 143.5 316.5 133.4 317.7 131.9 329.4 142.1"/>
    <polygon class="st4" points="326.4 131.9 328 133.4 319.5 143.5 317.9 142.1 326.4 131.9"/>
    <polygon class="st4" points="354.5 142.1 353.3 143.5 341.6 133.4 342.8 131.9 354.5 142.1"/>
    <polygon class="st4" points="351.5 131.9 353.1 133.4 344.6 143.5 343 142.1 351.5 131.9"/>
    <polygon class="st4" points="315 151.8 314.7 149.8 360.1 149.8 360.4 151.8 315 151.8"/>
    <rect class="st10" x="297.9" y="165.1" width="106.3" height="3.8"/>
    <rect class="st9" x="321" y="165.1" width="92.2" height="3.8"/>
    <polygon class="st8" points="370.2 118.8 369.9 116.5 295.4 116.5 295.7 118.8 370.2 118.8"/>
    <path class="st9" d="M301.7,117.7c0,.3.3.6.6.6.3,0,.5-.2.5-.5,0,0,0,0,0,0,0-.3-.3-.6-.6-.6-.3,0-.5.2-.5.5,0,0,0,0,0,0Z"/>
    <path class="st11" d="M299.5,117.7c0,.3.3.6.6.6.3,0,.5-.2.5-.5,0,0,0,0,0,0,0-.3-.3-.6-.6-.6-.3,0-.5.2-.5.5,0,0,0,0,0,0Z"/>
    <path class="st12" d="M297.4,117.7c0,.3.3.6.6.6.3,0,.5-.2.5-.5,0,0,0,0,0,0,0-.3-.3-.6-.6-.6-.3,0-.5.2-.5.5,0,0,0,0,0,0Z"/>
  </g>
</svg>