<?xml version="1.0" encoding="UTF-8"?>
<svg id="Layer_1" xmlns="http://www.w3.org/2000/svg" version="1.1" viewBox="0 0 500 500">
  <!-- Generator: Adobe Illustrator 29.1.0, SVG Export Plug-In . SVG Version: 2.1.0 Build 142)  -->
  <defs>
    <style>
      .st0 {
        fill: #e0e0e0;
      }

      .st1, .st2, .st3, .st4, .st5, .st6, .st7, .st8, .st9, .st10, .st11, .st12, .st13, .st14, .st15 {
        isolation: isolate;
      }

      .st1, .st13 {
        opacity: .3;
      }

      .st2 {
        opacity: .1;
      }

      .st3, .st15 {
        opacity: .4;
      }

      .st4, .st14 {
        opacity: .5;
      }

      .st5 {
        opacity: .6;
      }

      .st6, .st8 {
        opacity: .2;
      }

      .st16 {
        fill: #e6e6e6;
      }

      .st17, .st7 {
        fill: #75e0da;
      }

      .st18 {
        fill: #ebebeb;
      }

      .st7, .st19, .st10, .st12 {
        opacity: .7;
      }

      .st20 {
        fill: #37474f;
      }

      .st8 {
        fill: #58a8a4;
      }

      .st21 {
        fill: #263238;
      }

      .st22 {
        fill: #ba68c8;
      }

      .st23 {
        fill: #f28f8f;
      }

      .st9 {
        opacity: .9;
      }

      .st9, .st24 {
        fill: #fafafa;
      }

      .st25, .st12, .st13, .st14, .st15 {
        fill: #fff;
      }

      .st26 {
        fill: #f0f0f0;
      }

      .st27 {
        fill: #f5f5f5;
      }

      .st28 {
        fill: #ffa8a7;
      }

      .st10 {
        fill: #58a8a3;
      }

      .st11 {
        opacity: 0;
      }

      .st29 {
        fill: #455a64;
      }

      .st30 {
        fill: #83d0d0;
      }
    </style>
  </defs>
  <g id="freepik--Floor--inject-65">
    <ellipse id="freepik--floor--inject-65" class="st27" cx="250" cy="340.1" rx="235.6" ry="129"/>
  </g>
  <g id="freepik--Shadows--inject-65">
    <path id="freepik--Shadow--inject-65" class="st0" d="M94.1,390.8c5.1,2.9,5.1,7.6,0,10.5s-13.2,3-18.2.2-5.1-7.5,0-10.5,13.2-3,18.2-.2Z"/>
    <path id="freepik--shadow--inject-65" class="st0" d="M228,354.5l-49-28c-.9-.5-2-.5-2.9,0l-.5.3c-.8.5-.8,1.2,0,1.6l16.7,9.3-17.1,9.9-16.5-9.5c-.9-.5-2-.5-2.9,0l-.5.3c-.5.2-.7.7-.6,1.1,0,.3.3.5.6.6l49.8,28.8.5-.6h.3c0,.1,19.7-11.2,19.7-11.2h.1l.3-.2.4-.2h-.1l1.7-2.1h0Z"/>
    <path id="freepik--shadow--inject-651" class="st0" d="M174.4,436.8l24.1-13.9c.5-.2.8-.8.6-1.3-.1-.3-.3-.5-.6-.6l-24.1-13.9c-1-.5-2.2-.5-3.2,0l-24.1,13.9c-.5.2-.8.8-.6,1.3.1.3.3.5.6.6l24.1,13.9c1,.5,2.2.5,3.2,0Z"/>
    <path id="freepik--shadow--inject-652" class="st0" d="M347.7,421.4l24.1-13.9c.5-.2.8-.8.6-1.3-.1-.3-.3-.5-.6-.6l-24.1-13.9c-1-.5-2.2-.5-3.2,0l-24.1,13.9c-.5.2-.8.8-.6,1.3.1.3.3.5.6.6l24.1,13.9c1,.5,2.2.5,3.2,0Z"/>
    <path id="freepik--shadow--inject-653" class="st0" d="M243.5,435.3l-28.3-16.4c-.4-.1-.6-.5-.5-.9,0-.2.2-.4.5-.5l67.8-39.2c.7-.4,1.6-.4,2.3,0l28.4,16.4c.4.1.6.5.5.9,0,.2-.2.4-.5.5l-67.9,39.2c-.7.4-1.6.4-2.3,0h0Z"/>
    <path id="freepik--shadow--inject-654" class="st0" d="M379.4,376.4l-59.9-34.6c-4.8-2.8-4.8-7.2,0-10l68-39.2c4.8-2.8,12.5-2.8,17.3,0l59.9,34.6c4.8,2.8,4.8,7.2,0,10l-68,39.2c-4.8,2.8-12.5,2.8-17.3,0Z"/>
    <path id="freepik--shadow--inject-655" class="st0" d="M56.9,382.5l-22.2-12.8c-.7-.2-1.1-1-.8-1.7,0-.4.4-.7.8-.8l235.3-135.9c1.4-.7,3-.7,4.3,0l22.2,12.8c.7.2,1.1,1,.8,1.7-.1.4-.4.7-.8.8L61.2,382.5c-1.4.7-3,.7-4.3,0Z"/>
    <path id="freepik--shadow--inject-656" class="st0" d="M145.2,362c5.9,3.4,6,8.9.1,12.3s-15.4,3.6-21.4.2-6-8.9,0-12.3c5.9-3.5,15.4-3.6,21.4-.2Z"/>
  </g>
  <g id="freepik--Cones--inject-65">
    <g id="freepik--Cone--inject-65">
      <path class="st17" d="M150,418.6l21.4-12.4c.4-.2.9-.4,1.4-.3.5,0,1,.1,1.4.3l21.4,12.4c.3.1.6.5.6.8v1.5c0,.4-.3.7-.6.8l-21.4,12.4c-.4.2-.9.3-1.4.3s-1-.1-1.4-.3l-21.4-12.3c-.3-.1-.6-.5-.6-.8v-1.6c0-.4.3-.7.6-.8Z"/>
      <path class="st2" d="M149.4,419.6v1.5c0,.4.3.7.6.8l21.4,12.4c.4.2.9.4,1.4.3v-28.5c-.5,0-1,.1-1.4.3l-21.4,12.3c-.3.1-.6.5-.6.8h0Z"/>
      <path class="st1" d="M172.8,406v28.6c.5,0,1-.1,1.4-.3l21.4-12.4c.3-.1.6-.5.6-.8v-1.6c0-.4-.3-.7-.6-.8l-21.4-12.4c-.4-.2-.9-.3-1.4-.3h0Z"/>
      <path class="st17" d="M174.2,432.7l21.4-12.4c.5-.2.7-.7.5-1.1,0-.3-.3-.4-.5-.5l-21.4-12.4c-.9-.5-2-.5-2.9,0l-21.4,12.4c-.5.2-.7.7-.5,1.1,0,.3.3.4.5.5l21.4,12.4c.9.5,2,.5,2.9,0Z"/>
      <path class="st14" d="M174.2,432.7l21.4-12.4c.5-.2.7-.7.5-1.1,0-.3-.3-.4-.5-.5l-21.4-12.4c-.9-.5-2-.5-2.9,0l-21.4,12.4c-.5.2-.7.7-.5,1.1,0,.3.3.4.5.5l21.4,12.4c.9.5,2,.5,2.9,0Z"/>
      <path class="st11" d="M172.8,406.3c.5,0,1,.1,1.4.4l21.4,12.4c.5.2.7.7.5,1.1,0,.3-.3.4-.5.5l-21.4,12.4c-.4.2-.9.4-1.4.4v-27.1h0Z"/>
      <path class="st17" d="M159.6,417.9h0l9.5-28.4h0c.2-.5.5-.9,1-1.1,1.7-.9,3.7-.9,5.4,0,.4.2.8.6,1,1.1h0l9.5,28.5h0c.9,2.5-.4,5.1-3.7,7.1-5.3,3-13.8,3-19.1,0-3.3-1.9-4.5-4.6-3.7-7.1h.1Z"/>
      <path class="st24" d="M166.4,397.6h0l1.4-4c-.2.7,0,1.5.6,2,.2.3.5.5.8.6,2.3,1.2,5,1.2,7.4,0,.3-.2.6-.4.8-.6.6-.5.8-1.3.6-2l1.4,4h0c.2.7.1,1.4-.3,2-.4.6-.9,1-1.5,1.4-.5.3-1.1.5-1.6.7-2,.6-4,.6-6,0-.6-.2-1.1-.4-1.6-.7-.6-.3-1.1-.8-1.5-1.4s-.5-1.4-.3-2h-.2Z"/>
      <path class="st24" d="M160.9,413.9h0l1.3-4c-.2.6-.2,1.3,0,2,.2.8.6,1.5,1.1,2s1.2,1.1,1.9,1.5c4.8,2.4,10.4,2.4,15.2,0,.7-.4,1.3-.9,1.9-1.5.6-.6.9-1.3,1.1-2,.2-.7.1-1.4,0-2l1.3,4h0c.2.6.3,1.3.1,2-.3,1.5-1.4,3-3.5,4.2-4.7,2.7-12.4,2.7-17.1,0-2-1.2-3.2-2.7-3.5-4.2,0-.7,0-1.3.2-2Z"/>
      <path class="st24" d="M163.6,405.8h0l1.4-4c-.2.7-.2,1.4.1,2,.5.9,1.1,1.5,2,2h0c3.5,1.8,7.7,1.8,11.2,0h0c.9-.5,1.5-1.1,2-2,.3-.6.3-1.3.1-2l1.3,4h0c.2.6.2,1.4,0,2-.3.8-.8,1.5-1.5,2-.3.3-.7.5-1.1.8-1.1.6-2.3,1-3.6,1.3-2,.4-4,.4-6,0-1.3-.2-2.5-.7-3.6-1.3-.4-.2-.7-.5-1.1-.8-.7-.5-1.2-1.2-1.5-2-.2-.6-.2-1.3,0-2h.3Z"/>
      <path class="st2" d="M172.8,387.7c.9,0,1.9.2,2.7.6.4.2.8.6,1,1.1h0l9.5,28.5h0c.9,2.5-.4,5.1-3.7,7.1-2.9,1.6-6.2,2.3-9.5,2.3h0c4.3-.7,7.2-4.7,6.6-9l-3.9-28.3-2.7-2.3h0Z"/>
      <path class="st17" d="M175.5,391.5c1.5-.9,1.5-2.3,0-3.1-1.7-.9-3.7-.9-5.4,0-1.5.9-1.5,2.3,0,3.1,1.7.9,3.7.9,5.4,0Z"/>
      <path class="st14" d="M175.5,391.5c1.5-.9,1.5-2.3,0-3.1-1.7-.9-3.7-.9-5.4,0-1.5.9-1.5,2.3,0,3.1,1.7.9,3.7.9,5.4,0Z"/>
    </g>
    <g id="freepik--Cone--inject-651">
      <path class="st17" d="M323.7,404.1l21.4-12.4c.4-.2.9-.4,1.4-.3.5,0,1,.1,1.4.3l21.4,12.4c.3.1.6.5.6.8v1.5c0,.4-.3.7-.6.8l-21.4,12.4c-.4.2-.9.3-1.4.3s-1-.1-1.4-.3l-21.4-12.3c-.3-.1-.6-.5-.6-.8v-1.6c0-.4.3-.7.6-.8Z"/>
      <path class="st2" d="M323.1,405.1v1.5c0,.4.3.7.6.8l21.4,12.4c.4.2.9.4,1.4.3v-28.5c-.5,0-1,.1-1.4.3l-21.4,12.3c-.3.1-.6.5-.6.8h0Z"/>
      <path class="st1" d="M346.5,391.5v28.6c.5,0,1-.1,1.4-.3l21.4-12.4c.3-.1.6-.5.6-.8v-1.6c0-.4-.3-.7-.6-.8l-21.4-12.4c-.4-.2-.9-.3-1.4-.3h0Z"/>
      <path class="st17" d="M348,418.2l21.4-12.4c.5-.2.7-.7.5-1.1,0-.3-.3-.4-.5-.5l-21.4-12.4c-.9-.5-2-.5-2.9,0l-21.4,12.4c-.5.2-.7.7-.5,1.1,0,.3.3.4.5.5l21.4,12.4c.9.5,2,.5,2.9,0Z"/>
      <path class="st14" d="M348,418.2l21.4-12.4c.5-.2.7-.7.5-1.1,0-.3-.3-.4-.5-.5l-21.4-12.4c-.9-.5-2-.5-2.9,0l-21.4,12.4c-.5.2-.7.7-.5,1.1,0,.3.3.4.5.5l21.4,12.4c.9.5,2,.5,2.9,0Z"/>
      <path class="st11" d="M346.5,391.8c.5,0,1,.1,1.4.4l21.4,12.4c.5.2.7.7.5,1.1,0,.3-.3.4-.5.5l-21.4,12.4c-.4.2-.9.4-1.4.4v-27.1h0Z"/>
      <path class="st17" d="M333.3,403.4h0l9.5-28.4h0c.2-.5.5-.9,1-1.1,1.7-.9,3.7-.9,5.4,0,.4.2.8.6,1,1.1h0l9.5,28.5h0c.9,2.5-.4,5.1-3.7,7.1-5.3,3-13.8,3-19.1,0-3.3-1.9-4.5-4.6-3.7-7.1h.1Z"/>
      <path class="st24" d="M340.1,383.1h0l1.4-4c-.2.7,0,1.5.6,2,.2.3.5.5.8.6,2.3,1.2,5,1.2,7.4,0,.3-.2.6-.4.8-.6.6-.5.8-1.3.6-2l1.4,4h0c.2.7.1,1.4-.3,2s-.9,1-1.5,1.4c-.5.3-1.1.5-1.6.7-2,.6-4,.6-6,0-.6-.2-1.1-.4-1.6-.7-.6-.3-1.1-.8-1.5-1.4s-.5-1.4-.3-2h-.2Z"/>
      <path class="st24" d="M334.6,399.4h0l1.3-4c-.2.6-.2,1.3,0,2,.2.8.6,1.5,1.1,2s1.2,1.1,1.9,1.5c4.8,2.4,10.4,2.4,15.2,0,.7-.4,1.3-.9,1.9-1.5s.9-1.3,1.1-2,.1-1.4,0-2l1.3,4h0c.2.6.3,1.3.1,2-.3,1.5-1.4,3-3.5,4.2-4.7,2.7-12.4,2.7-17.1,0-2-1.2-3.2-2.7-3.5-4.2,0-.7,0-1.3.2-2Z"/>
      <path class="st24" d="M337.4,391.3h0l1.4-4c-.2.7-.2,1.4.1,2,.5.9,1.1,1.5,2,2h0c3.5,1.8,7.7,1.8,11.2,0h0c.9-.5,1.5-1.1,2-2,.3-.6.3-1.3.1-2l1.3,4h0c.2.6.2,1.4,0,2-.3.8-.8,1.5-1.5,2-.3.3-.7.5-1.1.8-1.1.6-2.3,1-3.6,1.3-2,.4-4,.4-6,0-1.3-.2-2.5-.7-3.6-1.3-.4-.2-.7-.5-1.1-.8-.7-.5-1.2-1.2-1.5-2-.2-.6-.2-1.3,0-2h.3Z"/>
      <path class="st2" d="M346.5,373.2c.9,0,1.9.2,2.7.6.4.2.8.6,1,1.1h0l9.5,28.5h0c.9,2.5-.4,5.1-3.7,7.1-2.9,1.6-6.2,2.3-9.5,2.3h0c4.3-.7,7.2-4.7,6.6-9l-3.9-28.3-2.7-2.3h0Z"/>
      <path class="st17" d="M349.2,377c1.5-.9,1.5-2.3,0-3.1-1.7-.9-3.7-.9-5.4,0-1.5.9-1.5,2.3,0,3.1,1.7.9,3.7.9,5.4,0Z"/>
      <path class="st14" d="M349.2,377c1.5-.9,1.5-2.3,0-3.1-1.7-.9-3.7-.9-5.4,0-1.5.9-1.5,2.3,0,3.1,1.7.9,3.7.9,5.4,0Z"/>
    </g>
  </g>
  <g id="freepik--Plant--inject-65">
    <g id="freepik--Plants--inject-65">
      <path class="st17" d="M51.3,358.1s2.5-12-.4-22.8-8.9-19-16.1-22-15.3,1.9-9,9.1,18.8,16.5,19.6,36l5.9-.3h0Z"/>
      <path class="st8" d="M51.3,357.7s2.5-12-.4-22.8-8.9-19-16.1-22-15.3,1.9-9,9.1,18.8,16.5,19.6,36l5.9-.3h0Z"/>
      <path class="st25" d="M50.2,354.4h0c.2,0,.4-.2.4-.5-1.5-21.7-13.7-34.5-20-38.2-.2-.1-.4,0-.6.1h0c-.1.2,0,.5.1.6,6.1,3.7,18.1,16.2,19.6,37.6,0,.2.2.4.4.4h0Z"/>
      <path class="st17" d="M15.6,339.1c-.8,2.4.9,4.1,2.6,5.5,1.2,1,2.6,2.2,3,3.8.7,3.2-3.1,6.2-2.3,9.4.5,1.3,1.4,2.4,2.7,3,1,.5,2.1.9,3.2,1.4.5.2,1,.3,1.6.4,1.6.2,3.1.8,4.3,1.9,1.8,1.9,1.5,4.9,2.2,7.4h0c1.1,4.2,5.4,6.7,9.6,5.5.9-.2,1.7-.7,2.5-1.2l8.9-6.3c3.5-4.7,2.6-13.2-3-16-1.2-.6-2.6-.9-3.5-1.9-1-1.3-1.6-2.9-1.5-4.5,0-1.6,0-3.2-.7-4.8-1.1-2-3.1-3.4-5.3-3.7-2.6-.5-5.2.6-7.7-.3s-4.8-2.4-7.3-3c-2.8-.7-6-.3-8.1,1.9-.4.4-.8,1-1,1.6h-.2Z"/>
      <path class="st25" d="M41.7,353.3s0-.1,0-.1c-6.6-9.4-17-13.8-20.5-14.6-.2,0-.4,0-.4.3s0,.4.3.4c3.3.7,13,4.9,19.4,13.5-5.3-1.8-11.2-1.3-16.1,1.4-.2.1-.2.3-.1.5,0,0,.2.2.3.2h.2c5.1-2.8,11.1-3.1,16.5-1,3.9,5.5,5.8,12.2,5.5,18.9,0,.2,0,.3.3.4h0c.2,0,.4-.1.4-.4.3-6.9-1.7-13.7-5.6-19.4h-.1Z"/>
    </g>
  </g>
  <g id="freepik--Window--inject-65">
    <g id="freepik--window--inject-65">
      <g id="freepik--window--inject-651">
        <path class="st18" d="M295.5,54.8l-5.1-3L50.1,190.5v181c0,1.4.5,2.7,1.6,3.5h0l5.1,3h0c1.3.6,2.7.4,3.9-.4l229.3-132.4c3.2-2.1,5.3-5.6,5.5-9.5V54.8Z"/>
        <path class="st22" d="M55.3,374.4c0,3.5,2.5,4.9,5.5,3.2l229.3-132.4c3.2-2.1,5.3-5.6,5.5-9.5V54.7L55.3,193.5v181h0Z"/>
        <path class="st24" d="M55.3,374.4c0,3.5,2.5,4.9,5.5,3.2l229.3-132.4c3.2-2.1,5.3-5.6,5.5-9.5V54.7L55.3,193.5v181h0Z"/>
        <path class="st0" d="M58.3,378.8c-.6,0-1.2-.1-1.7-.4-1.3-.9-2-2.4-1.8-4v-181.2l.2-.2L296,53.9v181.8c-.2,4-2.3,7.7-5.7,9.9L61,378c-.8.5-1.7.8-2.7.8ZM55.8,193.8v180.7c0,1.2.4,2.4,1.3,3.1,1.1.5,2.4.3,3.4-.4l229.3-132.4c3.1-2,5-5.3,5.2-9V55.7L55.8,193.8Z"/>
        <polygon class="st17" points="55.3 193.5 55.3 214.9 295.5 76.2 295.5 54.8 55.3 193.5"/>
        <polygon class="st17" points="55.3 214.9 50.1 211.9 50.1 190.5 55.3 193.5 55.3 214.9"/>
        <polygon class="st6" points="55.3 214.9 50.1 211.9 50.1 190.5 55.3 193.5 55.3 214.9"/>
        <path class="st24" d="M245,92.4v5.1c0,1,.7,1.5,1.6,1l33.5-19.4v-8.9l-33.4,19.3c-1,.6-1.6,1.7-1.7,2.8h0Z"/>
        <path class="st29" d="M288.7,65.2c.9-.5,1.6,0,1.6,1v5.1c0,1.2-.7,2.2-1.6,2.8l-8.6,5v-8.9l8.6-5Z"/>
        <path class="st24" d="M288.1,72.2l-1-.3c0-.4.1-.8.1-1.2,0-.8-.3-1.5-.9-2-.4-.2-1-.2-1.4,0-1.2,1-1.9,2.4-1.9,4s.3,1.5.9,2c.2,0,.4.2.6.2.3,0,.6,0,.8-.2.7-.5,1.3-1.2,1.5-2.1l1,.3h.1c.2,0,.3,0,.3-.2,0-.2,0-.4-.2-.4h.1ZM285,74c-.2,0-.5.2-.7,0-.4-.4-.6-.9-.5-1.4,0-1.3.6-2.6,1.6-3.4.1,0,.3,0,.4,0h.3c.4.4.6.9.5,1.4,0,1.3-.6,2.6-1.6,3.4h0Z"/>
        <path class="st21" d="M288.8,36.8c-1-.6-2.4-.5-3.9.3L55.6,169.6c-3.2,2.1-5.3,5.6-5.5,9.4v11.5l5.1,3L295.5,54.8v-11.4c.1-1.4-.5-2.7-1.6-3.5-.9-.5-4.2-2.4-5.1-3h0Z"/>
        <path class="st20" d="M55.3,182c.2-3.8,2.2-7.4,5.5-9.5L290,40.2c3-1.7,5.5-.3,5.5,3.2v11.5L55.3,193.5v-11.5Z"/>
        <path class="st29" d="M294,39.8c-1-.6-2.4-.6-3.9.3L60.7,172.5c-1.6,1-2.9,2.4-3.9,4.1l-5.1-3c.9-1.7,2.3-3.1,3.9-4.1L284.9,37.2c1.5-.9,2.9-1,3.9-.3s4.2,2.4,5.1,3h.1Z"/>
        <path class="st17" d="M264.7,60.7c-1.5,1-2.5,2.6-2.6,4.4,0,1.6,1.1,2.3,2.6,1.5,1.5-1,2.5-2.6,2.6-4.4,0-1.6-1.1-2.3-2.6-1.5Z"/>
        <path class="st17" d="M273.7,55.5c-1.5,1-2.5,2.7-2.6,4.5,0,1.6,1.1,2.3,2.6,1.5,1.5-1,2.5-2.7,2.6-4.5,0-1.6-1.1-2.3-2.6-1.5Z"/>
        <path class="st17" d="M282.7,50.3c-1.5,1-2.5,2.6-2.6,4.4,0,1.6,1.1,2.3,2.6,1.5,1.5-1,2.5-2.6,2.6-4.4,0-1.6-1.1-2.3-2.6-1.5Z"/>
      </g>
      <path class="st17" d="M72.7,304.6c-.2,0-.3,0-.5-.1-.3-.2-.5-.5-.5-.8v-58.6c0-.3.2-.7.5-.8l70.3-40.6c.3-.2.7-.2,1,0s.5.5.5.8v58.6c0,.3-.2.7-.5.8l-70.4,40.7c-.2,0-.3.1-.5.1h0ZM73.7,245.5v56.5l68.4-39.5v-56.5s-68.4,39.5-68.4,39.5Z"/>
      <path class="st17" d="M73.5,291.1l-1.7-1,21.3-35.9c.3-.4.8-.6,1.3-.3l13.7,7.8,14.5-29c0-.3.4-.4.7-.5.3,0,.6,0,.8.2l19.5,17.2-1.3,1.4-18.6-16.4-14.4,28.8c-.3.5-.8.7-1.3.4l-13.8-7.8-20.8,35.1h.1Z"/>
      <path class="st17" d="M104.5,247.2c-.5,0-1-.1-1.5-.4-1.1-.7-1.7-2-1.6-3.3,0-3,1.7-5.8,4.3-7.4,1.4-1.1,3.5-.9,4.6.6.5.7.8,1.6.7,2.4,0,3-1.7,5.8-4.3,7.4-.7.4-1.4.7-2.2.7ZM107.8,237.5c-.4,0-.8.2-1.2.4-1.9,1.3-3.1,3.3-3.2,5.6,0,.6,0,1.2.6,1.6.6.2,1.2,0,1.6-.3,1.9-1.3,3.1-3.3,3.2-5.6,0-.6,0-1.2-.6-1.5,0,0-.3-.1-.5-.1h0Z"/>
      <path class="st17" d="M151.5,201.8l59.2-34.2c1.4-.8,2.4-.1,2.4,1.4v4.9c0,1.7-1,3.3-2.4,4.2l-59.2,34.2c-1.4.8-2.4.1-2.4-1.4v-5c0-1.7,1-3.3,2.4-4.2h0Z"/>
      <path class="st0" d="M150.1,219.3l43.8-25.3c.5-.3,1,0,1,.6v3c0,.7-.4,1.3-1,1.7l-43.8,25.3c-.5.3-1,0-1-.6v-3c0-.7.4-1.3,1-1.7Z"/>
      <path class="st0" d="M149.1,232.7c-.2,0-.4-.1-.5-.3-.2-.3,0-.6.2-.8l86.9-50.2c.3-.2.6,0,.8.2s0,.6-.2.8h0l-86.9,50.2h-.3Z"/>
      <path class="st0" d="M149.1,238c-.3,0-.6-.3-.6-.6s.1-.4.3-.5l86.9-50.1c.3-.2.6,0,.8.2h0c.2.3,0,.6-.2.8l-86.9,50.2h-.3Z"/>
      <path class="st0" d="M149.1,243.2c-.2,0-.4-.1-.5-.3-.2-.3,0-.6.2-.8l86.9-50.2c.3-.2.6,0,.8.2s0,.6-.2.8l-86.9,50.2h-.3Z"/>
      <path class="st0" d="M149.1,248.5c-.2,0-.4-.1-.5-.3-.2-.3,0-.6.2-.8l86.9-50.2c.3-.2.6,0,.8.2s0,.6-.2.8h0l-86.9,50.2h-.3Z"/>
      <path class="st0" d="M149.1,253.8c-.2,0-.4-.1-.5-.3-.2-.3,0-.6.2-.8l86.9-50.2c.3-.2.6,0,.8.2s0,.6-.2.8l-86.9,50.2h-.3Z"/>
      <path class="st0" d="M149.1,259.1c-.2,0-.4-.1-.5-.3-.2-.3,0-.6.2-.8l41.2-23.8c.3-.2.6,0,.8.2s0,.6-.2.8l-41.2,23.7s-.2,0-.3.1h0Z"/>
      <g id="freepik--Text--inject-65">
        <path class="st24" d="M79.2,347.3l49.8-28.8c1.2-.8,2-2.1,2.1-3.6v-26.8c0-1.3-.9-1.9-2.1-1.2l-49.8,28.8c-1.2.8-2,2.1-2.1,3.6v26.8c0,1.3.9,1.9,2.1,1.2Z"/>
        <path class="st0" d="M78.3,348.1c-.3,0-.5,0-.8-.2-.6-.4-.9-1.1-.8-1.8v-26.8c0-1.6.9-3.1,2.3-4l49.8-28.8c.8-.6,1.8-.5,2.4.3.3.4.4.9.4,1.3v26.8c0,1.6-.9,3.1-2.3,4l-49.8,28.8c-.4.2-.8.3-1.2.4h0ZM129.9,287.2c-.2,0-.5,0-.7.2l-49.8,28.8c-1.1.7-1.8,1.9-1.8,3.2v26.8c0,.4,0,.7.4.9.3.1.7,0,1-.1l49.8-28.8c1.1-.7,1.8-1.9,1.8-3.2v-26.8c0-.4,0-.7-.4-.9h-.3Z"/>
        <path class="st17" d="M82.1,317.6l9.6-5.6c.6-.3,1,0,1,.6v11.1c0,.7-.4,1.4-1,1.8l-9.6,5.6c-.6.3-1,0-1-.6v-11.1c0-.7.4-1.4,1-1.8Z"/>
        <path class="st17" d="M97.1,308.9l29.6-17.1c.2-.1.4,0,.4.2v1.5c0,.3-.2.6-.4.7l-29.6,17.1c-.2.1-.4,0-.4-.2v-1.5c0-.3.2-.6.4-.7Z"/>
        <path class="st17" d="M97.1,314.5l29.6-17.1c.2-.1.4,0,.4.2v1.4c0,.3-.2.6-.4.7l-29.6,17.2c-.2.1-.4,0-.4-.2v-1.5c0-.3.2-.6.4-.7Z"/>
        <path class="st17" d="M97.1,320l29.6-17.1c.2-.1.4,0,.4.2v1.5c0,.3-.2.6-.4.7l-29.6,17.2c-.2.1-.4,0-.4-.2v-1.5c0-.3.2-.6.4-.8h0Z"/>
        <path class="st17" d="M81.5,334.6l45.3-26.1c.2-.1.4,0,.4.2v1.5c0,.3-.2.6-.4.7l-45.3,26.2c-.2.1-.4,0-.4-.2v-1.5c0-.3.2-.6.4-.7h0Z"/>
        <path class="st17" d="M81.5,340.1l45.3-26.1c.2-.1.4,0,.4.2v1.5c0,.3-.2.6-.4.7l-45.3,26.1c-.2.1-.4,0-.4-.2v-1.5c0-.3.2-.6.4-.7Z"/>
        <path class="st17" d="M75.3,313.8c0,0-.2,0-.3-.2,0-.2,0-.4,0-.5l1-.6c.2,0,.4,0,.5.1,0,.2,0,.4,0,.5l-1,.6h-.2Z"/>
        <path class="st17" d="M78.5,312c0,0-.3,0-.3-.2s0-.4,0-.5h0l2.2-1.3c.2,0,.4,0,.5.1h0c0,.2,0,.4,0,.5l-2.2,1.3s0,0-.2.1Z"/>
        <path class="st17" d="M82.9,309.4c-.2,0-.4-.2-.4-.4s0-.2.2-.3l2.2-1.3c.2,0,.4,0,.5.1,0,.2,0,.4,0,.5h0l-2.2,1.3h-.2Z"/>
        <path class="st17" d="M87.3,306.9c0,0-.2,0-.3-.2,0-.2,0-.4,0-.5l2.2-1.3c.2,0,.4,0,.5.1,0,.2,0,.4,0,.5l-2.2,1.3h-.2Z"/>
        <path class="st17" d="M91.7,304.4c0,0-.2,0-.3-.2,0-.2,0-.4,0-.5l2.2-1.3c.2,0,.4,0,.5.1,0,.2,0,.4,0,.5l-2.2,1.3h-.2Z"/>
        <path class="st17" d="M96,301.8c0,0-.2,0-.3-.2,0-.2,0-.4,0-.5l2.2-1.3c.2,0,.4,0,.5.1,0,.2,0,.4,0,.5h0l-2.2,1.3h-.2Z"/>
        <path class="st17" d="M100.6,299.2c0,0-.3,0-.3-.2s0-.4,0-.5h0l2.2-1.3c.2,0,.4,0,.5.1,0,.2,0,.4,0,.5l-2.2,1.3h-.2Z"/>
        <path class="st17" d="M105.1,296.6c0,0-.2,0-.3-.2,0-.2,0-.4,0-.5l2.2-1.3c.2,0,.4,0,.5.1,0,.2,0,.4,0,.5l-2.2,1.3h-.2Z"/>
        <path class="st17" d="M109.7,294c0,0-.3,0-.3-.2s0-.4,0-.5l2.2-1.3c.2,0,.4,0,.5.1,0,.2,0,.4,0,.5l-2.2,1.3h-.2Z"/>
        <path class="st17" d="M114.2,291.3c-.2,0-.4-.2-.4-.4s0-.2.2-.3l2.2-1.3c.2,0,.4,0,.5.1,0,.2,0,.4,0,.5l-2.2,1.3h-.2Z"/>
        <path class="st17" d="M118.8,288.7c0,0-.2,0-.3-.2,0-.2,0-.4,0-.5l2.2-1.3c.2,0,.4,0,.5.1,0,.2,0,.4,0,.5h0l-2.1,1.3h-.3Z"/>
        <path class="st17" d="M123.3,286.1c0,0-.3,0-.3-.2s0-.4,0-.5h0l2.2-1.3c.2,0,.4,0,.5.1,0,.2,0,.4,0,.5l-2.2,1.2h-.2v.2Z"/>
        <path class="st17" d="M127.9,283.5c0,0-.2,0-.3-.2,0-.2,0-.4,0-.5l2.2-1.3c.2,0,.4,0,.5.1,0,.2,0,.4-.1.5h0l-2.2,1.3h-.2Z"/>
        <path class="st17" d="M132.4,280.8c-.1,0-.3,0-.3-.2s0-.4.1-.5h0l2.2-1.3c.2,0,.4,0,.5.1,0,.2,0,.4-.1.5l-2.2,1.3h-.2Z"/>
        <path class="st17" d="M137,278.2c-.2,0-.4-.2-.4-.4s0-.2.2-.3l2.2-1.3c.2,0,.4,0,.5.1,0,.2,0,.4-.1.5h0l-2.2,1.3h-.2Z"/>
        <path class="st17" d="M141.5,275.6c-.1,0-.3,0-.3-.2s0-.4.1-.5l2.2-1.3c.2,0,.4,0,.5.2,0,.2,0,.3-.1.4l-2.2,1.3h-.2Z"/>
        <path class="st17" d="M146,273c-.2,0-.4-.2-.4-.4s0-.2.2-.3l2.2-1.3c.2,0,.4,0,.5.1,0,.2,0,.4-.1.5l-2.2,1.3h-.2Z"/>
        <path class="st17" d="M150.6,270.3c-.2,0-.4-.2-.3-.4,0-.1,0-.2.2-.3l2.2-1.3c.2,0,.4,0,.5.2,0,.2,0,.3-.1.4l-2.2,1.3h-.3Z"/>
        <path class="st17" d="M155.1,267.7c-.1,0-.2,0-.3-.2s0-.4.1-.5h0l2.2-1.3c.2,0,.4,0,.5.1,0,.2,0,.4-.1.5l-2.2,1.3h-.2Z"/>
        <path class="st17" d="M159.7,265.1c-.1,0-.2,0-.3-.2,0-.2,0-.4.1-.5l2.2-1.3c.2,0,.4,0,.5.1,0,.2,0,.4-.1.5h0l-2.2,1.2h-.2v.2Z"/>
        <path class="st17" d="M164.2,262.5c-.1,0-.3,0-.3-.2s0-.4.1-.5l2.2-1.3c.2,0,.4,0,.5.2,0,.2,0,.3-.1.4l-2.2,1.3h-.2Z"/>
        <path class="st17" d="M168.8,259.8c-.2,0-.4-.2-.4-.4s0-.2.2-.3l2.2-1.3c.2,0,.4,0,.5.1.1.2,0,.4-.1.5h0l-2.1,1.3h-.3Z"/>
        <path class="st17" d="M173.2,257.3c-.1,0-.3,0-.3-.2s0-.4.1-.5h0l2.2-1.3c.2,0,.4,0,.5.1,0,.2,0,.4-.1.5l-2.2,1.3h-.2Z"/>
        <path class="st17" d="M177.5,254.8c-.1,0-.2,0-.3-.2,0-.2,0-.4.1-.5l2.2-1.3c.2,0,.4,0,.5.1,0,.2,0,.4-.1.5l-2.2,1.3h-.2Z"/>
        <path class="st17" d="M181.9,252.2c-.1,0-.2,0-.3-.2,0-.2,0-.4.1-.5l1-.6c.2,0,.4,0,.5.1,0,.2,0,.4-.1.5h0l-1,.6h-.2Z"/>
        <path class="st22" d="M73.7,353.6c-.2,0-.4-.2-.4-.4v-1.2c0-.2.2-.4.4-.4s.4.2.4.4h0v1.2c0,.2,0,.4-.3.4h0Z"/>
        <path class="st17" d="M73.7,350.1c-.2,0-.4-.2-.4-.4v-2.3c0-.2.2-.4.4-.4s.4.2.4.4h0v2.3c0,.2-.2.4-.4.4ZM73.7,345.5c-.2,0-.4-.2-.4-.4v-2.3c0-.2.2-.4.4-.4s.4.2.4.4v2.3c0,.2-.2.4-.4.4ZM73.7,340.9c-.2,0-.4-.2-.4-.4v-2.3c0-.2.2-.4.4-.4s.4.2.4.4h0v2.3c0,.2-.2.4-.4.4h0ZM73.7,336.3c-.2,0-.4-.2-.4-.4v-2.3c0-.2.2-.4.4-.4s.4.2.4.4h0v2.3c0,.2-.2.4-.4.4h0ZM73.7,331.6c-.2,0-.4-.2-.4-.4v-2.3c0-.2.2-.4.4-.4s.4.2.4.4h0v2.3c0,.2-.2.3-.4.3h0ZM73.7,327c-.2,0-.4-.2-.4-.4v-2.3c0-.2.2-.4.4-.4s.4.2.4.4v2.3c0,.2-.2.3-.4.3h0ZM73.7,322.4c-.2,0-.4-.2-.4-.4v-2.3c0-.2.2-.4.4-.4s.4.2.4.4v2.3c0,.2-.2.4-.4.4h0Z"/>
        <path class="st17" d="M73.7,317.8c-.2,0-.4-.2-.4-.4v-1.2c0-.2.2-.4.4-.4s.4.2.4.4v1.2c0,.2-.2.4-.4.4Z"/>
        <path class="st17" d="M182,292.9c-.1,0-.2,0-.3-.2,0-.2,0-.4.1-.5l1-.6c.2,0,.4,0,.5.1,0,.2,0,.4-.1.5l-1.1.6h-.1,0Z"/>
        <path class="st17" d="M78.5,352.7c0,0-.2,0-.3-.2,0-.2,0-.4,0-.5l2.2-1.3c.2,0,.4,0,.5.1,0,.2,0,.4,0,.5h0l-2.2,1.3h-.2Z"/>
        <path class="st17" d="M82.9,350.1c0,0-.3,0-.3-.2s0-.4,0-.5h0l2.2-1.3c.2,0,.4,0,.5.1,0,.2,0,.4,0,.5l-2.2,1.3h-.2Z"/>
        <path class="st17" d="M87.3,347.6c0,0-.2,0-.3-.2,0-.2,0-.4,0-.5l2.2-1.3c.2-.1.4,0,.5,0,0,.2,0,.4,0,.5h0l-2.2,1.3h-.2v.2Z"/>
        <path class="st17" d="M91.7,345.1c0,0-.2,0-.3-.2,0-.2,0-.4,0-.5l2.2-1.3c.2,0,.4,0,.5.1,0,.2,0,.4,0,.5l-2.2,1.3h-.2Z"/>
        <path class="st17" d="M96.1,342.5c0,0-.3,0-.3-.2s0-.4,0-.5l2.2-1.3c.2,0,.4,0,.5.1,0,.2,0,.4,0,.5h0l-2.2,1.3h-.2Z"/>
        <path class="st17" d="M100.6,339.9c0,0-.2,0-.3-.2,0-.2,0-.4,0-.5l2.2-1.3c.2,0,.4,0,.5.2,0,.2,0,.3,0,.4l-2.2,1.3h-.2Z"/>
        <path class="st17" d="M105.2,337.3c0,0-.2,0-.3-.2,0-.2,0-.4,0-.5l2.2-1.3c.2,0,.4,0,.5.1,0,.2,0,.4,0,.5h0l-2.2,1.3h-.2Z"/>
        <path class="st17" d="M109.7,334.6c0,0-.3,0-.3-.2s0-.4,0-.5h0l2.2-1.3c.2-.1.4,0,.5.1h0c0,.2,0,.4,0,.5l-2.2,1.3h-.2Z"/>
        <path class="st17" d="M114.2,332c0,0-.2,0-.3-.2,0-.2,0-.4,0-.5l2.2-1.3c.2,0,.4,0,.5.2,0,.2,0,.3,0,.4l-2.2,1.3h-.2Z"/>
        <path class="st17" d="M118.8,329.4c0,0-.3,0-.3-.2,0-.2,0-.4,0-.5h0l2.2-1.3c.2,0,.4,0,.5.1h0c0,.2,0,.4,0,.5l-2.2,1.3h-.2Z"/>
        <path class="st17" d="M123.3,326.8c0,0-.2,0-.3-.2,0-.2,0-.4,0-.5l2.2-1.3c.2-.1.4,0,.5.1h0c0,.2,0,.4,0,.5l-2.2,1.3h-.2Z"/>
        <path class="st17" d="M127.9,324.1c0,0-.2,0-.3-.2,0-.2,0-.4,0-.5l2.2-1.3c.2,0,.4,0,.5.1,0,.2,0,.4-.1.5l-2.2,1.3h-.2,0Z"/>
        <path class="st17" d="M132.4,321.5c-.1,0-.3,0-.3-.2s0-.4.1-.5h0l2.2-1.3c.2,0,.4,0,.5.1,0,.2,0,.4-.1.5l-2.2,1.3h-.2Z"/>
        <path class="st17" d="M137,318.9c-.1,0-.2,0-.3-.2,0-.2,0-.4.1-.5l2.2-1.2c.2,0,.4,0,.5.1,0,.2,0,.4-.1.5l-2.2,1.3h-.2Z"/>
        <path class="st17" d="M141.5,316.3c-.1,0-.3,0-.3-.2s0-.4.1-.5h0l2.2-1.3c.2,0,.4,0,.5.1,0,.2,0,.4-.1.5l-2.2,1.3h-.2Z"/>
        <path class="st17" d="M146.1,313.6c-.1,0-.2,0-.3-.2,0-.2,0-.4.1-.5l2.2-1.3c.2-.1.4,0,.5.1h0c0,.2,0,.4-.1.5l-2.2,1.3h-.2Z"/>
        <path class="st17" d="M150.6,311c-.1,0-.3,0-.3-.2s0-.4.1-.5l2.2-1.3c.2,0,.4,0,.5.1.1.2,0,.4,0,.5h0l-2.2,1.3h-.3Z"/>
        <path class="st17" d="M155.1,308.4c-.2,0-.4-.2-.4-.4s0-.2.2-.3l2.2-1.3c.2,0,.4,0,.5.1,0,.2,0,.4-.1.5l-2.2,1.3h-.2Z"/>
        <path class="st17" d="M159.7,305.8c-.2,0-.4-.2-.3-.4,0-.1,0-.2.2-.3l2.2-1.3c.2,0,.4,0,.5.1,0,.2,0,.4-.1.5h0l-2.2,1.3h-.3Z"/>
        <path class="st17" d="M164.2,303.1c-.1,0-.3,0-.3-.2s0-.4.1-.5h0l2.2-1.3c.2,0,.4,0,.5.1,0,.2,0,.4-.1.5l-2.2,1.3h-.2Z"/>
        <path class="st17" d="M168.8,300.5c-.1,0-.2,0-.3-.2,0-.2,0-.4.1-.5l2.2-1.3c.2-.1.4,0,.5.1s0,.4-.1.5h0l-2.2,1.3h-.2Z"/>
        <path class="st17" d="M173.2,298c-.1,0-.3,0-.3-.2s0-.4.1-.5l2.2-1.3c.2,0,.4,0,.5.1.1.2,0,.4-.1.5h0l-2.2,1.3h-.2Z"/>
        <path class="st17" d="M177.6,295.4c-.1,0-.3,0-.3-.2s0-.4.1-.5h0l2.2-1.3c.2,0,.4,0,.5.2,0,.2,0,.3-.1.4l-2.2,1.3h-.2Z"/>
        <path class="st22" d="M75.3,354.5c-.2,0-.4-.2-.4-.4s0-.2.2-.3l1-.6c.2-.1.4-.1.5,0,0,.2,0,.4,0,.5h0l-1,.6h-.2v.2Z"/>
        <path class="st17" d="M184.6,253.7c-.2,0-.4-.2-.4-.4h0v-1.2c0-.2.2-.4.4-.4s.4.2.4.4h0v1.2c0,.2-.2.4-.4.4h0Z"/>
        <path class="st17" d="M184.6,286c-.2,0-.4-.2-.4-.4v-2.3c0-.2.2-.4.4-.4s.4.2.4.4h0v2.3c0,.2-.2.4-.4.4ZM184.6,281.4c-.2,0-.4-.2-.4-.4v-2.3c0-.2.2-.4.4-.4s.4.2.4.4h0v2.3c0,.2-.1.4-.3.4h0ZM184.6,276.8c-.2,0-.4-.2-.4-.4v-2.3c0-.2.2-.4.4-.4s.4.2.4.4h0v2.3c0,.2-.1.4-.3.4h0ZM184.6,272.2c-.2,0-.4-.2-.4-.4v-2.3c0-.2.2-.4.4-.4s.4.2.4.4h0v2.3c0,.2-.1.4-.3.4h0ZM184.6,267.6c-.2,0-.4-.2-.4-.4v-2.3c0-.2.2-.4.4-.4s.4.2.4.4v2.3c0,.2-.1.4-.3.4h0ZM184.6,262.9c-.2,0-.4-.2-.4-.4v-2.3c0-.2.2-.4.4-.4s.4.2.4.4v2.3c0,.2,0,.4-.3.4h0ZM184.6,258.3c-.2,0-.4-.2-.4-.4v-2.3c0-.2.2-.4.4-.4s.4.2.4.4h0v2.3c0,.2-.2.4-.4.4h0Z"/>
        <path class="st17" d="M184.6,289.5c-.2,0-.4-.2-.4-.4v-1.2c0-.2.2-.4.4-.4s.4.2.4.4v1.2c0,.2-.2.3-.4.3h0Z"/>
        <path class="st17" d="M183,253.5h-.2c-.1,0-.2-.2-.2-.3v-3.7c0-.1,0-.3.2-.3l3.2-1.9h.4c.1,0,.2.2.2.3v3.7c0,.1,0,.2-.2.3l-3.2,1.9h-.2ZM183.4,249.6v2.9l2.5-1.4v-2.9l-2.5,1.4Z"/>
        <path class="st17" d="M183,294.1h-.2c-.1,0-.2-.2-.2-.3v-3.7c0-.1,0-.2.2-.3l3.2-1.9h.4c.1,0,.2.2.2.3v3.7c0,.1,0,.3-.2.3l-3.2,1.9h-.2ZM183.4,290.3v2.9l2.5-1.4v-2.9l-2.5,1.4Z"/>
        <path class="st17" d="M72.1,317.5h-.2c0,0-.2-.2-.2-.3v-3.7c0-.1,0-.2.2-.3l3.2-1.9c.2,0,.4,0,.5.1v3.9c0,.1,0,.3-.2.3l-3.2,1.9h-.2,0ZM72.4,313.7v2.9l2.5-1.4v-2.9l-2.5,1.4Z"/>
        <path class="st17" d="M72.1,358.2h-.2c0,0-.2-.2-.2-.3v-3.7c0-.1,0-.2.2-.3l3.2-1.9h.4c0,0,.2.2.2.3v3.7c0,.1,0,.3-.2.3l-3.2,1.9h-.2ZM72.4,354.4v2.9l2.5-1.4v-2.9l-2.5,1.4Z"/>
        <path class="st17" d="M186.2,272c0,1.2-.6,2.4-1.6,3.1-.9.5-1.6,0-1.6-1.2s.6-2.4,1.6-3.1c.9-.5,1.6,0,1.6,1.2Z"/>
        <path class="st17" d="M132.9,280c0,1.2-.6,2.4-1.6,3.1-.9.5-1.6,0-1.6-1.2s.6-2.4,1.6-3.1c.9-.5,1.6,0,1.6,1.2Z"/>
        <path class="st17" d="M132.9,320.7c0,1.2-.6,2.4-1.6,3.1-.9.5-1.6,0-1.6-1.2s.6-2.4,1.6-3.1c.9-.5,1.6,0,1.6,1.2Z"/>
        <path class="st17" d="M75.3,336.1c0,1.2-.6,2.4-1.6,3.1-.9.5-1.6,0-1.6-1.2s.6-2.4,1.6-3.1c.9-.5,1.6,0,1.6,1.2Z"/>
        <path class="st20" d="M135.3,286.1c-.1,0-.2,0-.3-.1,0-.1,0-.3.1-.4l45.6-26.3c.1,0,.3,0,.4.1,0,.1,0,.3-.1.4l-45.6,26.3h-.2.1Z"/>
        <path class="st20" d="M135.3,288.9c-.1,0-.2,0-.3-.1,0-.1,0-.3.1-.4h0l45.6-26.4c.1,0,.3,0,.4.1,0,.1,0,.3-.1.4h0l-45.6,26.3h-.2.1Z"/>
        <path class="st20" d="M135.3,291.7c-.1,0-.2,0-.3-.1,0-.1,0-.3.1-.4h0l45.6-26.3c.1,0,.3,0,.4.1h0c0,.1,0,.3-.1.4h0l-45.6,26.3h-.2.1Z"/>
        <path class="st20" d="M135.3,294.5c-.1,0-.2,0-.3-.1,0-.1,0-.3.1-.4l45.6-26.3c.1,0,.3,0,.4.1,0,.1,0,.3-.1.4l-45.6,26.3h-.2.1Z"/>
        <path class="st20" d="M135.3,297.2c-.1,0-.2,0-.3-.1,0-.1,0-.3.1-.4h0l45.6-26.3c.1,0,.3,0,.4.1,0,.1,0,.3-.1.4h0l-45.6,26.3h-.2.1Z"/>
        <path class="st20" d="M135.3,300c-.1,0-.2,0-.3-.1,0-.1,0-.3.1-.4h0l21.6-12.5c.1,0,.3,0,.4.1,0,.1,0,.3-.1.4h0l-21.6,12.5h-.2.1Z"/>
        <path class="st20" d="M135.3,306.4c-.1,0-.2,0-.3-.1,0-.1,0-.3.1-.4h0l45.6-26.3c.1,0,.3,0,.4.1,0,.1,0,.3-.1.4l-45.6,26.3h-.2.1Z"/>
        <path class="st20" d="M135.3,309.2c-.1,0-.2,0-.3-.1,0-.1,0-.3.1-.4h0l45.6-26.3c.1,0,.3,0,.4.1h0c0,.1,0,.3-.1.4h0l-45.6,26.3h-.2.1Z"/>
        <path class="st20" d="M135.3,312c-.1,0-.2,0-.3-.1,0-.1,0-.3.1-.4h0l45.6-26.3c.1-.1.3,0,.4,0,.1.1,0,.3,0,.4h0l-45.6,26.3h-.2Z"/>
        <path class="st20" d="M135.3,314.8c-.1,0-.2,0-.3-.1,0-.1,0-.3.1-.4h0l21.6-12.5c.1-.1.3,0,.4,0,.1.1,0,.3,0,.4h0l-21.6,12.5h-.2Z"/>
      </g>
      <path class="st0" d="M204.2,281.8h-.1s-.1-.1-.1-.2v-42s0-.2.1-.2l33.8-19.5h.2s.1.1.1.2v42s0,.2-.1.2l-33.8,19.5h-.1,0ZM204.4,239.7v41.5l33.3-19.2v-41.5l-33.3,19.2Z"/>
      <path class="st17" d="M206.8,262.3h-.1s-.1-.1-.1-.2v-21.1s0-.2.1-.2l28.6-16.5h.2s.1.1.1.2v21s0,.2-.1.2l-28.6,16.5h-.1,0ZM207,241.2v20.4l28.1-16.2v-20.4l-28.1,16.2h0Z"/>
      <path class="st17" d="M207.1,264.9l7.2-4.2c.2,0,.3,0,.3.2v.9c0,.2-.1.4-.3.5l-7.2,4.2c-.1,0-.3,0-.3-.2v-.9c0-.2.1-.4.3-.5Z"/>
      <path class="st0" d="M207.1,267.9l27.2-15.6c.1,0,.3,0,.3.2v.9c0,.2-.1.4-.3.5l-27.2,15.6c-.1,0-.3,0-.3-.2v-.9c0-.2.1-.4.3-.5h0Z"/>
      <path class="st0" d="M207.1,273.9l27.2-15.6c.1,0,.3,0,.3.2v.9c0,.2-.1.4-.3.5l-27.2,15.6c-.1,0-.3,0-.3-.2v-.9c0-.2.1-.4.3-.5Z"/>
      <path class="st0" d="M207.1,270.9l27.2-15.6c.1,0,.3,0,.3.2v.9c0,.2-.1.4-.3.5l-27.2,15.6c-.1,0-.3,0-.3-.2v-.9c0-.2.1-.4.3-.5Z"/>
      <path class="st17" d="M235.4,245.8h0l-9.9-1.6c-.1,0-.2-.1-.2-.3s.1-.2.3-.2h0l9.9,1.6c.1,0,.2.2.2.3,0,0,0,.2-.2.2h-.1Z"/>
      <path class="st17" d="M216.7,242.8h0l-9.9-1.6c-.1,0-.2-.1-.2-.3s.1-.2.2-.2h0l10,1.6c.1,0,.2.1.2.3s-.1.2-.2.2h-.1Z"/>
      <path class="st17" d="M206.8,262.3h-.1s-.1-.2,0-.3h0l9.9-13h.3v.3h0l-9.9,12.9s-.1.1-.2.1h0Z"/>
      <path class="st17" d="M225.4,237.8h-.1v-.3l10-13.1c0-.1.2-.1.3,0,.1,0,.1.2,0,.3l-10,13.1s-.1.1-.2,0Z"/>
      <path class="st17" d="M221.1,241.8c-.7.5-1.1,1.4-1.1,2.2s.5,1.3,1.1,1c.7-.5,1-1.4,1-2.2s-.4-1.3-1-1Z"/>
      <path class="st17" d="M223.3,239.1l-.8.5v-.4c0-.3-.1-.4-.3-.3l-2.3,1.3c-.2.2-.3.4-.3.7v.4l-.8.5c-.4.3-.7.8-.6,1.4v4.1c0,.6.3.8.6.6l4.5-2.6c.4-.3.7-.8.6-1.4v-4.1c0-.6-.3-.8-.6-.6h0ZM221.1,245.8c-.9.5-1.6-.2-1.6-1.5s.6-2.5,1.6-3.3c.9-.5,1.6.2,1.6,1.5s-.6,2.5-1.6,3.3Z"/>
      <path class="st0" d="M245.8,257.8h-.1s-.1-.1-.1-.2v-42s0-.2.1-.2l33.8-19.5h.2s.1.1.1.2v42s0,.2-.1.2l-33.8,19.5h-.1ZM246,215.7v41.4l33.3-19.2v-41.4l-33.3,19.2h0Z"/>
      <path class="st17" d="M248.4,238.3h-.1s-.1-.1-.1-.2v-21.1s0-.2.1-.2l28.6-16.5h.2s.1.1.1.2v21s0,.2-.1.2l-28.6,16.5h-.1ZM248.6,217.2v20.4l28.1-16.2v-20.4l-28.1,16.2Z"/>
      <path class="st17" d="M248.6,240.9l7.2-4.2h.2v1c0,.2-.1.4-.3.5l-7.2,4.2c-.1,0-.3,0-.3-.2v-.9c0-.2.1-.4.3-.5h.1Z"/>
      <path class="st0" d="M248.6,243.9l27.2-15.6h.2v1c0,.2-.1.4-.3.5l-27.2,15.6c-.1,0-.3,0-.3-.2v-.9c0-.2.1-.4.3-.5h0Z"/>
      <path class="st0" d="M248.6,249.9l27.2-15.6c.1,0,.3,0,.3.2v.9c0,.2-.1.4-.3.5l-27.2,15.6c-.1,0-.3,0-.3-.2v-.9c0-.2.1-.4.3-.5h0Z"/>
      <path class="st0" d="M248.6,246.9l27.2-15.6c.1,0,.3,0,.3.2v.9c0,.2-.1.4-.3.5l-27.2,15.6c-.1,0-.3,0-.3-.2v-.9c0-.2.1-.4.3-.5h0Z"/>
      <path class="st17" d="M262.6,214.8c-2.3,1.5-3.7,4-3.9,6.8,0,2.5,1.7,3.5,3.9,2.2,2.3-1.5,3.8-4,3.9-6.8,0-2.5-1.7-3.5-3.9-2.2ZM264.6,218.4l-2.9,3.5c-.3.3-.5.3-.5-.2v-3.3c0-.4.3-.8.8-.8h2.3c.5.1.6.4.3.7h0Z"/>
      <path class="st30" d="M236.2,126.9c-.5-.2-1,0-1.4.2l-156.8,90.4c-1.3.8-2.1,2.2-2.2,3.8v9.1c0,.5.2,1.1.6,1.4-.4-.2-3.6-2.1-4-2.3-.4-.3-.7-.8-.6-1.4v-9.1c0-1.5.9-2.9,2.2-3.8l156.8-90.4c.5-.3,1-.4,1.6,0,.3.2,3.2,1.8,3.9,2.3h-.1Z"/>
      <path class="st17" d="M77.9,217.4l156.8-90.4c1.2-.7,2.2,0,2.2,1.2v9.1c0,1.5-.9,2.9-2.2,3.8l-156.8,90.4c-1.2.7-2.2.1-2.2-1.2v-9.1c0-1.5.9-2.9,2.2-3.8Z"/>
      <path class="st6" d="M76.4,219l-4.1-2.4c-.4.6-.6,1.4-.6,2.1v9.1c0,.5.2,1.1.6,1.4.4.2,3.7,2.1,4,2.3-.4-.3-.6-.8-.6-1.4v-9.1c0-.8.3-1.5.7-2.1h0Z"/>
      <path class="st15" d="M236.1,126.8c-.8-.5-3.6-2.1-4-2.3-.5-.2-1.1-.2-1.6,0l-156.7,90.4c-.6.4-1.2.9-1.5,1.6l4.1,2.3c.4-.7.9-1.2,1.5-1.6l156.8-90.4c.4-.3,1-.3,1.4-.2h0Z"/>
      <path class="st24" d="M228.8,137.5c-.1,1.5-.9,2.8-2.2,3.6l-52.5,30.3c-1.2.7-2.2.2-2.2-1.1.1-1.5.9-2.8,2.2-3.6l52.5-30.3c1.2-.7,2.2-.2,2.2,1.1Z"/>
    </g>
  </g>
  <g id="freepik--Crane--inject-65">
    <g id="freepik--Vehicle--inject-65">
      <polygon class="st21" points="397.7 134.6 379.3 169.1 373.4 165.4 391.7 131.2 397.7 134.6"/>
      <polygon class="st29" points="362.2 179.2 379.3 169.1 373.4 165.4 356.3 175.8 362.2 179.2"/>
      <polygon class="st21" points="356.3 179.1 362.2 182.5 362.2 179.2 356.3 175.8 356.3 179.1"/>
      <polygon class="st20" points="400.6 136.1 397.7 134.6 379.3 169.1 362.2 179.2 362.2 182.5 382 170.7 400.6 136.1"/>
      <g id="freepik--Image--inject-65">
        <path class="st7" d="M367.3,94.8c-.5-.2-1,0-1.3.2l-84,48.5c-1.2.8-1.9,2-2,3.4v75.7c0,.5.2.9.5,1.2-.3-.2-3.3-1.9-3.6-2.1-.4-.3-.6-.8-.5-1.2v-75.8c0-1.4.8-2.6,2-3.4l83.9-48.5c.4-.3.9-.3,1.4,0,.4.2,3,1.6,3.7,2.1h-.1Z"/>
        <path class="st7" d="M282.1,143.4l83.9-48.4c1.1-.6,2,0,2,1.1v75.8c0,1.4-.8,2.6-2,3.4l-84,48.5c-1.1.6-2,.1-2-1.1v-75.8c0-1.4.8-2.7,2-3.4h.1Z"/>
        <path class="st6" d="M280.7,144.9l-3.7-2.1c-.4.6-.5,1.2-.6,1.9v75.8c0,.5.2,1,.5,1.2.4.2,3.3,1.9,3.6,2.1-.4-.3-.6-.8-.5-1.2v-75.8c0-.7.2-1.3.6-1.9h.1Z"/>
        <path class="st14" d="M367.3,94.6c-.7-.4-3.2-1.9-3.6-2.1-.5-.2-1-.2-1.4,0l-83.9,48.5c-.6.4-1.1.9-1.4,1.4l3.7,2.1c.3-.6.8-1.1,1.4-1.5l83.9-48.4c.4-.3.9-.4,1.3-.2h0Z"/>
        <path class="st9" d="M335.1,168.6l6.6,9.3-30-27.3-31.6,53.5v18.5c0,1.2.9,1.7,2,1.1l84-48.5c1.2-.8,1.9-2,2-3.4v-10.2l-22.4-16.1-10.6,22.9v.2Z"/>
        <path class="st9" d="M338.7,123.7c3.9-2.3,7.1-.4,7.1,4.1-.3,5-2.9,9.5-7.1,12.3-3.9,2.3-7.1.4-7.1-4.1.3-5,2.9-9.6,7.1-12.3h0Z"/>
        <path class="st17" d="M366.9,95.6c.2,0,.2.4.2.5v75.8c0,1.1-.6,2-1.5,2.6l-83.9,48.5c-.1,0-.3.1-.4.1-.2,0-.2-.4-.2-.5v-75.8c0-1.1.6-2,1.5-2.6l83.9-48.5c.1,0,.3,0,.4,0M366.9,94.7c-.3,0-.6,0-.9.3l-84,48.5c-1.2.7-1.9,2-2,3.4v75.8c0,.9.4,1.4,1.1,1.4s.6-.1.9-.3l84-48.5c1.2-.8,1.9-2,2-3.4v-75.8c0-.9-.4-1.4-1.1-1.4h0Z"/>
      </g>
      <path class="st22" d="M448.4,147.2c2.9-2.7,9.7,2.3,9.7,5.2l-26.9,75.3-16-7.7,33.2-72.8h0Z"/>
      <path class="st10" d="M448.4,147.2c2.9-2.7,9.7,2.3,9.7,5.2l-26.9,75.3-16-7.7,33.2-72.8h0Z"/>
      <path class="st17" d="M450.2,119.9c2.9-2.4,5.8-3,8.1-2.1h0l14.2,6.8-.3.9c1.1,1.4,1.7,3.1,2,4.8,1.3,7.3-2.3,17-8,21.7-1.3,1.2-2.9,2-4.5,2.4l-.3.9-14.2-6.8h0c-2.4-.8-4.2-3.1-4.8-6.9-1.2-7.3,2.3-17,8-21.7h-.2Z"/>
      <path class="st6" d="M450.4,119.7c2.9-2.4,5.8-3,8.1-2.1h0l14.2,6.8-.3.9c1.1,1.4,1.7,3.1,2,4.8,1.3,7.3-2.3,17-8,21.7-1.3,1.2-2.9,2-4.5,2.4l-.3.9-14.2-6.8h0c-2.4-.8-4.2-3.1-4.8-6.9-1.2-7.3,2.3-17,8-21.7h-.2Z"/>
      <path class="st17" d="M464.7,126.8c-5.7,4.7-9.2,14.5-8,21.7s6.9,9.3,12.5,4.6,9.2-14.5,8-21.7-6.9-9.3-12.5-4.6Z"/>
      <path class="st17" d="M462.1,144.1c.1.8.4,1.5.8,2.1,1.1,1.6,3.2,1.8,5.2,0,2.8-2.7,4.3-6.5,3.8-10.4-.4-2.3-1.6-3.5-3.2-3.4-1,0-2,.5-2.8,1.2-2.9,2.6-4.3,6.5-3.8,10.4h0Z"/>
      <path class="st1" d="M462.1,144.1c.1.8.4,1.5.8,2.1,1.1,1.6,3.2,1.8,5.2,0,2.8-2.7,4.3-6.5,3.8-10.4-.4-2.3-1.6-3.5-3.2-3.4-1,0-2,.5-2.8,1.2-2.9,2.6-4.3,6.5-3.8,10.4h0Z"/>
      <path class="st29" d="M462.1,144.1c.1.8.4,1.5.8,2.1,1,0,2-.5,2.8-1.2,2.8-2.7,4.3-6.5,3.8-10.4-.1-.8-.4-1.5-.8-2.1-1,0-2,.5-2.8,1.2-2.9,2.6-4.3,6.5-3.8,10.4Z"/>
      <path class="st22" d="M404.3,130.5l46.7,10.2c2.6-.5,4.3-3.1,3.8-5.7-.5-2.5-2.8-4.1-5.3-3.8h-.2l-46.3-8c-2,.4-3.3,2.3-2.9,4.2s2.3,3.3,4.2,2.9h0v.2Z"/>
      <path class="st10" d="M404.3,130.5l46.7,10.2c2.6-.5,4.3-3.1,3.8-5.7-.5-2.5-2.8-4.1-5.3-3.8h-.2l-46.3-8c-2,.4-3.3,2.3-2.9,4.2s2.3,3.3,4.2,2.9h0v.2Z"/>
      <path class="st17" d="M392.6,114.2c2.1-1.7,4.1-2.2,5.7-1.5h0l10,5.2-.2.6c.7,1,1.2,2.2,1.4,3.4.9,5.2-1.6,12.1-5.7,15.4-.9.8-2,1.4-3.2,1.7l-.2.7-10-5.1h0c-1.7-.5-3-2.2-3.5-4.9-.9-5.2,1.6-12.1,5.7-15.5h0Z"/>
      <path class="st6" d="M392.4,114.2c2.1-1.7,4.1-2.2,5.7-1.5h0l10,5.2-.2.6c.7,1,1.2,2.2,1.4,3.4.9,5.2-1.6,12.1-5.7,15.4-.9.8-2,1.4-3.2,1.7l-.2.7-10-5.1h0c-1.7-.5-3-2.2-3.5-4.9-.9-5.2,1.6-12.1,5.7-15.5h0Z"/>
      <path class="st17" d="M402.9,119.4c-4,3.4-6.6,10.3-5.7,15.4s4.9,6.6,8.9,3.3,6.6-10.3,5.7-15.4-4.9-6.6-8.9-3.3Z"/>
      <path class="st17" d="M401,131.7c0,.5.3,1.1.6,1.5.8,1.2,2.2,1.2,3.7,0,2-1.9,3-4.6,2.7-7.4-.3-1.6-1.2-2.5-2.3-2.4-.7,0-1.5.3-2,.8-2,1.9-3,4.7-2.7,7.4h0Z"/>
      <path class="st1" d="M401,131.7c0,.5.3,1.1.6,1.5.8,1.2,2.2,1.2,3.7,0,2-1.9,3-4.6,2.7-7.4-.3-1.6-1.2-2.5-2.3-2.4-.7,0-1.5.3-2,.8-2,1.9-3,4.7-2.7,7.4h0Z"/>
      <path class="st29" d="M401,131.7c0,.5.3,1.1.6,1.5.7,0,1.5-.4,2-.9,2-1.9,3-4.6,2.7-7.4,0-.5-.3-1.1-.6-1.5-.7,0-1.5.3-2,.8-2,1.9-3,4.6-2.7,7.4h0Z"/>
      <polygon class="st21" points="398.2 121.1 392.3 117.6 372.8 92.5 377.6 91.5 398.2 121.1"/>
      <polygon class="st20" points="398.2 121.1 400.6 118.5 378.5 86.9 356.8 98.8 356.8 103 377.2 92.1 398.2 121.1"/>
      <polygon class="st21" points="356.8 103 350 99.1 350 94.8 356.8 98.8 356.8 103"/>
      <polygon class="st29" points="350 94.8 371.6 82.9 378.5 86.9 356.8 98.8 350 94.8"/>
      <path d="M416.1,323.2v12.7l-27.2-15.7c0-3.3-.6-6.5-1.5-9.7h0c-.5-1.6-1-3.2-1.6-4.8l30.3,17.5h0Z"/>
      <path class="st17" d="M449.1,230.8v64.5c-4.8,3.4-8.9,9.1-11.6,15.5h0l-4.2,2.4v-18l-59.5-31.9v-62.5l12.2-7c.2-.1.5-.2.7-.3.5-.2,1.1-.1,1.6.1l59.3,34.2h.2l.3.3.2.2c.1.2.3.4.4.6,0,.1.1.3.1.4v.4h0v1h.3Z"/>
      <path class="st13" d="M374,200.6l59.5,34.3,12.2-7c.7-.5,1.6-.6,2.3-.2h0l-59.4-34.3c-.8-.4-1.7-.3-2.4.2l-12.2,7Z"/>
      <path class="st20" d="M424.8,316c.4-.4.7-.9.8-1.5.1-.8.3-1.6.5-2.5.1-.4,0-.8,0-1.2h-.2c-.2-.3-.3-.8,0-1.4l1.5-4.5c.2-.7.7-1.2,1-1.1s.8-.4,1.1-1c.4-.8.8-1.5,1.2-2.3.3-.5.4-1.1.3-1.6s0-1.1.4-1.5l2.7-3.6c.3-.5.7-.7.9-.5l.5.3c.3,0,.5-.3.7-.5.5-.5,1.1-1,1.6-1.5.5-.4.7-.9.8-1.5,0-.6.4-1.1.8-1.3l3.1-1.8c.2-.1.4-.2.6,0l1.5.9c.4,0,.8-.2,1.1-.2.5-.1.9-.5,1.1-1,.1-.5.6-.8,1-.8l2.7.5h.2l10.8,6.2c.3.2.4.5.3.8l3.3,1.9s.2.1.2.2l1.5,2.7c.2.5.2,1-.1,1.5-.3.5-.4,1.1-.2,1.6.2.6.3,1.3.4,1.9l1.1.6c.2.2.3.5.3.8v4.1c0,.6-.2,1.1-.6,1.5s-.7,1-.8,1.5c-.1.8-.3,1.6-.5,2.5-.1.4,0,.8,0,1.2h.2c.2.3.2.8,0,1.4l-1.5,4.5c-.2.7-.6,1.2-.9,1.1s-.8.4-1.1,1.1c-.4.8-.8,1.6-1.2,2.3-.3.5-.4,1-.3,1.6.2.3,0,1-.4,1.5l-2.7,3.6c-.3.5-.7.7-.9.6l-.4-.2c-.3,0-.6.2-.8.5-.5.6-1.1,1.1-1.7,1.6-.4.4-.7.9-.8,1.5,0,.5-.4,1-.8,1.3l-3.1,1.8c-.2.1-.4.2-.6,0l-1.4-.8c-.4.1-.9.2-1.3.3-.5.1-.9.5-1.1.9-.1.4-.5.7-1,.7l-2.7-.5h-.2l-10.8-6.2c-.3-.2-.4-.5-.3-.8l-3.3-1.9s-.2-.1-.2-.2l-1.5-2.7c-.2-.5-.2-1,.1-1.4.3-.5.4-1.1.2-1.6-.2-.7-.3-1.3-.4-2h0l-1.1-.6c-.2-.2-.3-.5-.3-.8v-4.1c0-.5.2-1.1.6-1.4v-.5Z"/>
      <path class="st29" d="M435,327.9v-4.1c0-.6.2-1.1.6-1.5s.7-.9.8-1.5c.1-.8.3-1.6.5-2.5.1-.7,0-1.3-.3-1.3s-.4-.6-.1-1.3l1.5-4.5c.2-.7.7-1.2,1-1.1s.8-.4,1.1-1.1.8-1.5,1.2-2.3c.3-.5.5-1.1.3-1.6-.1-.5,0-1.1.4-1.5l2.7-3.6c.4-.5.9-.7,1-.4s.7.2,1.1-.3,1.1-1,1.6-1.5c.5-.4.7-.9.8-1.5,0-.6.4-1.1.8-1.3l3.1-1.8c.5-.3.8-.1.8.4s.2.6.5.6h.3c.5-.2,1.1-.3,1.6-.4s.9-.5,1.1-1c.1-.5.5-.8,1-.8l2.7.5c.4,0,.6.5.4,1-.2.4,0,1,.3,1.3.4.3.8.6,1.2.9.3.3.8.2,1-.1h0c.3-.4.7-.4,1,0l1.5,2.7c.2.5.2,1-.1,1.5-.3.5-.4,1.1-.2,1.6.2.6.3,1.3.4,1.9.1.5.4.9.8.7s.6.1.6.8v4.1c0,.6-.2,1.1-.6,1.5s-.7,1-.8,1.5c-.1.8-.3,1.6-.4,2.5-.1.7,0,1.3.2,1.3s.3.6.1,1.3l-1.5,4.5c-.2.7-.6,1.2-.9,1.1s-.8.4-1.1,1.1c-.4.8-.8,1.6-1.2,2.3-.3.5-.4,1-.3,1.6.2.3,0,1-.4,1.5l-2.7,3.6c-.4.5-.9.8-1,.5s-.6-.1-1.1.3c-.5.6-1.1,1.1-1.7,1.6-.4.4-.7.9-.8,1.5,0,.5-.4,1-.8,1.3l-3.1,1.8c-.5.3-.8.1-.8-.3s-.4-.6-.8-.5c-.5.2-1.1.3-1.7.4-.5.1-.9.5-1.1.9-.1.4-.5.7-1,.7l-2.7-.5c-.4-.1-.6-.5-.5-.9h0c.2-.5,0-1-.3-1.3-.4-.3-.8-.6-1.2-.9-.3-.2-.7-.2-1,.1h0c-.1.3-.4.4-.7.2-.1,0-.2-.1-.2-.2l-1.5-2.7c-.2-.5-.2-1,.1-1.4.3-.5.4-1.1.2-1.6-.2-.6-.3-1.3-.4-2s-.4-.9-.8-.7-.7-.1-.7-.7l.2-.4Z"/>
      <path class="st21" d="M444.6,287.6l9.3,5.3h0c.1,0,.2.3.2.4,0,.3.2.6.5.6h.8c.4-.2.8-.3,1.1-.4.3,0,.5-.2.7-.4l-10.8-6.2c-.2.2-.4.3-.7.4-.3,0-.7.2-1.1.2h0Z"/>
      <path d="M438.1,290.9l10.9,6.2c.2-.3.3-.6.3-1s0-.5.2-.7l-10.8-6.2c-.1.2-.2.5-.2.7,0,.3-.1.7-.3.9h-.1Z"/>
      <path class="st21" d="M435.3,293.4l10.3,5.9h.1c0,.2.2.3.4.2.3,0,.5-.2.7-.4.5-.5,1.1-1,1.6-1.5s.4-.4.5-.6l-10.9-6.2c-.1.2-.3.4-.5.6-.6.5-1.1,1-1.6,1.5s-.4.4-.7.5h.1Z"/>
      <path class="st21" d="M427.8,304l10.8,6.2s.2-.1.4-.1c.3,0,.8-.4,1.1-1s.8-1.5,1.2-2.3c.3-.5.4-1.1.3-1.6v-.4l-10.8-6.2v.4c.1.6,0,1.2-.3,1.6-.4.7-.8,1.5-1.2,2.3s-.8,1.1-1.1,1.1-.3,0-.4.1h0Z"/>
      <path d="M438.6,310.2l-10.8-6.2s.2-.1.4-.1h.2l10.8,6.1h-.2c-.1,0-.3,0-.4.2Z"/>
      <path d="M430.8,298.9v-.4l10.8,6.2v1l-10.8-6.2v-.6Z"/>
      <path class="st21" d="M424.4,316.6l10.9,6.2c0-.2.2-.4.4-.5.4-.4.7-.9.8-1.5.1-.8.3-1.6.5-2.5.1-.4,0-.8-.1-1.2h-.2c0-.1-10.5-6.1-10.5-6.1.2.4.2.8,0,1.2-.2.8-.3,1.6-.5,2.5,0,.6-.3,1.1-.8,1.5-.2.1-.3.3-.4.5h0Z"/>
      <path d="M424.8,316c.2-.1.4-.3.5-.6l10.8,6.2c0,.2-.3.4-.5.6-.2.1-.3.3-.4.5l-10.9-6.2c0-.2.2-.4.4-.5h.1Z"/>
      <path class="st21" d="M425.5,327.2l10.8,6.2c0-.2.1-.4.2-.5.2-.2.2-.5.3-.8v-.8c-.2-.7-.3-1.3-.4-2h0c-.1-.5-.4-.8-.8-.6h-.4l-9.7-5.6h0c.1.7.3,1.4.4,2,.1.5,0,1.1-.2,1.6-.1.2-.2.3-.3.5h.1Z"/>
      <path d="M436.6,332.9c-.1.2-.2.4-.2.5l-10.8-6.2c0-.2.1-.4.2-.5.1-.2.2-.4.2-.6l10.8,6.2c0,.2-.1.5-.2.7h0Z"/>
      <path class="st21" d="M462.1,294.7c.4.3.8.6,1.2.9.3.3.8.2,1-.1h0c.1-.3.4-.4.7-.2h0l-3.2-1.9v.2c-.2.4,0,.9.3,1.2h0Z"/>
      <path d="M431,333.7h0s.1,0,.2.1l10.5,6h0c-.3-.2-.4-.5-.2-.9.2-.4,0-.9-.3-1.2-.4-.3-.9-.6-1.2-.9-.3-.2-.7-.2-1,.2h0c-.1.2-.4.3-.6.3h-.1l-7.5-4.4c-.1.3,0,.6.3.8h0Z"/>
      <path class="st21" d="M448.1,338.6l1.4.8c-.1,0-.2-.2-.2-.4,0-.4-.4-.6-.8-.5h-.4Z"/>
      <path class="st21" d="M457.4,332.8l.3.2h0c0-.1-.2-.2-.3-.2Z"/>
      <path class="st21" d="M467,303.1c0,.5.4.9.8.6h.3-.1c0-.1-.8-.6-.8-.6h-.2Z"/>
      <path d="M446.4,287l10.8,6.2c.2-.2.4-.4.4-.6s.2-.5.5-.6l-10.9-6.2c-.2.1-.4.4-.5.6,0,.2-.2.5-.4.6h.1Z"/>
      <path class="st20" d="M427.9,321.8c0,6.7,2.2,11.5,5.8,13.5l2.4,1.4c-3.5-2.1-5.7-6.8-5.7-13.5,0-12.3,7.5-26.6,16.7-31.9,4-2.3,7.6-2.5,10.5-1.1l-2.1-1.2c-2.9-1.7-6.8-1.5-10.9.9-9.2,5.3-16.7,19.6-16.7,31.9h0Z"/>
      <path d="M430.4,323.2c0,6.7,2.2,11.4,5.7,13.5l.7.4c-3.5-2.1-4.8-6.2-4.8-12.9,0-12.3,7.5-26.6,16.7-31.9,4.1-2.4,7-3.1,9.9-1.5l-1-.6c-2.9-1.4-6.5-1.2-10.5,1.1-9.3,5.3-16.7,19.6-16.7,31.9h0Z"/>
      <path class="st20" d="M447.3,285.8l10.9,6.2c.2-.1.4-.2.6-.2l1.1.2,1.6.3h.1-.2c0-.1-9.9-5.8-9.9-5.8h-.2c0-.1-.2-.3-.2-.3h-.1c0-.1-.2-.1-.2-.1l-2.7-.5h-.6l-.2.2Z"/>
      <path class="st20" d="M438.7,289.2l10.8,6.2c.1-.2.4-.5.6-.6l3.1-1.8c.2-.1.4-.2.6-.1l-9.3-5.3-1-.6-.4-.2h-.2c-.2-.2-.4-.2-.6,0l-3.1,1.8c-.2.1-.5.4-.6.6h.1Z"/>
      <path class="st20" d="M430.7,298.5l10.8,6.2c0-.4.2-.8.5-1.1l2.7-3.6c.3-.4.6-.6.9-.6l-10.3-5.9-.5-.3c-.2-.1-.6,0-.9.5l-2.7,3.6c-.2.3-.4.7-.5,1.1h0Z"/>
      <path class="st20" d="M425.7,310.7h0l.2.2,10.5,6c-.2-.4-.2-.8,0-1.2l1.5-4.5c.1-.4.3-.7.6-1l-10.8-6.1c-.3.3-.5.6-.6,1l-1.6,4.5c-.2.5-.2,1,0,1.2h.2Z"/>
      <path class="st20" d="M424.2,317.5v4.1c0,.3,0,.6.3.8l1.1.6,9.7,5.6c-.2-.2-.3-.5-.2-.8v-4.1c0-.3,0-.7.2-1h0l-10.9-6.2c-.1.3-.2.7-.2,1Z"/>
      <path class="st20" d="M425.6,328.1l1.5,2.7c0,.1.1.2.2.2l.7.4h.3c0,.1,2.3,1.5,2.3,1.5l7.5,4.3s-.2-.1-.2-.2l-1.5-2.7c-.1-.3-.2-.6-.1-.9l-10.8-6.2c0,.3,0,.6.2.9h-.1Z"/>
      <path class="st20" d="M442.4,321.5c0-6.8,4.2-14.8,9.3-17.8s9.3.2,9.3,7-4.2,14.8-9.3,17.8-9.3-.2-9.3-7Z"/>
      <ellipse class="st17" cx="452" cy="316.6" rx="11.6" ry="6.5" transform="translate(-16.5 608.1) rotate(-66.9)"/>
      <path class="st21" d="M446.4,319.2c0-3.9,2.4-8.4,5.3-10.1s5.3.1,5.3,4-2.4,8.4-5.3,10.1-5.3-.1-5.3-4Z"/>
      <path class="st17" d="M448.7,317.9c0-2.3,1.1-4.4,3-5.8,1.7-1,3,0,3,2.3s-1.1,4.5-3,5.8c-1.7,1-3,0-3-2.3Z"/>
      <path class="st29" d="M451.4,313.6c0-.2.1-.5.3-.6.2-.1.3,0,.3.2,0,.3-.1.5-.3.6-.2.1-.3,0-.3-.2Z"/>
      <path class="st29" d="M450,315.5c-.1-.1-.1-.4,0-.6s.3-.4.5-.3.1.4,0,.6-.3.4-.5.3Z"/>
      <path class="st29" d="M449.7,317.8c-.2.1-.3,0-.3-.2,0-.3.1-.5.3-.6.2-.1.3,0,.3.2s-.1.5-.3.6Z"/>
      <path class="st29" d="M450.5,319.1c-.1.2-.3.4-.5.3s-.1-.4,0-.6.3-.4.5-.3.1.4,0,.6Z"/>
      <path class="st29" d="M452,318.7c0,.2-.1.5-.3.6-.2.1-.3,0-.3-.2,0-.3.1-.5.3-.6.2-.1.3,0,.3.2Z"/>
      <path class="st29" d="M453.4,316.8c.1.1.1.4,0,.6s-.3.4-.5.3-.1-.4,0-.6.3-.4.5-.3Z"/>
      <path class="st29" d="M453.8,314.6c.2-.1.3,0,.3.2,0,.3-.1.5-.3.6-.2.1-.3,0-.3-.2s.1-.5.3-.6Z"/>
      <path class="st29" d="M452.9,313.2c.1-.2.3-.4.5-.3s.1.4,0,.6-.3.4-.5.3-.1-.4,0-.6Z"/>
      <path class="st29" d="M450.5,316.9c0-.9.5-1.8,1.2-2.3.7-.4,1.2,0,1.2.9s-.5,1.8-1.2,2.3c-.7.4-1.2,0-1.2-.9Z"/>
      <path class="st21" d="M437.4,310.8h0c-.7,1.6-1.3,3.3-1.8,5-.9,3.1-1.5,6.4-1.6,9.7l-18,10.4v-12.8l17.2-9.9,4.1-2.4h0Z"/>
      <rect x="367.2" y="323.5" width="5.8" height="5.8"/>
      <path d="M437.4,310.8h0c-.7,1.6-1.3,3.3-1.8,5l-19.6,11.3v-3.9l17.2-9.9,4.2-2.4h0Z"/>
      <path class="st17" d="M449.1,230.8v64.5c-4.8,3.4-8.9,9.1-11.6,15.5h0l-4.2,2.4v-78.1l12.2-7.1c.6-.4,1.2-.5,1.9-.4.1,0,.2,0,.3.1h.2l.3.3.2.2c.2.2.3.4.4.6,0,.1.1.3.1.4v.4h0v1.1h.2Z"/>
      <path class="st6" d="M449.1,230.8v64.5c-4.8,3.4-8.9,9.1-11.6,15.5h0l-4.2,2.4v-78.1l12.2-7.1c.6-.4,1.2-.5,1.9-.4.1,0,.2,0,.3.1h.2l.3.3.2.2c.2.2.3.4.4.6,0,.1.1.3.1.4v.4h0v1.1h.2Z"/>
      <polygon class="st20" points="431.8 236 433.3 235.1 433.3 313.2 431.8 314.1 431.8 236"/>
      <path class="st20" d="M436.3,285.8v-46.2c0-1.1.6-2.1,1.5-2.8l7-4c.8-.5,1.5,0,1.5,1.1v46.2c0,1.1-.6,2.1-1.5,2.8l-7,4c-.8.5-1.5,0-1.5-1.1Z"/>
      <polygon class="st12" points="449.1 285.1 433.3 294.2 433.3 295.2 449.1 286.1 449.1 285.1"/>
      <polygon class="st21" points="416.1 323.2 393.8 310.3 403.7 304.6 426 317.5 416.1 323.2"/>
      <path class="st20" d="M314.7,313.7c.5-.5.9-1.1.9-1.8.1-1,.3-2,.5-2.9.2-.5.1-1-.1-1.4l-.3-.2c-.3-.2-.3-.8,0-1.5l1.9-5.4c.3-.8.8-1.4,1.1-1.3s.9-.5,1.3-1.3c.5-.9.9-1.8,1.4-2.7.4-.6.5-1.3.4-2-.1-.6,0-1.3.5-1.8l3.2-4.3c.4-.5.9-.8,1.1-.6l.6.3c.3,0,.7-.3.9-.5.6-.6,1.3-1.2,1.9-1.8.6-.5.9-1.1,1-1.8,0-.7.4-1.2,1-1.6l3.7-2.1c.2-.2.5-.2.8,0l1.8,1c.5-.1.9-.2,1.4-.3.6-.1,1.1-.6,1.3-1.2.2-.6.7-.9,1.2-.9l3.2.6h.2l12.9,7.4c.3.2.5.6.3,1l3.9,2.3c.1,0,.2.2.3.3l1.9,3.2c.3.6.2,1.2-.1,1.7-.4.6-.5,1.3-.3,1.9.2.8.4,1.5.5,2.3l1.3.8c.3.2.4.6.3.9v4.9c0,.7-.2,1.3-.7,1.8s-.8,1.1-.9,1.8c-.1,1-.3,2-.5,3s-.1,1,0,1.4l.3.2c.3.2.3.8,0,1.5l-1.9,5.3c-.3.8-.8,1.4-1.1,1.3s-.9.5-1.3,1.3-.9,1.9-1.5,2.8c-.4.6-.5,1.2-.4,1.9.2.3,0,1.1-.5,1.8l-3.2,4.3c-.4.5-.9.8-1.1.7l-.5-.3c-.4,0-.7.3-.9.5-.7.7-1.3,1.3-2,1.9-.5.4-.9,1.1-1,1.7,0,.6-.4,1.2-1,1.5l-3.7,2.1c-.2.2-.5.2-.8.1l-1.6-1c-.5.1-1,.2-1.6.3-.6.1-1.1.5-1.3,1.1-.2.5-.7.9-1.2.9l-3.2-.6h-.2l-12.9-7.4c-.3-.2-.5-.6-.3-1l-3.9-2.3c-.1,0-.2-.2-.3-.3l-1.8-3.2c-.3-.6-.2-1.2.1-1.7.4-.6.5-1.3.3-1.9-.2-.8-.4-1.6-.5-2.3h0l-1.3-.7c-.3-.2-.4-.6-.3-.9v-4.9c0-.7.2-1.3.7-1.8h.1Z"/>
      <path class="st21" d="M326.9,327.8v-4.9c0-.7.2-1.3.7-1.8s.9-1.1.9-1.8c.1-1,.3-2,.5-2.9.2-.8,0-1.5-.3-1.6s-.4-.8-.1-1.6l1.9-5.4c.3-.8.8-1.4,1.1-1.3s.9-.5,1.3-1.3c.5-.9.9-1.8,1.4-2.7.4-.6.5-1.3.4-2-.1-.6,0-1.3.5-1.8l3.2-4.3c.5-.6,1-.9,1.2-.5s.8.2,1.3-.3,1.3-1.2,1.9-1.8c.6-.5.9-1.1,1-1.8,0-.7.4-1.2,1-1.6l3.7-2.1c.5-.3,1-.1,1,.4s.2.7.6.8h.4c.6-.2,1.3-.3,2-.4.6-.2,1.1-.6,1.3-1.2.2-.6.7-.9,1.2-.9l3.2.6c.5,0,.7.7.5,1.3-.2.5,0,1.1.4,1.5.5.3,1,.7,1.4,1.1.4.3.9.3,1.2-.1h0c.4-.6.9-.6,1.1-.1l1.9,3.2c.3.6.2,1.2-.1,1.7-.4.6-.5,1.3-.3,1.9.2.8.4,1.5.5,2.3.1.6.5,1,.9.8s.7.2.7.9v4.9c0,.7-.2,1.3-.7,1.8s-.8,1.1-.9,1.8c-.1,1-.3,2-.5,3-.2.8,0,1.5.3,1.6s.4.8.1,1.6l-1.9,5.4c-.3.8-.8,1.4-1.1,1.3s-.9.5-1.3,1.3-.9,1.9-1.5,2.8c-.4.6-.5,1.2-.4,1.9.2.3,0,1.1-.5,1.8l-3.2,4.3c-.5.6-1,.9-1.2.5s-.8-.1-1.3.4-1.3,1.3-2,1.9c-.5.4-.9,1.1-1,1.7,0,.6-.4,1.2-1,1.5l-3.7,2.1c-.5.3-1,.2-1-.4s-.4-.8-1-.6c-.7.2-1.3.3-2,.4-.6.1-1.1.5-1.3,1.1-.2.5-.7.9-1.2.9l-3.2-.6c-.5,0-.7-.6-.5-1.2.2-.5,0-1.1-.4-1.5-.5-.3-1-.7-1.5-1.1-.3-.3-.9-.3-1.2,0h0c-.1.4-.5.5-.8.4-.1,0-.2-.2-.3-.3l-1.9-3.2c-.3-.6-.2-1.2.1-1.7.4-.6.5-1.3.3-1.9-.2-.8-.4-1.6-.5-2.3-.1-.6-.5-1-.9-.8s-.7-.2-.7-.9l.3-.2Z"/>
      <path class="st21" d="M338.2,279.8l11,6.3h0c.2.1.2.3.2.5,0,.4.3.7.6.8h.4c.2,0,.4-.1.6-.2.4-.1.9-.2,1.3-.3.3,0,.6-.2.8-.4l-12.9-7.4c-.2.2-.5.4-.8.4-.4.1-.9.2-1.3.3h0Z"/>
      <path d="M330.6,283.7l12.9,7.4c.2-.3.4-.7.4-1.1s.1-.6.3-.9l-12.9-7.4c-.2.3-.3.6-.3.9s-.2.8-.4,1.1Z"/>
      <path class="st21" d="M327.2,286.7l12.3,7.1h0s.1,0,.1.1c0,.2.3.2.4.2.3,0,.7-.2.9-.5.6-.6,1.3-1.2,2-1.8.2-.2.4-.4.6-.7l-12.9-7.4c-.2.3-.4.5-.6.7-.7.6-1.3,1.2-2,1.8-.2.3-.5.5-.9.6h.1Z"/>
      <path class="st21" d="M318.2,299.3l12.9,7.4c.1-.1.3-.2.4-.1.4,0,.9-.5,1.3-1.3.5-.9.9-1.8,1.4-2.7.4-.6.5-1.3.4-2v-.5l-12.9-7.4v.5c.2.7,0,1.4-.4,2-.5.9-1,1.8-1.4,2.7-.4.8-.9,1.3-1.3,1.3s-.3,0-.4.1Z"/>
      <path d="M331.2,306.7l-12.9-7.4c.1-.1.3-.2.4-.2h.2l12.9,7.4h-.2c-.2,0-.3,0-.4.2Z"/>
      <path d="M321.8,293.2c0-.1-.1-.3,0-.5l12.9,7.4v.5c0,.2.1.5,0,.7l-12.9-7.4v-.7Z"/>
      <path class="st21" d="M314.2,314.3l12.9,7.4c0-.2.3-.4.5-.6.5-.5.9-1.1.9-1.8.1-1,.3-1.9.5-2.9.2-.5.1-1-.1-1.5h-.2c0-.1-.1-.2-.1-.2l-12.6-7.2c.2.4.3,1,.1,1.4-.2,1-.4,2-.5,2.9,0,.7-.4,1.4-.9,1.8-.2.2-.4.4-.4.6h0Z"/>
      <path d="M314.7,313.7c.2-.2.4-.4.5-.7l12.9,7.4c-.1.3-.3.5-.5.7-.2.1-.4.3-.5.6l-12.9-7.4c.1-.2.3-.4.5-.6Z"/>
      <path class="st21" d="M315.5,326.9l12.9,7.4c0-.2.1-.5.3-.7.2-.3.3-.6.3-.9v-1c-.2-.8-.4-1.6-.5-2.3h0c-.1-.6-.5-1-.9-.8h-.4l-11.6-6.7h0c.1.8.3,1.6.5,2.3.2.6,0,1.3-.3,1.9-.1.2-.2.4-.3.7h0Z"/>
      <path d="M328.7,333.7c-.1.2-.2.4-.3.7l-12.9-7.4c0-.2.1-.5.3-.7.2-.2.3-.5.3-.8l12.9,7.4c0,.3-.1.6-.3.8Z"/>
      <path class="st21" d="M359.1,288.2c.5.3,1,.7,1.4,1.1.4.3.9.2,1.2-.1h0c.2-.4.5-.5.8-.4h0l-3.9-2.2v.2c-.2.5,0,1.1.4,1.5h.1Z"/>
      <path d="M322.1,334.7h.2c0,.1,12.5,7.3,12.5,7.3h.1c-.3-.2-.4-.7-.3-1,.2-.5,0-1.1-.4-1.5-.5-.3-1-.7-1.5-1.1-.3-.3-.9-.3-1.2,0h0c-.1.4-.4.5-.7.4h-.1l-9-5.2c-.1.4,0,.8.4,1h0Z"/>
      <path class="st21" d="M342.5,340.5l1.6,1c-.2,0-.2-.3-.2-.5,0-.5-.5-.8-1-.6h-.4Z"/>
      <path class="st21" d="M353.5,333.6l.4.2h0c0-.2-.2-.3-.4-.2Z"/>
      <path class="st21" d="M365,298.2c.1.6.5,1,.9.8h.3-.1l-.2-.2-1-.6h.1Z"/>
      <path d="M340.4,279.1l12.9,7.4c.2-.2.4-.5.5-.8,0-.3.3-.6.5-.7l-12.9-7.4c-.3.2-.4.4-.5.7-.1.3-.3.5-.5.8Z"/>
      <path class="st20" d="M318.4,320.5c0,8,2.7,13.7,6.9,16.1l2.9,1.6c-4.1-2.5-6.8-8.1-6.8-16,0-14.6,8.9-31.7,19.9-38,4.7-2.7,9.1-3,12.5-1.3l-2.4-1.4c-3.5-2-8-1.8-13,1-11,6.3-19.9,23.4-19.9,38h-.1Z"/>
      <path d="M321.4,322.2c0,8,2.6,13.6,6.8,16l.9.5c-4.1-2.5-5.7-7.4-5.7-15.4,0-14.6,8.9-31.7,19.9-38,4.9-2.8,8.4-3.7,11.8-1.8l-1.2-.7c-3.4-1.7-7.8-1.4-12.5,1.3-11,6.4-19.9,23.4-19.9,38h0Z"/>
      <path class="st20" d="M341.5,277.6l12.9,7.4c.2-.2.4-.2.7-.2l1.3.3,1.9.4h.1-.2c0-.1-11.7-6.9-11.7-6.9h-.3c0-.1-.3-.3-.3-.3h-.2c0-.1-.1-.1-.1-.1h-.1l-3.2-.6c-.2,0-.5,0-.7.2v-.2Z"/>
      <path class="st20" d="M331.3,281.7l12.9,7.4c.2-.3.4-.5.7-.7l3.7-2.1c.2-.1.5-.2.7-.1l-11-6.3-1.2-.7-.4-.2h-.2c-.2-.2-.5-.2-.7,0l-3.7,2.2c-.3.2-.6.4-.7.7v-.2Z"/>
      <path class="st20" d="M321.7,292.7l12.9,7.4c0-.5.3-.9.6-1.3l3.2-4.3c.4-.5.8-.7,1-.7l-12.3-7.1-.5-.3c-.3-.2-.7,0-1.1.6l-3.2,4.3c-.3.4-.5.9-.5,1.3h-.1Z"/>
      <path class="st20" d="M315.7,307.3h0l.2.2,12.6,7.2c-.2-.5-.2-1,0-1.5l1.9-5.3c.1-.4.4-.8.7-1.2l-12.9-7.4c-.3.3-.6.7-.7,1.2l-1.9,5.3c-.2.7-.2,1.3,0,1.5h0Z"/>
      <path class="st20" d="M314,315.4v4.9c0,.5.1.8.3.9l1.3.7,11.6,6.6c-.2-.2-.3-.6-.3-.9v-4.9c0-.4,0-.8.3-1.1h0l-12.9-7.4c-.2.4-.2.7-.2,1.1h0Z"/>
      <path class="st20" d="M315.7,328l1.9,3.2c0,.1.2.2.3.3l.9.5.3.2,2.7,1.6,9,5.1c-.1,0-.2-.2-.2-.3l-1.9-3.2c-.1-.3-.2-.7-.1-1l-12.9-7.4c0,.3,0,.7.1,1h0Z"/>
      <ellipse cx="346.9" cy="314.2" rx="17" ry="9.6" transform="translate(-78.2 510) rotate(-66.9)"/>
      <ellipse class="st22" cx="346.9" cy="314.2" rx="13.8" ry="7.8" transform="translate(-78.2 510) rotate(-66.9)"/>
      <path class="st21" d="M340.5,317.5c0-4.6,2.8-10,6.3-12s6.3.1,6.3,4.8-2.8,10-6.3,12-6.3-.1-6.3-4.8Z"/>
      <path class="st22" d="M343.1,315.9c0-2.7,1.6-5.8,3.6-6.9s3.6,0,3.6,2.7-1.6,5.8-3.6,6.9-3.6,0-3.6-2.7Z"/>
      <path class="st29" d="M346.3,310.8c0-.3.2-.6.4-.8.2-.1.4,0,.4.3s-.2.6-.4.8c-.2.1-.4,0-.4-.3Z"/>
      <path class="st29" d="M344.7,313c-.1-.1-.1-.4,0-.7s.4-.4.6-.3.1.5,0,.7-.4.5-.6.3Z"/>
      <path class="st29" d="M344.3,315.8c-.2.1-.4,0-.4-.3s.2-.6.4-.8c.2-.1.4,0,.4.3s-.2.6-.4.8Z"/>
      <path class="st29" d="M345.3,317.3c-.1.3-.4.4-.6.3s-.1-.5,0-.7.4-.4.6-.3.1.4,0,.7Z"/>
      <path class="st29" d="M347.1,316.9c0,.3-.2.6-.4.8-.2.1-.4,0-.4-.3s.2-.6.4-.8c.3-.1.4,0,.4.3Z"/>
      <path class="st29" d="M348.7,314.6c.2.1.2.5,0,.7s-.4.4-.5.3-.2-.4,0-.7.4-.4.5-.3Z"/>
      <path class="st29" d="M349.2,311.9c.2-.1.4,0,.4.3s-.1.6-.4.8c-.2.1-.4,0-.4-.3s.2-.6.4-.8Z"/>
      <path class="st29" d="M348.2,310.3c.1-.3.4-.4.5-.3s.2.5,0,.7-.4.4-.5.3-.2-.4,0-.7Z"/>
      <path class="st29" d="M345.3,314.7c0-1.1.6-2.1,1.5-2.8.8-.5,1.5,0,1.5,1.1s-.6,2.1-1.5,2.8c-.8.5-1.5,0-1.5-1.1Z"/>
      <path class="st17" d="M371.1,326.4c-.7-.4-1.3,0-1.3.8v17.1l-34.7-20.1v-17c0-.9-.5-1.8-1.3-2.3l37.3,21.5Z"/>
      <path class="st2" d="M369.5,325.4c-.7-.4-1.3,0-1.3.8v17.1l-34.7-20.1v-17c0-.9-.5-1.8-1.3-2.3l37.3,21.5Z"/>
      <path class="st20" d="M364.9,343.4c.5-.5.9-1.1.9-1.8.1-1,.3-2,.5-2.9.1-.5.1-1-.1-1.4l-.3-.2c-.3-.2-.3-.8,0-1.5l1.9-5.4c.3-.8.8-1.4,1.1-1.3s.9-.5,1.3-1.3c.5-.9.9-1.8,1.4-2.7.4-.6.5-1.3.4-2-.1-.6,0-1.3.5-1.8l3.2-4.3c.4-.5.9-.8,1.1-.6l.5.3c.3,0,.7-.3.9-.5.6-.6,1.3-1.2,1.9-1.8.6-.5.9-1.1,1-1.8,0-.7.4-1.2,1-1.6l3.7-2.1c.2-.2.5-.2.8,0l1.8,1c.4-.1.9-.2,1.4-.3.6-.2,1.1-.6,1.3-1.2.2-.6.7-.9,1.2-.9l3.2.6h.2l12.9,7.4c.3.2.5.6.3,1l3.9,2.3c.1,0,.2.2.3.3l1.9,3.2c.3.6.2,1.2-.1,1.7-.4.6-.5,1.3-.3,1.9.2.8.4,1.5.5,2.3l1.3.8c.2.1.3.5.3.9v4.9c0,.7-.2,1.3-.7,1.8s-.9,1.1-.9,1.8c-.1,1-.3,2-.5,3s-.1,1,0,1.4l.3.2c.3.2.3.8,0,1.5l-1.9,5.3c-.3.8-.8,1.4-1.1,1.3s-.9.5-1.3,1.3-.9,1.9-1.5,2.8c-.4.6-.5,1.2-.4,1.9.2.3,0,1.1-.5,1.8l-3.2,4.3c-.4.5-.9.8-1.1.7l-.5-.3c-.4,0-.7.3-.9.5-.7.7-1.3,1.3-2,1.9-.5.4-.9,1.1-1,1.7,0,.6-.4,1.2-1,1.5l-3.7,2.1c-.2.2-.5.2-.8.1l-1.6-1c-.5.1-1,.2-1.6.3-.6.1-1.1.5-1.3,1.1-.2.5-.7.9-1.2.9l-3.2-.6h-.2l-12.9-7.4c-.3-.2-.5-.6-.3-1l-3.9-2.3c-.1,0-.2-.2-.3-.3l-1.9-3.2c-.3-.6-.2-1.2.1-1.8.4-.6.5-1.3.3-1.9-.2-.8-.4-1.6-.5-2.3h0l-1.3-.7c-.3-.2-.4-.6-.3-.9v-4.9c0-.7.2-1.3.7-1.7h.3Z"/>
      <path class="st29" d="M377.1,357.5v-4.9c0-.7.2-1.3.7-1.8s.9-1.1.9-1.8c.1-1,.3-2,.5-2.9.2-.8,0-1.5-.3-1.6s-.4-.8-.1-1.6l1.9-5.4c.3-.8.8-1.4,1.1-1.3s.9-.5,1.3-1.3c.5-.9.9-1.8,1.4-2.7.4-.6.5-1.3.4-2-.1-.6,0-1.3.5-1.8l3.2-4.3c.5-.6,1-.9,1.2-.5s.8.2,1.3-.3,1.3-1.2,1.9-1.8c.6-.5.9-1.1,1-1.8,0-.7.4-1.2,1-1.6l3.7-2.1c.5-.3,1-.1,1,.4s.3.7.6.7h.4c.6-.2,1.3-.3,1.9-.4s1.1-.6,1.3-1.2c.2-.6.7-.9,1.2-.9l3.2.6c.5,0,.7.7.5,1.3-.2.5,0,1.1.4,1.5.5.3,1,.7,1.4,1.1.4.3.9.3,1.2-.1h0c.4-.6.9-.6,1.1-.1l1.9,3.2c.3.6.2,1.2-.1,1.7-.4.6-.5,1.3-.3,1.9.2.8.4,1.5.5,2.3.1.6.5,1,.9.8s.7.2.7.9v4.9c0,.7-.2,1.3-.7,1.8s-.9,1.1-.9,1.8c-.1,1-.3,2-.5,3-.2.8,0,1.5.3,1.6s.4.8.1,1.6l-1.9,5.3c-.3.8-.8,1.4-1.1,1.3s-.9.5-1.3,1.3-.9,1.9-1.5,2.8c-.4.6-.5,1.2-.4,1.9.2.3,0,1.1-.5,1.8l-3.3,4.4c-.5.6-1,.9-1.2.5s-.8-.1-1.3.4-1.3,1.3-2,1.9c-.5.4-.9,1.1-1,1.7,0,.6-.4,1.2-1,1.5l-3.7,2.1c-.5.3-1,.2-1-.4s-.4-.8-1-.6c-.7.2-1.3.3-2,.4-.6.1-1.1.5-1.3,1.1-.2.5-.7.9-1.2.9l-3.2-.6c-.5,0-.7-.6-.5-1.2.2-.5,0-1.1-.4-1.5-.5-.3-1-.7-1.4-1.2-.3-.3-.9-.3-1.2,0h0c-.1.4-.5.5-.8.4-.1,0-.2-.2-.3-.3l-1.9-3.2c-.3-.6-.2-1.2.1-1.7.4-.6.5-1.3.3-1.9-.2-.8-.4-1.6-.5-2.3-.1-.6-.5-1-.9-.8s-.7-.2-.7-.9h.4Z"/>
      <path class="st21" d="M388.4,309.6l11,6.3h0c.2.1.2.3.2.5,0,.4.3.7.6.8h.4c.2,0,.4-.1.6-.2.4-.1.9-.2,1.3-.3.3,0,.6-.2.8-.4l-12.9-7.4c-.2.2-.5.4-.8.4-.4.1-.9.2-1.3.3h0Z"/>
      <path d="M380.8,313.5l12.9,7.4c.2-.3.4-.7.4-1.1s.1-.6.3-.9l-12.9-7.4c-.2.3-.3.6-.3.9s-.2.8-.4,1.1Z"/>
      <path class="st21" d="M377.4,316.5l12.3,7.1h0s.1,0,.1.1c0,.2.3.2.4.2.3,0,.7-.2.9-.5.6-.6,1.3-1.2,2-1.8.2-.2.4-.4.6-.7l-12.9-7.4c-.2.3-.4.5-.6.7-.7.6-1.3,1.2-1.9,1.8-.2.3-.5.5-.9.6h0Z"/>
      <path class="st21" d="M368.4,329l12.9,7.4c.1-.1.3-.2.4-.1.4,0,.9-.5,1.3-1.3.5-.9.9-1.8,1.4-2.7.4-.6.6-1.3.4-2v-.5l-12.9-7.4v.5c.2.7,0,1.4-.4,2-.5.9-1,1.8-1.4,2.7-.4.8-.9,1.3-1.3,1.3s-.3,0-.4.2h0Z"/>
      <path d="M381.4,336.4l-12.9-7.4c.1-.1.3-.2.4-.2h.2l12.9,7.4h-.2c-.2,0-.3,0-.4.2Z"/>
      <path d="M372,322.9c0-.1-.1-.3,0-.5l12.9,7.4v.5c0,.2.1.5,0,.7l-13-7.4v-.7h.1Z"/>
      <path class="st21" d="M364.4,344l12.9,7.4c0-.2.3-.4.5-.6.5-.5.9-1.1.9-1.8.1-1,.3-1.9.5-2.9.2-.5.1-1-.1-1.5h-.2c0-.1-.1-.2-.1-.2l-12.6-7.2c.2.4.3,1,.1,1.4-.2,1-.4,2-.5,2.9,0,.7-.4,1.4-.9,1.8-.2.2-.4.4-.5.6h0Z"/>
      <path d="M364.9,343.4c.2-.2.4-.4.5-.7l12.9,7.4c-.1.3-.3.5-.5.7-.2.1-.4.3-.5.6l-12.9-7.4c.1-.2.3-.4.5-.6Z"/>
      <path class="st21" d="M365.7,356.7l12.9,7.4c0-.2.1-.5.3-.7.2-.3.3-.6.3-.9v-1c-.2-.8-.4-1.6-.5-2.3h0c-.1-.6-.5-1-.9-.8h-.4l-11.6-6.6h0c.1.8.3,1.6.5,2.3.2.6,0,1.3-.3,1.9-.1.2-.2.4-.3.7Z"/>
      <path d="M378.9,363.5c-.1.2-.2.4-.3.7l-12.9-7.4c0-.3.1-.5.3-.7.2-.2.3-.5.3-.8l12.9,7.4c0,.3-.2.6-.3.9h0Z"/>
      <path class="st21" d="M409.3,318c.5.3,1,.7,1.4,1.1.4.3.9.2,1.2-.1h0c.2-.4.5-.5.8-.4h0l-3.9-2.3v.2c-.2.5,0,1.2.4,1.5h.1Z"/>
      <path d="M372.3,364.5h.2c0,.1,12.5,7.3,12.5,7.3h.1c-.3-.3-.4-.7-.3-1.1.2-.5,0-1.1-.4-1.5-.5-.3-1-.7-1.4-1.1s-.9-.3-1.2,0h0c-.1.4-.4.5-.7.4h-.1l-9-5.2c0,.4,0,.8.4.9v.3Z"/>
      <path class="st21" d="M392.7,370.3l1.6,1c-.2,0-.2-.3-.2-.5,0-.5-.5-.8-1-.6h-.4Z"/>
      <path class="st21" d="M403.7,363.3l.4.2h0c0-.2-.2-.3-.4-.2Z"/>
      <path class="st21" d="M415.1,328c.1.6.5,1,.9.8h.3-.1l-.2-.2-1-.6h.1Z"/>
      <path d="M390.6,308.9l12.9,7.4c.2-.2.4-.5.5-.8,0-.3.3-.6.5-.7l-12.9-7.4c-.3.2-.4.4-.5.7-.1.3-.3.5-.5.8Z"/>
      <path class="st20" d="M368.6,350.2c0,8,2.7,13.7,6.9,16.1l2.9,1.6c-4.1-2.5-6.8-8.1-6.8-16,0-14.6,8.9-31.7,19.9-38,4.7-2.7,9.1-3,12.5-1.3l-2.4-1.4c-3.5-2-8-1.8-13,1-11,6.3-19.9,23.4-19.9,38h-.1Z"/>
      <path d="M371.6,351.9c0,8,2.6,13.6,6.8,16l.9.5c-4.1-2.5-5.7-7.4-5.7-15.4,0-14.6,8.9-31.7,19.9-38,4.9-2.8,8.4-3.7,11.8-1.8l-1.2-.7c-3.4-1.7-7.8-1.4-12.5,1.3-11,6.4-19.9,23.4-19.9,38h0Z"/>
      <path class="st20" d="M391.6,307.4l12.9,7.4c.2-.2.4-.2.7-.2l1.3.3,1.9.4h.1-.2c0-.1-11.7-6.9-11.7-6.9h-.3c0-.1-.3-.3-.3-.3h-.2c0-.1-.1-.1-.1-.1h-.1l-3.2-.6c-.2,0-.5,0-.7.2v-.2Z"/>
      <path class="st20" d="M381.5,311.5l12.9,7.4c.2-.3.4-.5.7-.7l3.7-2.1c.2-.1.5-.2.7-.1l-11-6.3-1.2-.7-.4-.2h-.2c-.2-.2-.5-.2-.8,0l-3.7,2.1c-.3.2-.6.4-.8.7h0Z"/>
      <path class="st20" d="M371.9,322.5l12.9,7.4c0-.5.3-.9.6-1.3l3.2-4.3c.4-.5.8-.7,1-.7l-12.3-7.1-.5-.3c-.3-.2-.7,0-1.1.6l-3.2,4.3c-.3.4-.5.9-.5,1.3h-.1Z"/>
      <path class="st20" d="M365.9,337h0l.2.2,12.6,7.2c-.2-.5-.2-1,0-1.5l1.9-5.3c.1-.4.4-.8.7-1.2l-12.9-7.4c-.3.3-.6.7-.7,1.2l-1.9,5.3c-.2.7-.2,1.3,0,1.5h0Z"/>
      <path class="st20" d="M364.1,345.2v4.9c0,.5.1.8.3.9l1.3.7,11.6,6.6c-.2-.2-.3-.6-.3-.9v-4.9c0-.4,0-.8.3-1.1h0l-12.9-7.4c-.2.4-.2.8-.2,1.2h0Z"/>
      <path class="st20" d="M365.9,357.7l1.9,3.2c0,.1.2.2.3.3l.9.5.3.2,2.7,1.6,9,5.1c-.1,0-.2-.2-.2-.3l-1.9-3.2c-.2-.3-.2-.7-.1-1l-12.9-7.4c0,.3,0,.7.1,1h0Z"/>
      <ellipse class="st20" cx="397.2" cy="344" rx="17" ry="9.6" transform="translate(-75.1 574.4) rotate(-66.9)"/>
      <ellipse class="st17" cx="397.2" cy="344" rx="13.8" ry="7.8" transform="translate(-75.1 574.4) rotate(-66.9)"/>
      <path class="st21" d="M390.6,347.2c0-4.6,2.8-10,6.3-12s6.3.1,6.3,4.8-2.8,10-6.3,12-6.3-.1-6.3-4.8Z"/>
      <path class="st17" d="M393.3,345.7c0-2.7,1.6-5.8,3.6-6.9s3.6,0,3.6,2.7-1.6,5.8-3.6,6.9-3.6,0-3.6-2.7Z"/>
      <path class="st29" d="M396.5,340.5c0-.3.2-.6.4-.8.2-.1.4,0,.4.3s-.2.6-.4.8c-.2.1-.4,0-.4-.3Z"/>
      <path class="st29" d="M394.9,342.8c-.1-.1-.1-.4,0-.7s.4-.4.6-.3.1.5,0,.7-.4.4-.6.3Z"/>
      <path class="st29" d="M394.5,345.5c-.2.1-.4,0-.4-.3s.2-.6.4-.8c.2-.1.4,0,.4.3s-.2.6-.4.8Z"/>
      <path class="st29" d="M395.5,347.1c-.1.3-.4.4-.6.3s-.1-.5,0-.7.4-.4.6-.3.1.4,0,.7Z"/>
      <path class="st29" d="M397.3,346.6c0,.3-.1.6-.4.8-.2.1-.4,0-.4-.3s.2-.6.4-.8c.2-.1.4,0,.4.3Z"/>
      <path class="st29" d="M398.9,344.4c.2.1.2.5,0,.7s-.4.4-.5.3-.2-.4,0-.7.4-.4.5-.3Z"/>
      <path class="st29" d="M399.4,341.6c.2-.1.4,0,.4.3s-.1.6-.4.8c-.2.1-.4,0-.4-.3s.1-.6.4-.8Z"/>
      <path class="st29" d="M398.4,340.1c.1-.3.4-.4.5-.3s.2.4,0,.7-.4.4-.5.3-.2-.5,0-.7Z"/>
      <path class="st29" d="M395.5,344.4c0-1.1.6-2.1,1.5-2.8.8-.5,1.5,0,1.5,1.1s-.6,2.2-1.5,2.8c-.8.5-1.5,0-1.5-1.1Z"/>
      <path class="st17" d="M328.4,280.2l1.9-5.6,16.5-47.8,21.6,12.4,28.4,16.3-18.6,53.4-49.9-28.8h.1ZM322.6,281.8v16.6l11.2,6.5,37.3,21.5,10.9,6.3c3.7-7.3,8.9-13.5,14.7-16.8,9-5.2,16.6-1.9,19.3,7.3l15.7-9.1v-78.1l-59.5-34.4-25.1,14.5h0l-1.4.8s-.2,0-.2.1c-1,.7-1.9,1.7-2.4,2.9-.2.5-.4.9-.6,1.4l-19.4,57.7c-.3.9-.5,1.8-.5,2.7h0ZM388.9,306.5l16.2-49.3c.3-1.1,1-2.1,2-2.7l19.5-11.3c.3-.2.8-.3,1.2-.2.1.3.2.7.2,1v40.8c0,1.2-.6,2.4-1.6,3.1l-36.3,20.9c-.3.2-.8.3-1.2.2-.2-.8-.2-1.7,0-2.6h0Z"/>
      <path class="st2" d="M372.4,201.6l-25.1,14.5h0l-1.4.8h-.2c-1,.9-1.9,1.9-2.4,3-.2.4-.4.9-.6,1.4l-19.4,57.7c-.3.9-.5,1.8-.5,2.7v16.6l11.2,6.5,37.3,21.5,10.9,6.3c3.7-7.3,8.9-13.5,14.7-16.8,9-5.2,16.6-1.9,19.3,7.3l15.7-9.1v-78.1l-59.5-34.4h0ZM378.3,309l-49.9-28.8,1.9-5.6,16.5-47.8,21.6,12.4,28.4,16.3-18.6,53.4h.1ZM428,284.8c0,1.2-.6,2.4-1.6,3.1l-36.2,20.9c-.3.2-.8.3-1.2.2-.2-.8-.2-1.7.1-2.6l16.2-49.3c.3-1.1,1-2.1,2-2.7l19.5-11.3c.3-.2.8-.3,1.2-.2.1.3.2.7.2,1v40.8h-.2Z"/>
      <polygon class="st29" points="396.8 255.6 378.2 309 328.4 280.2 330.3 274.6 346.8 226.8 368.4 239.2 396.8 255.6"/>
      <path class="st13" d="M344.5,218l59.5,34.3c.4-.4.8-.7,1.2-1l26.5-15.3-59.5-34.4-25.1,14.5h0l-1.4.8s-.2,0-.2.1c-.4.3-.7.6-1,.9h0Z"/>
      <g class="st19">
        <path class="st25" d="M347.5,216l-1.7,1c-1.6,1.1-2.7,2.6-3.2,4.4l-19.4,57.7c-.3.9-.5,1.8-.5,2.7v1.6s17.3-51.8,19.4-57.9,2.7-8,5.5-9.6h0Z"/>
      </g>
      <path class="st6" d="M362.6,308.8l-19.8-11.3c-1.1-.9-2.8-.8-3.7.4-.5.6-.7,1.4-.6,2.1v11c.1,2.7,1.5,5.1,3.8,6.6l19.8,11.3c.6.3,1.2.5,1.8.6.4,0,.8-.1,1.2-.3.9-.6,1.4-1.7,1.3-2.7v-11c-.1-2.7-1.6-5.1-3.8-6.6h0ZM339.7,312.4c-.1-.5-.2-.9-.2-1.4v-.3l25.8,14.8h0v1.6l-25.6-14.6h0ZM365.4,318.7l-25.8-14.8h0v-1.6l25.8,14.7h0v1.7h0ZM339.5,305.1l25.8,14.8h0v1.6l-25.8-14.8h0v-1.6ZM339.5,307.9l25.8,14.8h0v1.6l-25.8-14.8h0v-1.6ZM365.4,315.4v.5l-25.8-14.8h0v-1.6l25.7,14.7c.1.4.2.8.2,1.2h-.1ZM340.3,298.2c.2-.1.4-.2.7-.2.5,0,.9.2,1.3.4l19.8,11.3c1.1.7,2,1.8,2.6,3l-24.8-14.2c0-.1.2-.3.4-.4h0ZM362.6,328l-19.8-11.3c-1.1-.7-1.9-1.6-2.5-2.7l24.6,14c0,.1-.2.2-.3.2-.7.3-1.4.2-2-.2h0Z"/>
      <path class="st29" d="M361.9,309.1l-19.8-11.3c-1.1-.9-2.8-.8-3.7.4-.5.6-.7,1.4-.6,2.1v11c.1,2.7,1.5,5.1,3.8,6.6l19.8,11.3c.6.3,1.2.5,1.8.6.4,0,.8-.1,1.2-.3.9-.6,1.4-1.7,1.3-2.7v-11c-.1-2.7-1.5-5.1-3.8-6.6h0ZM339,312.8c-.1-.5-.2-.9-.2-1.4v-.3l25.8,14.8h0v1.7l-25.6-14.6v-.2ZM364.7,319l-25.8-14.8h0v-1.6l25.8,14.8h0v1.6ZM338.8,305.4l25.8,14.8h0v1.6l-25.8-14.8h0v-1.6ZM338.8,308.2l25.8,14.8h0v1.6l-25.8-14.8h0v-1.7h0ZM364.7,315.7v.5l-25.8-14.8h0v-1.6l25.7,14.7c.1.4.2.8.2,1.3h-.1ZM339.6,298.5c.2-.1.4-.2.7-.2.5,0,.9.2,1.3.4l19.8,11.2c1.1.7,2,1.8,2.6,3l-24.8-14.2c.1-.1.2-.3.4-.3h0ZM361.9,328.4l-19.8-11.3c-1.1-.7-1.9-1.6-2.5-2.8l24.6,14s-.2.2-.3.2c-.7.3-1.4.2-2-.2h0Z"/>
      <path class="st26" d="M384.7,319.2v4.2c0,.5-.3.9-.7,1.1l-1.2.7c-.4.2-.9.2-1.3,0l-8.6-5c-.4-.3-.6-.7-.7-1.1v-4.2c0-.4.3-.6.7-.4l8.6,5c.4.2.9.2,1.3,0l1.2-.7c.4-.2.7,0,.7.4Z"/>
      <polygon class="st26" points="322.6 285.4 332.7 291.2 332.7 297 322.6 291.1 322.6 285.4"/>
      <polygon class="st29" points="373.8 200.8 433.3 235.1 431.8 236 372.3 201.6 373.8 200.8"/>
      <path class="st17" d="M382.1,316.1v16.5c3.7-7.3,8.9-13.5,14.7-16.8,9-5.2,16.6-1.9,19.3,7.3l15.7-9.1v-78.1l-26.5,15.3c-1.6,1.1-2.7,2.6-3.3,4.4l-19.4,57.7c-.3.9-.5,1.8-.5,2.7h0ZM388.9,306.5l16.2-49.3c.3-1.1,1-2.1,2-2.7l19.5-11.3c.3-.2.8-.3,1.2-.2.1.3.2.7.2,1v40.8c0,1.2-.6,2.4-1.6,3.1l-36.3,20.9c-.3.2-.8.3-1.2.2-.2-.8-.2-1.7,0-2.6h0Z"/>
      <path class="st6" d="M405.4,251.3c-1.6,1.1-2.7,2.6-3.3,4.4l-19.4,57.7c-.3.9-.5,1.8-.5,2.7v16.5c3.7-7.3,8.9-13.5,14.7-16.8,9-5.2,16.6-1.9,19.3,7.3l15.7-9.1v-78.1l-26.5,15.3h0ZM428.1,284.8c0,1.2-.6,2.4-1.6,3.1l-36.2,20.9c-.3.2-.8.3-1.2.2-.2-.8-.2-1.7.1-2.6l16.2-49.3c.3-1.1,1-2.1,2-2.7l19.5-11.3c.3-.2.8-.3,1.2-.2.1.3.2.7.2,1v40.8h-.2Z"/>
      <path class="st12" d="M406.9,250.3l-1.7,1c-1.6,1.1-2.7,2.6-3.2,4.4l-19.4,57.7c-.3.9-.5,1.8-.5,2.7v1.6s17.3-51.8,19.4-57.8,2.7-8,5.4-9.6h0Z"/>
      <path class="st20" d="M427.9,244v40.8c0,1.2-.6,2.4-1.6,3.1l-36.2,20.9c-.3.2-.8.3-1.2.2-.2-.8-.2-1.7.1-2.6l16.2-49.3c.3-1.1,1-2.1,2-2.7l19.5-11.3c.3-.2.8-.3,1.2-.2.1.3.1.7.1,1h-.1Z"/>
    </g>
  </g>
  <g id="freepik--Barrier--inject-65">
    <g id="freepik--barrier--inject-65">
      <path class="st29" d="M278.8,384.7l-3.2,1.9c-.4.2-.8.2-1.2,0l-1-.6c-.3-.2-.5-.6-.5-1l10.7-50.6c.1-.4.4-.8.7-1l3.2-1.9c.4-.2.8-.2,1.2,0l1,.6c.3.2.5.6.4,1l-10.7,50.6c-.1.4-.4.8-.7,1h.1Z"/>
      <path class="st21" d="M278.8,384.7l-3.2,1.9c-.3.2-.5,0-.5-.3l10.7-50.6c.1-.4.4-.8.7-1l3.2-1.9c.3-.2.5,0,.4.3l-10.7,50.6c-.1.4-.4.8-.7,1h.1Z"/>
      <polygon class="st20" points="277.1 381.4 278.1 376.9 280.3 375.6 300.6 387.3 301.5 393 299.3 394.2 277.1 381.4"/>
      <polygon class="st29" points="299.3 394.2 277.1 381.4 278.1 376.9 298.4 388.6 299.3 394.2"/>
      <path class="st20" d="M303,398.6l-3.2,1.9c-.4.2-.8.2-1.2,0l-1-.6c-.4-.2-.6-.6-.7-1l-10.7-63.3c0-.4.1-.8.5-1l3.2-1.9c.4-.2.8-.2,1.2,0l1,.6c.4.2.6.6.7,1l10.7,63.3c0,.4-.1.8-.5,1Z"/>
      <path class="st20" d="M286.1,335.6l.4,2.4,10.3,60.9c0,.4.3.8.7,1l1,.6c.4.2.8.2,1.2,0l3.2-1.9c.3-.2.5-.6.5-1l-10.7-63v-.2c-.1-.4-.4-.8-.7-1l-1-.6c-.4-.2-.8-.2-1.2,0l-3.2,1.9c-.3.2-.5.6-.5,1h0Z"/>
      <path class="st29" d="M292.7,334.4l10.7,63.3c0,.4-.1.8-.5,1l-3.2,1.9c-.2.1-.5.1-.6,0v-.2l-10.7-63.3c0-.4.1-.8.5-1l3.2-1.9c.2-.1.5-.1.6,0v.3h0Z"/>
      <path class="st6" d="M283.1,336.8l1.7,1c.5.3,1.1.3,1.7.2.2,0,.4-.1.6-.2l5.6-3.2v-.2c-.1-.4-.4-.8-.7-1l-1-.6c-.4-.2-.8-.2-1.2,0,0-.4.3-.5,0-.7l-1-.6c-.4-.2-.8-.2-1.2,0l-3.2,1.9c-.4.2-.6.6-.7,1l-.6,2.4h0Z"/>
      <path class="st20" d="M281.2,332.9c0-.3.2-.6.5-.7l6.4-3.7c.7-.4,1.6-.4,2.3,0l3.1,1.8c.3.1.5.4.5.7v1.5c0,.3-.2.5-.5.7l-6.4,3.7c-.7.4-1.6.4-2.3,0l-3.2-1.8c-.3-.1-.5-.4-.5-.7v-1.5h.1Z"/>
      <path class="st21" d="M281.2,332.9c0-.3.2-.6.5-.7l4.3-2.5v7.4c-.4,0-.8,0-1.2-.3l-3.2-1.8c-.3-.1-.5-.4-.5-.7v-1.5h.1Z"/>
      <path class="st29" d="M287.2,335.4l6.4-3.7c.4-.1.6-.5.5-.9,0-.2-.2-.4-.5-.5l-3.1-1.8c-.7-.4-1.6-.4-2.3,0l-6.4,3.7c-.4.1-.6.5-.5.9,0,.2.2.4.5.5l3.1,1.8c.7.4,1.6.4,2.3,0Z"/>
      <g id="freepik--Clock--inject-65">
        <path class="st29" d="M291.2,325h0l-2.2-1.2h0c-.8-.3-1.7-.2-2.4.4-1.9,1.4-3.1,3.6-3.1,6s.4,1.7,1.1,2.1h0l2.2,1.3h0c.8.3,1.7.2,2.4-.4,1.9-1.4,3.1-3.6,3.1-6s-.3-1.7-1.1-2.2h0Z"/>
        <path class="st21" d="M286.8,333.5l-2.1-1.3h0c-.7-.5-1.1-1.3-1.1-2.1s.2-2.1.6-3l2.2,1.3c-.5.9-.7,2-.6,3,0,.8.4,1.6,1,2.1Z"/>
        <path class="st20" d="M289.2,333.1c1.9-1.4,3.1-3.6,3.1-6-.1-2.1-1.6-2.9-3.5-1.8-1.9,1.4-3.1,3.6-3.1,6,.1,2.1,1.7,2.9,3.5,1.8Z"/>
        <path class="st21" d="M287.7,333c-1.1,0-1.2-1.1-1.3-1.7,0-2.1,1.1-4.1,2.8-5.4.3-.2.7-.4,1.1-.4,1.1,0,1.2,1.1,1.3,1.7,0,2.1-1,4.1-2.8,5.4-.3.2-.7.4-1.1.4Z"/>
        <path class="st17" d="M289.2,326c.3-.2.6-.3,1-.4.2.4.3.7.3,1.1,0,2.1-1.1,4.1-2.8,5.4-.3.2-.6.3-1,.4-.2-.4-.3-.7-.3-1.1,0-2.1,1.1-4.1,2.8-5.4Z"/>
      </g>
      <path class="st29" d="M228.4,413.8l-3.2,1.9c-.4.2-.8.2-1.2,0l-1-.6c-.3-.2-.5-.6-.4-1l10.7-50.6c.1-.4.4-.8.7-1l3.2-1.9c.4-.2.8-.2,1.2,0l1,.6c.3.2.5.6.4,1l-10.7,50.6c-.1.4-.4.8-.7,1Z"/>
      <path class="st21" d="M228.4,413.8l-3.2,1.9c-.3.2-.5,0-.4-.3l10.7-50.6c.1-.4.4-.8.7-1l3.2-1.9c.3-.2.5,0,.4.3l-10.7,50.6c-.1.4-.4.8-.7,1Z"/>
      <polygon class="st20" points="226.6 410.6 227.6 406.1 229.7 404.8 250.1 416.5 251 422.2 248.8 423.4 226.6 410.6"/>
      <polygon class="st29" points="248.8 423.4 226.6 410.6 227.6 406.1 247.9 417.8 248.8 423.4"/>
      <path class="st20" d="M252.5,427.8l-3.2,1.9c-.4.2-.8.2-1.2,0l-1-.6c-.4-.2-.6-.6-.7-1l-10.7-63.3c0-.4.1-.8.5-1l3.2-1.9c.4-.2.8-.2,1.2,0l1,.6c.4.2.6.6.7,1l10.8,63.3c0,.4-.1.8-.5,1h-.1Z"/>
      <path class="st20" d="M235.6,364.8l.4,2.4,10.3,60.8c0,.4.3.8.7,1l1,.6c.4.2.8.2,1.2,0l3.2-1.9c.3-.2.5-.6.5-1l-10.7-63v-.2c0-.4-.3-.8-.7-1l-1-.6c-.4-.2-.8-.2-1.2,0l-3.2,1.9c-.4.2-.6.6-.5,1h0Z"/>
      <path class="st29" d="M242.2,363.5l10.8,63.3c0,.4-.1.8-.5,1l-3.2,1.9c-.2.1-.5.1-.6,0v-.2l-10.8-63.3c0-.4.1-.8.5-1l3.2-1.9c.2-.1.5-.1.6,0v.2Z"/>
      <path class="st6" d="M232.7,366l1.7,1c.5.3,1.1.4,1.7.2.2,0,.4-.1.6-.2l5.6-3.2v-.2c0-.4-.3-.8-.7-1l-1-.6c-.4-.2-.8-.2-1.2,0,0-.4.3-.5,0-.7l-1-.6c-.4-.2-.8-.2-1.2,0l-3.2,1.9c-.4.2-.6.6-.7,1l-.6,2.4h0Z"/>
      <path class="st20" d="M230.7,362c0-.3.2-.6.5-.7l6.4-3.7c.7-.4,1.6-.4,2.3,0l3.1,1.8c.3.1.5.4.5.7v1.5c0,.3-.2.6-.5.7l-6.4,3.8c-.7.4-1.6.4-2.3,0l-3.1-1.8c-.3-.1-.5-.4-.5-.7v-1.5h0Z"/>
      <path class="st21" d="M230.7,362c0-.3.2-.6.5-.7l4.3-2.5v7.4c-.4,0-.8,0-1.2-.3l-3.1-1.8c-.3-.1-.5-.4-.5-.7v-1.5h0Z"/>
      <path class="st29" d="M236.7,364.5l6.4-3.7c.6-.4.6-1,0-1.4l-3.1-1.8c-.7-.4-1.6-.4-2.3,0l-6.4,3.7c-.6.4-.6,1,0,1.4l3.1,1.8c.7.4,1.6.4,2.3,0Z"/>
      <g id="freepik--clock--inject-65">
        <path class="st29" d="M240.8,354.2h0l-2.2-1.3h0c-.8-.3-1.7-.2-2.4.4-1.9,1.4-3.1,3.6-3.1,6s.4,1.7,1.1,2.1h0l2.2,1.3h0c.8.3,1.7.2,2.4-.4,1.9-1.4,3.1-3.6,3.1-6s-.4-1.7-1.1-2.1Z"/>
        <path class="st21" d="M236.4,362.6l-2.1-1.2h0c-.7-.5-1.1-1.3-1.1-2.1s.2-2.1.6-3l2.2,1.3c-.4.9-.7,2-.6,3,0,.8.3,1.6,1,2.1h0Z"/>
        <path class="st20" d="M238.8,362.3c1.9-1.4,3.1-3.6,3.1-6-.1-2.1-1.6-2.9-3.4-1.8-1.9,1.4-3.1,3.6-3.1,6,.1,2.1,1.7,2.9,3.4,1.8Z"/>
        <path class="st21" d="M237.2,362.1c-1.1,0-1.2-1.1-1.3-1.7,0-2.1,1.1-4.1,2.8-5.4.3-.2.7-.4,1.1-.4,1.1,0,1.2,1.1,1.3,1.7,0,2.1-1.1,4.1-2.8,5.4-.3.2-.7.4-1.1.4h0Z"/>
        <path class="st17" d="M238.8,355.1c.3-.2.6-.3,1-.4.2.3.3.7.3,1.1,0,2.1-1,4.1-2.8,5.4-.3.2-.6.4-1,.4-.2-.4-.3-.7-.3-1.1,0-2.1,1.1-4.1,2.8-5.4Z"/>
      </g>
      <polygon class="st17" points="233.3 373 301.4 333.7 300.2 333.1 232.2 372.3 233.3 373"/>
      <polygon class="st15" points="233.1 373.1 301.1 333.8 300 333.2 232 372.4 233.1 373.1"/>
      <polygon class="st17" points="233.3 373 236.6 392.6 304.6 353.3 301.4 333.7 233.3 373"/>
      <polygon class="st0" points="232.2 372.3 235.5 392 236.6 392.6 233.3 373 232.2 372.3"/>
      <polygon class="st17" points="232.9 376.4 234.8 387.3 235.9 387.9 234 377 232.9 376.4"/>
      <polyline class="st6" points="232.7 376.4 234.6 387.3 235.7 387.9 233.8 377"/>
      <polygon class="st18" points="239.6 369.4 236.6 392.6 233.3 373 239.6 369.4"/>
      <polygon class="st18" points="298.4 356.9 301.4 333.7 304.6 353.3 298.4 356.9"/>
      <polygon class="st18" points="248.1 386 251 362.8 244.2 366.7 241.3 389.9 248.1 386"/>
      <polygon class="st18" points="259.5 379.4 262.4 356.2 255.7 360.1 252.7 383.3 259.5 379.4"/>
      <polygon class="st18" points="270.9 372.8 273.8 349.6 267.1 353.5 264.1 376.7 270.9 372.8"/>
      <polygon class="st18" points="282.3 366.2 285.3 343 278.5 346.9 275.6 370.1 282.3 366.2"/>
      <polygon class="st18" points="293.7 359.6 296.7 336.4 289.9 340.3 287 363.5 293.7 359.6"/>
      <polygon class="st24" points="244.2 366.7 243.1 366 249.9 362.1 251 362.8 244.2 366.7"/>
      <polygon class="st24" points="255.7 360.1 254.6 359.4 261.3 355.5 262.4 356.2 255.7 360.1"/>
      <polygon class="st24" points="267.1 353.5 266 352.8 272.7 348.9 273.8 349.6 267.1 353.5"/>
      <polygon class="st24" points="278.5 346.9 277.4 346.2 284.2 342.4 285.3 343 278.5 346.9"/>
      <polygon class="st24" points="289.9 340.3 288.8 339.6 295.6 335.8 296.7 336.4 289.9 340.3"/>
      <polygon class="st24" points="233.3 373 232.2 372.3 238.5 368.7 239.6 369.4 233.3 373"/>
      <polygon class="st17" points="234 377 235.9 387.9 303.9 348.6 302 337.8 234 377"/>
      <path class="st29" d="M238.7,383.6c-.4-.3-.7-.8-.7-1.3l-.8-4.7c0-.2,0-.4.4-.6l.3-.2c.3-.2.4-.1.5,0l.7,4.6c0,.2.1.4.3.6.1.1.3.1.5,0s.3-.3.4-.5c0-.2.1-.5,0-.8l-.7-4.6c0-.2,0-.4.4-.6l.3-.2c.3-.2.4-.1.5,0l.8,4.7c.1.6,0,1.3-.2,1.9s-.7,1-1.2,1.3c-.4.3-.9.4-1.4.2v.2Z"/>
      <path class="st29" d="M242.5,381.6l-1-6.5c0-.2,0-.4.4-.6h.2c0-.2.2-.2.2-.2,0,0,.1,0,.2.1l1.8,2.6c.1.2.3.4.4.6h0c0-.3-.1-.5-.2-.8l-.5-3.2c0-.2,0-.4.4-.6h.2c.3-.3.4-.2.5,0l1,6.5c0,.2,0,.4-.4.6h-.1c0,.1-.2.2-.2.2,0,0-.1,0-.2-.1l-1.9-2.6c-.1-.2-.2-.4-.3-.5h0c0,.3.1.5.2.7l.5,3.3c0,.2,0,.4-.4.6h-.2c-.3.2-.4.2-.5,0h0Z"/>
      <path class="st29" d="M246.8,379.4s-.1-.2-.1-.3l-1-6.3v-.4s.1-.2.2-.2l1.4-.8c.5-.4,1.1-.3,1.5,0,.5.7.8,1.6.9,2.4.2,1,.2,2,0,2.9-.2.7-.6,1.3-1.2,1.7l-1.4.8h-.2v.2ZM248.2,377.2c.3-.2.4-.5.5-.8,0-.6,0-1.2-.1-1.8,0-.6-.2-1.1-.4-1.6,0-.2-.3-.3-.5-.2h-.1l-.5.2.7,4.5.5-.2h0Z"/>
      <path class="st29" d="M251,377s-.1-.2-.1-.3l-1-6.3v-.4s0-.2.2-.2l2.1-1.2h.2c0,.1.1.2.1.4v.7s0,.2-.1.2l-1.3.7.2,1.5,1.1-.6h.2c0,.1,0,.2.1.4v.7s0,.2-.1.2l-1.1.6.3,1.6,1.3-.7h.2c0,.1,0,.2.1.4v.7s0,.2-.1.2l-2.1,1.2q0,.1-.1.1h0Z"/>
      <path class="st29" d="M254.2,374.9l-1-6.4v-.4s.1-.2.2-.2l1.2-.7c.3-.2.8-.3,1.1-.1.3.1.5.6.7,1.3.1.7,0,1.5-.4,2.1h0c.1,0,.3.1.4.2s.2.3.3.5l.7,1.7h0c0,.3-.1.5-.4.6h-.3c-.2.3-.4.3-.5.1l-.7-1.7s-.1-.2-.2-.2h-.5c0,.1.4,2.4.4,2.4,0,.2,0,.4-.4.6h-.2c-.2.3-.4.3-.4,0v.2ZM255.1,370.2c.1,0,.2-.2.2-.4v-.7c0-.2,0-.4-.2-.5h-.3l-.4.2.3,1.7.4-.3h0Z"/>
      <path class="st29" d="M259.1,371.5c-.5-.7-.8-1.6-.9-2.5-.2-1-.2-2,0-3,.2-.7.7-1.4,1.3-1.8.2-.1.4-.2.6-.2s.3,0,.3.3v.7c0,.2-.1.4-.2.4-.2,0-.3,0-.5.2-.3.2-.5.6-.6.9v1.8c0,.6.2,1.1.5,1.6.1.3.5.3.7.2h0s.2,0,.2-.2c0,0,.2-.1.2-.2h0c.1,0,.2,0,.3.1,0,.2.2.4.2.6v.3s0,.2-.1.3c0,.1-.2.2-.3.3s-.3.2-.4.3c-.7.4-1.2.3-1.5,0h.2Z"/>
      <path class="st29" d="M261.4,367.2c-.4-2.4,0-4,1.3-4.7.5-.4,1.1-.3,1.5,0,.5.7.9,1.6.9,2.5.2,1,.2,2,0,3-.2.7-.6,1.3-1.3,1.7-1.3.8-2.1,0-2.5-2.5h.1ZM264,368c0-.3.1-.6.1-.8,0-.5,0-1-.1-1.5,0-.5-.2-.9-.3-1.3,0-.2-.2-.4-.4-.6h-.5c-.2.1-.3.3-.4.5-.1.3-.1.6-.1.9,0,.5,0,1,.1,1.4,0,.5.2.9.3,1.4,0,.2.2.4.4.6h.5c.2-.1.3-.3.4-.5h0Z"/>
      <path class="st29" d="M266.3,367.9l-1-6.5c0-.2,0-.4.4-.6h.2c0-.2.2-.2.2-.2,0,0,.2,0,.2.1l1.8,2.6c.1.1.2.4.4.6h0c0-.3-.1-.5-.2-.8l-.5-3.2c0-.2,0-.4.4-.6h.2c.3-.3.4-.2.5,0l1,6.5c0,.2,0,.4-.4.6h-.1c0,.1-.2.2-.2.2,0,0-.2,0-.2-.1l-1.9-2.7c-.1-.2-.2-.4-.3-.5h0c0,.3.1.5.2.7l.5,3.3c0,.2,0,.4-.4.6h-.2c-.3.2-.4.2-.5,0h-.1Z"/>
      <path class="st29" d="M271,365.4c-.2,0-.4,0-.6-.1,0,0-.1-.2-.1-.3v-.6c0-.2.1-.4.2-.4h.9c.2,0,.3-.2.4-.4,0-.2.1-.4,0-.6,0-.1,0-.3-.2-.4,0,0-.2-.2-.3-.2s-.3,0-.4-.1c-.4,0-.7-.2-.9-.5-.3-.3-.4-.7-.5-1.2,0-.6,0-1.1.2-1.7.2-.5.5-.9,1-1.2.2,0,.3-.2.5-.2h.5c.1,0,.2.2.2.3v.6c0,.2,0,.4-.2.4h-.2c-.2,0-.3,0-.5.1-.2,0-.3.2-.4.4v.5c0,.2,0,.4.2.5.2,0,.3.2.5.2h.2c.3,0,.6.2.9.5.2.3.4.7.4,1.1v1.1c0,.4-.2.8-.4,1.1-.2.3-.5.6-.8.8-.2.2-.5.3-.7.4h0Z"/>
      <path class="st29" d="M274.4,363.2l-.9-5.5-.8.5h-.2c0-.1,0-.2-.1-.4v-.7s0-.2.1-.2l2.7-1.6h.2c0,.1.1.2.1.4v.7s0,.2-.1.2l-.8.5.9,5.5c0,.2,0,.4-.4.6l-.3.2c-.3.2-.4.1-.5,0v-.2Z"/>
      <path class="st29" d="M277,361.7l-1-6.4v-.4s.1-.2.2-.2l1.2-.7c.3-.2.8-.3,1.1-.1.3.1.5.6.6,1.3.1.7,0,1.5-.4,2.1h0c.1,0,.3.1.4.2s.2.3.3.5l.7,1.7h0c0,.3-.1.5-.4.6h-.2c-.2.3-.4.3-.5.1l-.7-1.7s-.1-.2-.2-.2h-.5c0,.1.4,2.4.4,2.4,0,.2,0,.4-.4.6h-.2c-.3.4-.5.3-.5,0v.2ZM277.9,357.1c.1,0,.2-.2.2-.4v-.7c0-.2,0-.4-.2-.6h-.3l-.4.2.3,1.7.4-.3h0Z"/>
      <path class="st29" d="M281.1,359.2c-.4-.3-.7-.8-.7-1.3l-.8-4.7c0-.2,0-.4.4-.6l.3-.2c.3-.2.4-.1.5,0l.7,4.6c0,.2.1.4.3.6.1.1.3.1.5,0s.3-.3.4-.5c0-.2.1-.5,0-.8l-.7-4.6c0-.2,0-.4.4-.6l.3-.2c.3-.2.4-.1.5,0l.8,4.7c.1.6,0,1.3-.2,1.9-.2.5-.7,1-1.2,1.3-.4.3-.9.4-1.4.2v.2Z"/>
      <path class="st29" d="M285.1,356.5c-.5-.7-.8-1.6-.9-2.5-.2-1-.2-2,0-3,.2-.7.7-1.4,1.3-1.8.2-.1.4-.2.6-.2s.3,0,.3.3v.8c0,.2-.1.4-.2.4-.5,0-1,.5-1,1.1v1.8c0,.6.2,1.1.5,1.6.1.3.4.4.7.2h0s.2,0,.2-.1l.2-.2h.3c0,.2.2.4.2.6v.3s0,.2-.1.3l-.3.3c-.1.1-.3.2-.4.3-.7.4-1.2.4-1.6,0l.2-.2Z"/>
      <path class="st29" d="M288.8,354.9l-.8-5.5-.8.5h-.2c0-.1,0-.2-.1-.4v-.7s0-.2.1-.2l2.7-1.6h.2c0,.1,0,.2.1.4v.7s0,.2-.1.2l-.8.5.9,5.5c0,.2,0,.4-.4.6l-.3.2c-.3.1-.4.1-.5-.1h0Z"/>
      <path class="st29" d="M291.4,353.4l-1-6.5c0-.2,0-.4.4-.6l.3-.2c.3-.2.4-.1.5.1l1,6.5c0,.2,0,.4-.4.6l-.3.2c-.3.2-.4.1-.5-.1Z"/>
      <path class="st29" d="M292.7,349.1c-.4-2.4,0-4,1.3-4.7.5-.4,1.1-.3,1.5,0,.5.7.9,1.6.9,2.5.2,1,.2,2,0,3-.2.7-.6,1.3-1.3,1.7-1.3.8-2.1-.1-2.5-2.5h.1ZM295.3,349.9c0-.3.1-.6.1-.9,0-.5,0-1-.1-1.4,0-.5-.2-.9-.3-1.3,0-.2-.2-.4-.4-.6h-.5c-.2.1-.3.3-.4.5,0,.3-.1.6-.1.8,0,.5,0,1,.1,1.4,0,.5.2.9.3,1.3,0,.2.2.4.4.6h.5c.2-.1.3-.3.4-.4Z"/>
      <path class="st29" d="M297.6,349.8l-1-6.5c0-.2,0-.4.4-.6h.2c0-.2.2-.2.2-.2,0,0,.1,0,.2.1l1.8,2.6c.1.2.3.4.4.6h0c0-.3-.1-.5-.2-.8l-.5-3.2c0-.2,0-.4.4-.6h.2c.3-.3.4-.2.5,0l1,6.5c0,.2,0,.4-.4.6h-.1c0,.1-.2.2-.2.2,0,0-.1,0-.2-.1l-1.9-2.7c-.1-.2-.2-.4-.3-.5h0c0,.3.1.5.2.7l.5,3.3c0,.2,0,.4-.4.6h-.2c-.3.2-.4.2-.5,0h-.1Z"/>
    </g>
  </g>
  <g id="freepik--Character--inject-65">
    <g id="freepik--character--inject-65">
      <path class="st17" d="M205.7,252.2l-27.7,75.4h0c0,.2-.3.4-.5.5-.8.4-1.7.4-2.5,0-.3-.1-.4-.3-.5-.6v-.2c0-.2,0-.4.1-.5l27.8-75.9c.3-.9,1.4-1.4,2.3-1.1h0c.9.4,1.4,1.4,1,2.3h0Z"/>
      <path class="st4" d="M205.7,252.2l-27.7,75.4h0c0,.2-.3.4-.5.5-.8.4-1.7.4-2.5,0-.3-.1-.4-.3-.5-.6v-.2c0-.2,0-.4.1-.5l27.8-75.9c.3-.9,1.4-1.4,2.3-1.1h0c.9.4,1.4,1.4,1,2.3h0Z"/>
      <rect class="st17" x="180.5" y="294.7" width="4" height="32.1" transform="translate(-177.9 313.4) rotate(-60)"/>
      <rect class="st5" x="180.3" y="294.6" width="4" height="32.1" transform="translate(-177.9 313.2) rotate(-60)"/>
      <rect class="st22" x="200.7" y="283.1" width="4" height="32.1" transform="translate(-157.7 325.1) rotate(-60)"/>
      <rect class="st5" x="200.7" y="283.1" width="4" height="32.1" transform="translate(-157.7 325.1) rotate(-60)"/>
      <path class="st17" d="M183.1,247l14.8-8.6c1.1-.7,2.5-.8,3.7-.3,1.2.6,2,1.7,2.3,3l24.6,115.1v.4c0,.3-.3.5-.5.6-.8.4-1.7.4-2.5,0-.2-.1-.4-.3-.5-.5h0c0-.1-24.6-115-24.6-115,0-.2-.1-.4-.2-.4-.2,0-.3,0-.5.1l-14.8,8.6"/>
      <path class="st3" d="M182.8,247l14.8-8.6c1.1-.7,2.5-.8,3.7-.3,1.2.6,2,1.7,2.3,3l24.6,115.1v.4c0,.3-.3.5-.5.6-.8.4-1.7.4-2.5,0-.2-.1-.4-.3-.5-.5h0c0-.1-24.6-115-24.6-115,0-.2-.1-.4-.2-.4-.2,0-.3,0-.5.1l-14.8,8.6"/>
      <path class="st17" d="M195.5,302.1l-9-5.2c-.3-.2-.5-.6-.5-.9v-.2c0-.4.2-.7.5-.9l21.7-12.5c.3-.2.7-.2,1.1,0l9,5.2c.3.2.5.6.5.9v.2c0,.4-.2.7-.5.9l-21.7,12.5c-.3.2-.7.2-1.1,0Z"/>
      <path class="st6" d="M196,300.9v1.3c.2,0,.4,0,.5-.1l10.8-6.3,10.8-6.2c.3-.2.5-.6.5-.9v-.2c0-.2,0-.4-.2-.5l-22.6,13h.2Z"/>
      <path class="st2" d="M186.1,295.2c0,.2-.1.3-.1.5v.2c0,.4.2.7.5.9l9,5.2c.2,0,.4.1.5.1v-1.3l-9.9-5.8v.2Z"/>
      <path class="st17" d="M191.6,283.8l-15-8.7c-.3-.2-.5-.6-.5-.9v-.2c0-.4.2-.7.5-.9l21.7-12.5c.3-.2.7-.2,1.1,0l15,8.7c.3.2.5.6.5.9v.2c0,.4-.2.7-.5.9l-21.7,12.5c-.3.2-.7.1-1.1,0Z"/>
      <path class="st6" d="M192.1,282.6v1.3c.2,0,.4,0,.5-.1l10.8-6.2,10.8-6.3c.3-.2.5-.6.5-.9v-.2c0-.2,0-.4-.2-.5l-22.6,13h.2Z"/>
      <path class="st2" d="M176.2,273.4c0,.2-.1.3-.1.5v.2c0,.4.2.7.5.9l15,8.7c.2,0,.4.1.5.1v-1.3l-15.9-9.2h0Z"/>
      <path class="st17" d="M207.2,357l-9-5.2c-.3-.2-.5-.6-.5-.9v-.2c0-.4.2-.7.5-.9l21.7-12.5c.3-.2.7-.2,1.1,0l9,5.2c.3.2.5.6.5.9v.2c0,.4-.2.7-.5.9l-21.7,12.5c-.3.2-.7.2-1.1,0Z"/>
      <path class="st2" d="M197.8,350.1c0,.2-.2.3-.2.5v.2c0,.4.2.7.5.9l9,5.2c.2,0,.4.1.5.1v-1.3l-9.9-5.8v.2Z"/>
      <path class="st6" d="M207.8,355.9v1.3c.2,0,.4,0,.5-.1l10.8-6.2,10.9-6.2c.3-.2.5-.6.5-.9v-.2c0-.2,0-.4-.2-.5l-22.6,13v-.2Z"/>
      <path class="st17" d="M203.3,338.7l-9-5.2c-.3-.2-.5-.6-.5-.9v-.2c0-.4.2-.7.5-.9l21.7-12.5c.3-.2.7-.2,1.1,0l9,5.2c.3.2.5.6.5.9v.2c0,.4-.2.7-.5.9l-21.7,12.5c-.3.2-.7.2-1.1,0Z"/>
      <path class="st2" d="M193.9,331.8c0,.2-.1.3-.1.5v.2c0,.4.2.7.5.9l9,5.2c.2,0,.4.1.5.1v-1.3l-9.9-5.7h0Z"/>
      <path class="st6" d="M203.9,337.5v1.3c.2,0,.4,0,.5-.1l10.8-6.3,10.8-6.2c.3-.2.5-.6.5-.9v-.3c0-.2,0-.4-.2-.5l-22.6,13.1h.2Z"/>
      <path class="st17" d="M199.4,320.4l-9-5.2c-.3-.2-.5-.6-.5-.9v-.3c0-.4.2-.7.5-.9l21.6-12.5c.3-.2.7-.2,1.1,0l9,5.2c.3.2.5.6.5.9v.3c0,.4-.2.7-.5.9l-21.7,12.5c-.3.1-.7.1-1,0h0Z"/>
      <path class="st2" d="M190,313.5c0,.2-.2.3-.2.5v.2c0,.4.2.7.5.9l4.5,2.6,4.5,2.6c.2,0,.4.1.5.1v-1.3l-9.9-5.7h0Z"/>
      <path class="st6" d="M200,319.2v1.3c.2,0,.4,0,.5-.1l10.8-6.2,10.8-6.3c.3-.2.5-.6.5-.9v-.2c0-.2,0-.4-.2-.5l-22.6,13h.2Z"/>
      <path class="st28" d="M222.4,310.7l-.8-8-6.8.4s2.3,8.7,2.7,9.5c1.2.2,4.9-1.9,4.9-1.9h0Z"/>
      <path class="st29" d="M224.5,313.5v.9c0,1-.1,2.1-.2,3.1,0,.4,0,.8-.2,1.2v3.7c0,.2-3.2,2.1-4.6,2.9h-.2c-.8.4-1.6.2-2.2-.4-.6-1.4-.2-3,.9-4.1,0,0,.2,0,.1-1.3,0-.9,0-1.9-.1-2.8,0-.7-.2-1.4-.4-2s-.2-1.3-.4-2.3v-.7c0-.1.2-.3.3-.4,1.2-1,2.7-1.6,4.3-1.6s.4,0,.5.1.2.2.2.4c0,.4.2.8.3,1.1.2.2.4.5.6.6.4.3.8.8,1,1.3v.2h0Z"/>
      <path class="st21" d="M225.2,313.8c.6.2.5,1.9.1,3.5-.4,1.1-.5,2.3-.4,3.5.2,1.4.3,2-.2,2.5-1.6,1-3.2,1.8-4.9,2.6.6-1.6.9-3.4.9-5.1,0-3,.2-4.9,1.6-6.3.7-.8,1.8-1.1,2.8-.8h0Z"/>
      <path class="st20" d="M214.2,323.4c1.1.8,2.3,1.3,3.7,1.5,2,.2,2-.5,2.2-2.9s.2-5.5,1.1-7c.6-1.1,1.7-1.8,3-1.9.1,0,.7.4.9.6-1,0-1.9.3-2.6,1-1.2,1.2-1.4,3.7-1.4,6s0,5-1.9,5.2c-1.8.2-3.6-.3-5-1.5-.3-.3-.4-.9,0-1.2v.2Z"/>
      <path class="st24" d="M218,320.9c-.2.2-.3.4-.4.6h0c-.6,1-.7,2.2-.4,3.4-2.3-.2-3-1.5-3-1.5,0-.8.5-1.6,1.2-2,.2-.1.3-.2.5-.3h0c.6-.3,1.4-.4,2.1-.3h0Z"/>
      <path class="st24" d="M218.1,320c-.1,0-.2.3-.3.4,0,.5.2,1,.7,1.2.2.1.5,0,0-.4-.2-.2-.3-.3-.4-.5v-.7Z"/>
      <path class="st24" d="M218.1,318.4c0,.1-.2.2-.2.4,0,.5.4,1,.8,1.3.4.2.2-.2,0-.5-.2-.2-.3-.5-.4-.7,0-.1-.1-.3-.2-.5h0Z"/>
      <path class="st24" d="M218,316.6c0,.1-.1.3-.1.4.3.3.6.6,1,.7.2,0,.3-.1,0-.3-.2-.1-.4-.3-.6-.4-.1-.1-.2-.2-.3-.4h0Z"/>
      <path class="st20" d="M222.1,305.8c-2.2-.2-4.4.4-6.3,1.7,0,0-.6-1.7-3.7-12.6-1.1-4-1.9-7.5-2.6-10.1-.6-2-1-4-1.2-6.1-.6-6.9-.7-27.2-1-29.8l14.4-4.4c1,4.1,1,8.4,0,12.5-1.2,8.5-2.3,17.7-2.6,22.3,1,2.2,1.6,4.6,1.9,7,.4,2.8,1.1,19.6,1.1,19.6h0Z"/>
      <path class="st20" d="M191.1,312.8c-.3,0-.1.9,0,1.3s.6,1.2,2.5,1.8,3.7.2,5,.5,3.3,1.6,4.5,1.9c1.4.3,2.8.2,4.1-.4.3-.2,1-.6,1-1v-.8l-17.1-3.4h0Z"/>
      <path class="st29" d="M208.1,316.1c-.5.6-1.2,1-1.9,1.2-1.1.3-2.3.3-3.4,0-.7-.2-1.4-.5-2-.9-.7-.3-1.4-.6-2.2-.8-1.3-.2-2.6-.4-3.9-.4s-1.7-.4-2.4-.9c-.5-.6-.8-1.4-.7-2.2v-.6c0-.2.2-.2.4-.3.4-.2.8-.6,1.2-.8.6-.3,2.8-1,3.8-.7h.5c.4.2,1.9.3,2.2.4.4,0,.8,0,1.1-.3.3-.2.4-.5.8-.7.3-.1.7-.1,1.1,0,.6.2,1.2.2,1.8,0,.7-.3,1.3-.9,2-1.2.2-.1.5,0,.7.1.2.2.2.5.2.8,0,.9,0,1.8.2,2.7.2,1.3.9,2.7.5,4.4v.2Z"/>
      <path class="st24" d="M198.4,309.9c-.5,0-.9.2-1.1.6l-.3.6c-.1.3-.2.6-.1.9,0,0,0,.1.2.1,0,0,.1,0,.1-.1,0-.4.2-.8.4-1.2,0-.2.2-.3.3-.4s.3-.2.5-.2h.3s0-.1-.1-.2h-.2,0Z"/>
      <path class="st24" d="M199.6,310.1c-.2,0-.4,0-.6.1-.2.1-.3.4-.4.6-.1.3-.2.6-.3.9,0,.1,0,.8.2.7,0,0,.1,0,.1-.1v-.2c0-.3.1-.6.2-.9.1-.3.4-.8.8-.8h.1s0-.1-.1-.1h0v-.2Z"/>
      <path class="st24" d="M200.7,309.8c-.2,0-.3.1-.4.2-.1.1-.2.3-.3.5-.1.3-.2.6-.2.9s0,.5.1.7c0,0,.1.2.2.1s.1-.2.1-.3v-.5c0-.6.3-1.2.7-1.6h0q0-.1-.1-.1h-.2,0Z"/>
      <path class="st24" d="M197.1,309.9c-.5,0-1.6.4-2.3,1.8-.5,1.1-.7,2.3-.8,3.6-.9-.1-1.8-.6-2.4-1.4-.3-.3-.5-.8-.6-1.2,0-.8.3-1.5.8-2,.8-.7,1.6-1.1,3.7-1.1s2,.5,2,.5h-.5v-.2Z"/>
      <path class="st28" d="M206.6,303.2s.2,4.3.4,5.4c.1.6-.4,1.3-2.3,1.9-1.4.4-2.8,0-2.8-.4l-.9-4.1,5.6-2.8Z"/>
      <path class="st29" d="M222.1,245.4l-23.2,2.4s-5,30.3-5.2,33.6c0,2.4,7,25.1,7,25.1,0,0,4.4.6,6.2-1.6-.2-3.1-.5-10.8-.8-13.6-.2-3.6-.9-7.2-2-10.7,0,0,5.4-15.7,7.6-22.7,10.4-4,10.3-12.6,10.3-12.6h0Z"/>
      <polygon class="st28" points="205.2 208.7 206.1 216.9 215 215.7 214 206.7 205.2 208.7"/>
      <path class="st28" d="M217.5,211.4c2.5-.3,4.7.2,6,2.6s3,11.1,3.6,15c.6,3.7.9,4.4-1.1,5.7-1.3.9-6.8,3.7-6.8,3.7l-1.7-27Z"/>
      <path class="st17" d="M216.5,211.2c2.7-.3,4.8-.2,5.8.7s2.1,1.9,2.8,5.5,1.7,8.7,1.7,8.7c0,0-2,4.2-9.3,3.6l-1.1-18.6h.1Z"/>
      <path class="st1" d="M216.5,211.2c2.7-.3,4.8-.2,5.8.7s2.1,1.9,2.8,5.5,1.7,8.7,1.7,8.7c0,0-2,4.2-9.3,3.6l-1.1-18.6h.1Z"/>
      <path class="st17" d="M221.9,215.4c-.8-2.7-3.3-4.4-6.1-4.1,0,0-.6,0-1.2.2-.3,1.4-6.2,2.9-8.9,1.6-1.1.3-3.8.8-4.7,1.1-2.5.8-3.6,3.3-4,11.6,0,0,1.6,18.8,1.6,24.1,4.9,1.3,10,1.4,14.9.3,7.5-1.7,8.5-4.6,8.5-4.6l-.7-8.6s1.5-16.4.6-21.4v-.2Z"/>
      <path class="st12" d="M221.9,215.4c-.8-2.7-3.3-4.4-6.1-4.1,0,0-.6,0-1.2.2-.3,1.4-6.2,2.9-8.9,1.6-1.1.3-3.8.8-4.7,1.1-2.5.8-3.6,3.3-4,11.6,0,0,1.6,18.8,1.6,24.1,4.9,1.3,10,1.4,14.9.3,7.5-1.7,8.5-4.6,8.5-4.6l-.7-8.6s1.5-16.4.6-21.4v-.2Z"/>
      <path class="st23" d="M169.8,208.6c.9,0,1.7.8,1.9,1.7,0,.7-1.5,1.2-1.5,1.2l-.5-2.9h.1Z"/>
      <g id="freepik--Brush--inject-65">
        <path class="st29" d="M166.1,204l1.8,10.6c0,.2.3.4.5.5.7.2,1.4,0,2-.3.2-.1.3-.4.3-.6l-1.8-10.6-2.8.5h0Z"/>
        <polygon class="st6" points="169.4 206.2 166.9 208.3 166.1 204 168.9 203.5 169.4 206.2"/>
        <path class="st20" d="M168.9,194.8l.4,2.1,1.7-1.4.8,4.4c.2,1.5-.4,3-1.5,4l-3,2.4c-.4.4-.9.5-1.4.4,0,0-1.8-.6-2.2-.8-.5-.2-.8-.7-.8-1.2l-.8-4.4,6.8-5.6h0Z"/>
        <path class="st29" d="M167.3,206.4l3-2.4c1.1-1,1.6-2.5,1.5-4l-.8-4.4-6.7,5.6.8,4.4c0,.7.6,1.3,1.3,1.3s.7-.2.9-.4h0Z"/>
        <polygon class="st26" points="164.2 201.1 170.9 195.6 169.8 189.1 163.1 194.7 164.2 201.1"/>
        <polygon class="st18" points="164.2 201.1 163.1 194.7 161.1 193.9 162.1 200.4 164.2 201.1"/>
        <polygon class="st24" points="164.5 203.1 171.2 197.5 171.4 198.4 164.7 204 164.5 203.1"/>
        <polygon class="st16" points="164.5 203.1 162.5 202.3 162.6 203.2 164.7 204 164.5 203.1"/>
        <path class="st22" d="M161.4,195.9s.9,1.4,2.1,1.3l-.4-2.5-2-.8.3,2h0Z"/>
        <path class="st17" d="M161.4,195.9s.9,1.4,2.1,1.3l-.4-2.5-2-.8.3,2h0Z"/>
        <path class="st17" d="M163.5,197.2c.9.2,1.8,0,2.5-.7s.7-3.2,2.4-3.5c.8,0,1.7.3,2.2.9l-.8-4.7-6.7,5.6.4,2.5h0Z"/>
        <polygon class="st22" points="169.8 189.1 167.8 188.4 161.1 193.9 163.1 194.7 169.8 189.1"/>
        <polygon class="st12" points="169.8 189.1 167.8 188.4 161.1 193.9 163.1 194.7 169.8 189.1"/>
      </g>
      <path class="st28" d="M201.2,214.1c-1.7.4-1.9-.1-6.5,2.6-4.2,2.6-11.6,6.8-14.4,8.4-2.8-2.6-5.2-5.6-7.2-8.9-.3-.6-.4-1.3-.4-2,.2-1.7-.2-1.9-.3-3.4,0-1.2.3-1.9,0-2-.7-.2-1.4.1-1.7.8-.3.6-.4,1.2-.5,1.9,0,0-2.6,2.3-2.8,0l-.5-2.9c-1.3,0-2.4.8-2.6,2-.3,1.5-.5,4.8.6,7,.5,1,2.8,1.9,4.1,2.7,1.4.9,5.7,10.1,8.3,11.9,1.6,1.1,2.7.9,4.8.2,4.7-1.6,16.1-7.3,16.1-7.3,0,0,4.8-2.9,3-10.9h0Z"/>
      <path class="st17" d="M201.6,214c-3.7,0-5.8,1.9-9.9,4.2l-5.8,3.4s-1.1,5.6,3.2,8.2l9.8-4.6c2.7-1.8,4.7-6.7,2.7-11.2h0Z"/>
      <path class="st1" d="M201.6,214.1c-3.7,0-5.8,1.9-9.9,4.2l-5.8,3.4s-1.1,5.6,3.2,8.2l9.8-4.6c2.7-1.8,4.7-6.7,2.7-11.2h0Z"/>
      <path class="st23" d="M199.5,198s-2,3.9-1.8,4.2c.5.3,1.1.6,1.7.8v-5h.1Z"/>
      <path class="st21" d="M200.4,200.4c-1.3,0-2.3-1.1-2.2-2.4,0-1.3,1.1-2.3,2.4-2.2,1.3,0,2.2,1.1,2.2,2.3s-1.1,2.3-2.4,2.3h0ZM200.4,196.3c-1,0-1.8.9-1.8,1.9s.9,1.8,1.9,1.8,1.8-.8,1.8-1.8-.8-1.8-1.8-1.8h0Z"/>
      <path class="st28" d="M205.1,190.4c-4.1.8-5.2,2.6-5.6,8.8-.4,6.6.1,8,1,8.8.6.6,3.2.9,4.8.8,5.7-.3,7.9-2.1,10.1-5.4,2.6-3.9,3.3-9.1.5-11.3-3.9-3-9.1-2.2-10.7-1.8h-.1Z"/>
      <path class="st23" d="M200.4,208c.6.6,3.2.9,4.8.8v-.9c-1.7.2-3.2.2-4.8.1h0Z"/>
      <polygon class="st21" points="198.3 197.6 205.5 198.6 205.2 199.1 198.3 198.2 198.3 197.6"/>
      <path class="st21" d="M199.5,192.4c.2.1.4.2.6.3-.3,1.3.5,2.5,1.8,2.8h1c-.2.5-.1,1,.1,1.4.2.4.7.7,1.1.8-.1,0,0,1.1,0,1.2,0,.4.3.7.7.8,0,0,.6-2.4,2.7-2.1s2.4,2.9,1.1,4.5-2.6,1-2.6,1c.1,0,.2.8.2,1,.1.6.3,1.2.5,1.7.3,1,1.1,1.8,2.1,2.2.8.3,4.2,0,5-.9,1.2-3.1,3-4.3,4.4-7,.7-1.3,1.2-2.7,1.4-4.1.3-1.5-.3-3-1.6-3.9.6-.7.5-1.9-.2-2.5-.4-.4-1-.5-1.5-.4.2-1.2-.3-2.3-1.3-2.9-.6-.4-1.4-.5-2.1-.3-.2,0-1.7.7-1.7.9-.3-1.4-1.7-2.3-3.1-2-.9.2-1.7.9-1.9,1.8-.6-.9-1.5-1.5-2.6-1.8-.9-.3-1.9,0-2.6.6-.7.8-.8,2-.3,2.9-.7-.1-1.4.2-1.9.7-.4.5-.6,1.2-.5,1.8,0,.6.4,1.2.9,1.5h.3Z"/>
      <path class="st21" d="M204.9,201v-2.7c-.7,0-1.3.6-1.3,1.3s.6,1.4,1.3,1.4Z"/>
      <path class="st17" d="M185.4,263.8l-27.7,75.3h0v.2c-.2.2-.3.3-.5.4-.8.4-1.7.4-2.5,0-.3-.1-.4-.3-.5-.6v-.2c0-.2,0-.4.1-.5l27.8-75.9c.3-.9,1.4-1.4,2.3-1.1s1.4,1.4,1.1,2.3h-.1Z"/>
      <path class="st4" d="M185.4,263.7l-27.7,75.3h0v.2c-.2.2-.3.3-.5.4-.8.4-1.7.4-2.5,0-.3-.1-.4-.3-.5-.6v-.2c0-.2,0-.4.1-.5l27.8-75.9c.3-.9,1.4-1.4,2.3-1.1s1.4,1.4,1.1,2.3h-.1Z"/>
      <path class="st17" d="M184.8,250.1c-.9.6-1.3,1.6-1.2,2.7l24.6,115.1v.5c0,.3-.3.5-.5.6-.8.4-1.7.4-2.5,0-.2-.1-.4-.3-.5-.5h0c0-.1-24.6-114.9-24.6-114.9-.5-2.6.7-5.1,2.9-6.5"/>
      <path class="st3" d="M208.3,367.9l-24.6-115.1c-.1-1,.3-2.1,1.2-2.7l-1.8-3.1c-2.2,1.4-3.4,4-2.9,6.5l24.6,114.8h0c.1.4.3.5.5.7.8.4,1.7.4,2.5,0,.2-.1.4-.4.5-.6v-.5Z"/>
    </g>
  </g>
  <g id="freepik--Sign--inject-65">
    <g id="freepik--Signal--inject-65">
      <path class="st29" d="M83.3,292.7c0-.3.2-.6.5-.7.7-.4,1.6-.4,2.4,0,.3.1.5.4.5.7h0v103.6c0,.5-.8,1-1.7,1s-1.7-.4-1.7-1h0s0-103.6,0-103.6Z"/>
      <path class="st29" d="M104.3,262.7l-15.8-15.2s-.2-.1-.3-.2l-2.3-1.3c-.5-.3-1.1-.1-1.4.4v.2l-16.6,35.2c-.3.8-.2,1.8.4,2.4l15.8,15.1s.2.1.3.2l2.3,1.3c.5.3,1.1.1,1.4-.4v-.2l16.6-35.2c.3-.8,0-1.8-.5-2.4h0Z"/>
      <path class="st20" d="M104.8,265.1l-16.6,35.2c-.2.5-.7.8-1.3.6-.2,0-.3-.2-.5-.3l-15.8-15.2c-.6-.6-.8-1.6-.4-2.4l16.6-35.2c.2-.5.7-.8,1.3-.6.2,0,.3.2.5.3l15.8,15.2c.6.6.8,1.6.4,2.4h0Z"/>
      <path class="st17" d="M72.1,284h0c0-.1,16.1-34.1,16.1-34.1l14.9,14.3h0c0,.1-16.1,34.1-16.1,34.1l-14.9-14.3Z"/>
      <path class="st21" d="M86.6,300.8l-2.2-1.3s-.2-.1-.3-.2l-15.8-15.2c-.3-.4-.5-.8-.6-1.3l2.3,1.3c0,.5.3,1,.6,1.3l15.8,15.2h.2v.2Z"/>
      <path class="st20" d="M88.2,254.3c.4-.2.7,0,.7.4s-.3,1-.7,1.3c-.4.2-.7,0-.7-.4s.3-1,.7-1.3Z"/>
      <path class="st20" d="M86.7,292.8c.4-.2.7,0,.7.4s-.3,1-.7,1.3c-.4.2-.7,0-.7-.4s.3-1,.7-1.3Z"/>
      <path class="st24" d="M92.2,265.8l.8-1.5,2.2-.5c0-.6-.4-1.2-.9-1.5-.8-.4-2,.3-2.8,1.6-.6,1-1,2.1-.9,3.3,0,.3,0,.6-.2.8l-1.1,2.1-.7,1.2,1.5,1.2.6-1,1-2c0-.3.4-.5.7-.6,1-.4,1.8-1.1,2.3-2.1l.2-.3-2.2.5-.3-1.3h-.2Z"/>
      <path class="st24" d="M86.6,275.2l-1,1.9-1,2c0,.3-.4.5-.7.6-1,.4-1.8,1.1-2.3,2.1,0,.1,0,.2-.2.3l2.2-.5.3,1.3-.8,1.5-2.2.5c0,.6.4,1.2.9,1.5.8.4,2-.3,2.8-1.6.6-1,1-2.1.9-3.3,0-.3,0-.6.2-.8l1.3-2.4.9-1.7-1.4-1.4h0Z"/>
      <path class="st24" d="M94.5,277.3l-6-4.7c-.3-.2-.6-.2-.8,0h0l-.7,1.2c0,.2,0,.5,0,.7l5.7,5.5c.2.2.4,0,.6-.2l1.1-2c.2-.3.2-.6,0-.7v.2Z"/>
      <polygon class="st24" points="83 270.2 86.7 273.2 87.1 272.5 83.5 269.4 83.2 268.5 81.2 267.5 80.8 268.3 82.2 270 83 270.2"/>
    </g>
  </g>
  <g id="freepik--Paint--inject-65">
    <g id="freepik--paint--inject-65">
      <path class="st20" d="M148,347.9h-26l1.2,18.5h0c0,1.7,1.1,3.5,3.3,4.8,4.5,2.7,11.9,2.8,16.4.2,2.3-1.3,3.4-3,3.4-4.8l1.6-18.7h.1Z"/>
      <path class="st29" d="M125.8,342.1c-5.1,2.9-5.2,7.6,0,10.6s13.3,3.1,18.4.2,5.2-7.6.1-10.6-13.3-3.1-18.4-.2Z"/>
      <path class="st21" d="M146.8,347.6c0,.3,0,.7-.2,1-.6,1.4-1.7,2.6-3.1,3.3-5.5,2.7-11.9,2.6-17.3-.2-1.4-.7-2.4-1.9-3-3.3,0-.3-.2-.7-.2-1.1,0-1.6,1.2-3.1,3.3-4.3,2.7-1.4,5.6-2.1,8.6-2,3,0,6,.7,8.6,2.1,2.1,1.3,3.2,2.8,3.2,4.4h0Z"/>
      <path class="st17" d="M135,349.7c-3,0-6,.6-8.6,2h0c5.4,2.8,11.8,2.9,17.3.2h.1c-2.6-1.5-5.6-2.3-8.6-2.2h-.1Z"/>
      <path class="st6" d="M135.9,353.9c-.8-.2-1.6-.5-2.4-.9-.7-.4-1.3-1-1.6-1.8,0-.2-.1-.4-.1-.6,0-.3,0-.5.2-.8-2,.2-3.9.8-5.6,1.8h0c2.6,1.5,5.6,2.2,8.6,2.2h1Z"/>
      <path class="st21" d="M139.9,354.8c.5-.3.9,0,.9.5s-.4,1.2-.9,1.6c-.5.3-.9,0-.9-.5s.4-1.2.9-1.6Z"/>
      <path class="st0" d="M122.3,353c-1.1,2.9-2,6.8.5,8.6l.4.3v1.2c-.3-.2-.7-.4-1-.7-3.7-2.8-1.4-8.8,0-11.8v2.3h0Z"/>
      <path class="st0" d="M140.3,356.1c-.1.3-3.7,7.1-9.6,8.5-.7.2-1.3.2-2,.2-2,0-3.9-.6-5.5-1.7v-1.2c2.1,1.6,4.7,2.2,7.3,1.7,5.4-1.3,8.9-8,9-8,.1-.2.4-.3.7-.2h0c.2.1.3.4.2.7h0Z"/>
    </g>
  </g>
</svg>